<?xml version="1.0" encoding="UTF-8"?>
<svg id="Camada_1" xmlns="http://www.w3.org/2000/svg" version="1.1" xmlns:xlink="http://www.w3.org/1999/xlink" viewBox="0 0 841.9 595.3">
  <!-- Generator: Adobe Illustrator 29.5.1, SVG Export Plug-In . SVG Version: 2.1.0 Build 141)  -->
  <defs>
    <style>
      .st0 {
        fill: #66b76b;
      }

      .st1 {
        clip-path: url(#clippath-6);
      }

      .st2 {
        clip-path: url(#clippath-7);
      }

      .st3, .st4 {
        fill: #010101;
      }

      .st5 {
        clip-path: url(#clippath-15);
      }

      .st6 {
        clip-path: url(#clippath-4);
      }

      .st4, .st7 {
        fill-rule: evenodd;
      }

      .st8 {
        fill: #cccbcb;
      }

      .st9 {
        fill: #e2388d;
      }

      .st7, .st10 {
        fill: #585857;
      }

      .st11 {
        fill: #f39031;
      }

      .st12 {
        clip-path: url(#clippath-9);
      }

      .st13 {
        fill: #a184bb;
      }

      .st14 {
        clip-path: url(#clippath-10);
      }

      .st15 {
        fill: #6ec2b6;
      }

      .st16 {
        fill: #fff;
      }

      .st17 {
        fill: #6484c2;
      }

      .st18 {
        fill: #a21639;
      }

      .st19 {
        clip-path: url(#clippath-11);
      }

      .st20 {
        fill: #312783;
      }

      .st21, .st22 {
        fill: none;
      }

      .st23 {
        clip-path: url(#clippath-1);
      }

      .st24 {
        clip-path: url(#clippath-5);
      }

      .st25 {
        fill: #b0b0b0;
      }

      .st26 {
        clip-path: url(#clippath-8);
      }

      .st27 {
        clip-path: url(#clippath-3);
      }

      .st28 {
        clip-path: url(#clippath-12);
      }

      .st29 {
        fill: #e84322;
      }

      .st30 {
        clip-path: url(#clippath-14);
      }

      .st22 {
        clip-rule: evenodd;
      }

      .st31 {
        fill: #6b59a2;
      }

      .st32 {
        fill: #e62251;
      }

      .st33 {
        fill: #f4acca;
      }

      .st34 {
        clip-path: url(#clippath-2);
      }

      .st35 {
        fill: #eb5f2c;
      }

      .st36 {
        clip-path: url(#clippath-13);
      }

      .st37 {
        clip-path: url(#clippath);
      }
    </style>
    <clipPath id="clippath">
      <rect class="st21" x="85.4" y="96.2" width="189.5" height="189.5"/>
    </clipPath>
    <clipPath id="clippath-1">
      <rect class="st21" x="85.4" y="96.2" width="189.5" height="189.5"/>
    </clipPath>
    <clipPath id="clippath-2">
      <rect class="st21" x="326.2" y="96.2" width="189.5" height="189.5"/>
    </clipPath>
    <clipPath id="clippath-3">
      <rect class="st21" x="326.2" y="96.2" width="189.5" height="189.5"/>
    </clipPath>
    <clipPath id="clippath-4">
      <rect class="st21" x="217.3" y="309.6" width="189.5" height="189.5"/>
    </clipPath>
    <clipPath id="clippath-5">
      <rect class="st21" x="217.3" y="309.6" width="189.5" height="189.5"/>
    </clipPath>
    <clipPath id="clippath-6">
      <rect class="st21" x="458.1" y="309.6" width="189.5" height="189.5"/>
    </clipPath>
    <clipPath id="clippath-7">
      <rect class="st21" x="458.1" y="309.6" width="189.5" height="189.5"/>
    </clipPath>
    <clipPath id="clippath-8">
      <rect class="st21" x="567.1" y="96.2" width="189.5" height="189.5"/>
    </clipPath>
    <clipPath id="clippath-9">
      <rect class="st21" x="567.1" y="96.2" width="189.5" height="189.5"/>
    </clipPath>
    <clipPath id="clippath-10">
      <polygon class="st22" points="-4011.3 143.6 -4015.1 143.6 -4015.9 147.1 -4040.6 244.5 -4031.4 246.8 -4007.7 153 -3889.9 152.5 -3887.6 143 -4011.3 143.6 -4011.3 143.6"/>
    </clipPath>
    <clipPath id="clippath-11">
      <rect class="st21" x="-4040.6" y="143" width="153" height="103.8"/>
    </clipPath>
    <clipPath id="clippath-12">
      <path class="st22" d="M-3822.5,155.2c-17.2,8.2-32.5,20.3-44.6,35.5l7.4,5.9c11.3-14.1,25.5-25.2,41.4-32.9,15.8-7.6,33.5-11.7,51.5-11.7,32.9,0,62.6,13.3,84.1,34.8,21.5,21.5,34.9,51.2,34.9,84.1s-13.3,62.6-34.9,84.1c-21.5,21.5-51.2,34.8-84.1,34.8s-35.9-4.2-51.8-11.9c-16-7.7-30.2-19-41.4-33.3l-7.5,5.8c12.2,15.4,27.6,27.6,44.8,36,17.2,8.4,36.3,12.8,55.9,12.8,35.4,0,67.5-14.4,90.8-37.6,23.2-23.2,37.6-55.3,37.6-90.8s-14.4-67.5-37.6-90.7c-23.2-23.3-55.3-37.6-90.8-37.6s-38.4,4.4-55.6,12.7h0Z"/>
    </clipPath>
    <clipPath id="clippath-13">
      <rect class="st21" x="-3867.6" y="142.5" width="229.1" height="256.7"/>
    </clipPath>
    <clipPath id="clippath-14">
      <path class="st22" d="M-3999.2,452.8h.3c35.1,0,69.2-14.4,95.9-37.9,26.7-23.3,46.1-55.7,51.9-91.4,1.2-7.2,1.7-14.2,1.7-21v-.3c0-27.7-9-52.5-24.7-71.5-15.7-19-38.1-32.1-64.8-36.4-6.3-1-12.8-1.5-19.4-1.5s-1.1,0-2.5,0c-.9,0-1.8,0-2.6,0l.4,9.4c.9,0,1.7,0,2.4,0h2.3c6.2,0,12.2.5,17.9,1.4,24.3,3.9,44.7,15.9,59,33.1,14.4,17.3,22.6,40,22.6,65.5s-.5,13.1-1.6,19.8c-5.4,33.5-23.7,63.8-48.8,85.8-25.1,21.9-56.9,35.5-89.7,35.5s-12.2-.5-17.9-1.4c-24.3-3.9-44.6-15.8-59-33.1-14.4-17.3-23.4-40.3-23.4-65.7s2.6-20.5,2.6-20.5l-9.6-.4c-1.2,7.3-2.4,14.1-2.4,20.9,0,27.7,9.9,52.8,25.6,71.7,15.8,19,38.1,32.1,64.8,36.4,6.2,1,12.6,1.5,19.1,1.5h0Z"/>
    </clipPath>
    <clipPath id="clippath-15">
      <rect class="st21" x="-4108.6" y="192.7" width="259.3" height="260"/>
    </clipPath>
  </defs>
  <g>
    <g class="st37">
      <g class="st23">
        <image width="396" height="395" transform="translate(84.9 96.1) scale(.5)" xlink:href="Manual-id-50-anos-DESIGN-PUCPR-VETORES-1.png"/>
      </g>
    </g>
    <g class="st34">
      <g class="st27">
        <image width="396" height="395" transform="translate(325.9 96.1) scale(.5)" xlink:href="Manual-id-50-anos-DESIGN-PUCPR-VETORES-2.png"/>
      </g>
    </g>
    <g class="st6">
      <g class="st24">
        <image width="396" height="396" transform="translate(216.9 309.2) scale(.5)" xlink:href="Manual-id-50-anos-DESIGN-PUCPR-VETORES-3.png"/>
      </g>
    </g>
    <g class="st1">
      <g class="st2">
        <image width="396" height="396" transform="translate(457.9 309.2) scale(.5)" xlink:href="Manual-id-50-anos-DESIGN-PUCPR-VETORES-4.png"/>
      </g>
    </g>
    <g class="st26">
      <g class="st12">
        <image width="396" height="395" transform="translate(566.9 96.1) scale(.5)" xlink:href="Manual-id-50-anos-DESIGN-PUCPR-VETORES-5.png"/>
      </g>
    </g>
  </g>
  <g>
    <polygon class="st8" points="-3786.8 416.3 -3787 416.3 -3787 416.4 -3792.1 440.6 -3800.8 416.4 -3800.8 416.3 -3800.9 416.3 -3808.7 416.3 -3808.8 416.3 -3808.8 416.4 -3816.3 451.7 -3816.4 451.8 -3816.2 451.8 -3809.3 451.8 -3809.2 451.8 -3809.1 451.7 -3803.9 426.9 -3795 451.7 -3794.9 451.8 -3794.8 451.8 -3787.5 451.8 -3787.3 451.8 -3787.3 451.7 -3779.8 416.5 -3779.8 416.3 -3780 416.3 -3786.8 416.3 -3786.8 416.3"/>
    <path class="st8" d="M-3718.4,415.7c-1.1-.2-2.4-.4-3.8-.4-4.7,0-8.1,1.2-10.5,2.8-3.5,2.4-5,5.8-5.5,8.1-1.7,7.9,3.6,9.2,9.1,10.5h0s3.6.9,3.6.9c1.8.4,3.3.8,4.2,1.5.9.6,1.4,1.4,1.1,2.7-.4,1.8-1.6,2.9-3.1,3.6-1.5.7-3.4.9-5.1.9s-1.6,0-2.3-.2c-1.6-.3-2.6-1-3.2-1.7-.6-.8-.8-1.7-.8-2.5s0-.8.1-1.1v-.2s-.1,0-.1,0h-7.2c-.2.9-.3,1.8-.3,2.8,0,1.7.4,3.6,1.6,5.2,1.2,1.6,3.2,2.9,6.4,3.6,1.4.3,3.1.5,5,.5s7-.4,11.1-3.2c2.5-1.7,4.6-4.4,5.4-8.4.7-3.2,0-5.3-1.4-6.8-1.4-1.5-3.6-2.2-5.9-2.8l-8.1-2.1h0c-.7-.2-1.5-.4-2.2-.9h0c-.6-.5-1-1.3-.7-2.6.3-1.4,1.1-2.3,2.2-3,1.4-.8,3.1-1.1,4.7-1.1,3.2,0,4.7.9,5.4,2,.7,1.1.6,2.4.6,3.1v.2s.2,0,.2,0h7.2c.1-.8.2-1.5.2-2.3,0-1.8-.4-3.7-1.6-5.4-1.2-1.7-3.2-3-6.2-3.6h0Z"/>
    <path class="st8" d="M-3838.7,438.2l7.2-13.4,1.4,13.4h-8.6ZM-3825.3,416.4h0c0-.1-.1-.1-.1-.1h-8.6c0,0-20.1,35.3-20.1,35.3v.2c-.1,0,.1,0,.1,0h7.9c0,0,4-7.3,4-7.3h12.8l.7,7.1h0c0,.1.1.1.1.1h8.2v-.2s-4.9-35.2-4.9-35.2h0Z"/>
    <path class="st8" d="M-3751.4,429.9c0,1.2-.2,2.6-.5,4.2-.9,4.2-2.5,7-4.3,8.9-2.5,2.5-5.4,3.3-7.7,3.3s-1.2,0-1.9-.2c-1.4-.3-2.7-1-3.8-2.2-1-1.2-1.7-3-1.7-5.6s.1-2.6.5-4.2c.9-4.2,2.5-7,4.4-8.9,2.5-2.5,5.4-3.3,7.7-3.3s1.2,0,1.9.2c1.4.3,2.7,1,3.7,2.2,1,1.2,1.7,3,1.7,5.6h0ZM-3753.6,415.8c-1.4-.3-2.8-.4-3.8-.4-2.9,0-8.8.8-13.7,5.2-3.1,2.8-5.9,7.1-7.3,13.5-.4,2.1-.6,4-.6,5.6,0,4.4,1.4,7.3,3.3,9.3,1.9,2,4.4,3,6.7,3.4,1.4.3,2.8.4,3.8.4,2.9,0,8.8-.8,13.7-5.2,3.1-2.8,5.9-7.1,7.3-13.5.4-2.1.6-4,.6-5.6,0-4.4-1.4-7.3-3.3-9.3-1.9-2-4.4-3-6.7-3.4h0Z"/>
    <path class="st8" d="M-3822.9,314.9h5.6c1.4,0,2.5.3,3.1,1,.7.6.8,1.7.5,3.2-.3,1.5-.9,2.6-1.9,3.3-.9.7-2.1,1-3.5,1h-5.6l1.8-8.5h0ZM-3833.9,338.7h6l2.2-10.4h6.1c3.2,0,5.8-.7,7.8-2.1,2-1.4,3.4-3.8,4.1-7.2.6-3.1.3-5.4-1.1-6.9-1.4-1.5-3.6-2.2-6.5-2.2h-12.5l-6.1,28.8h0Z"/>
    <path class="st8" d="M-3795.1,309.9h-6.1l-3.8,17.7c-.7,3.1-.7,5.4,0,7.2,1.1,3.1,4.2,4.7,9.2,4.7s8.7-1.6,11.1-4.7c1.3-1.7,2.3-4.1,3-7.2l3.8-17.7h-6.1l-3.8,17.7c-.4,2-1,3.4-1.6,4.3-1.1,1.6-2.8,2.4-5.3,2.4s-3.9-.8-4.3-2.4c-.3-.9-.2-2.4.2-4.3l3.8-17.7h0Z"/>
    <path class="st8" d="M-3767,317.1c1.6-1.8,3.6-2.6,5.7-2.6s3.6.6,4.5,1.9c.5.7.7,1.7.8,3.1h6c.3-1.8,0-3.6-.8-5.4-1.6-3.2-4.8-4.8-9.6-4.8s-6.9,1.2-9.7,3.6c-3.3,2.7-5.4,6.6-6.5,11.6-1,4.7-.6,8.3,1.2,11,1.8,2.7,4.8,4,8.9,4s6.3-1,8.9-3c2.6-2,4.4-4.5,5.6-7.7h-6c-.7,1.5-1.5,2.6-2.2,3.3-1.4,1.4-3.2,2.1-5.3,2.1s-3.6-.8-4.6-2.4c-1-1.6-1.1-4-.4-7.3.7-3.2,1.8-5.7,3.5-7.5h0Z"/>
    <path class="st8" d="M-3729.1,319c-.3,1.5-.9,2.6-1.9,3.3-.9.7-2.1,1-3.5,1h-5.6l1.8-8.5h5.6c1.4,0,2.5.3,3.1,1,.7.6.8,1.7.5,3.2h0ZM-3743.3,309.9l-6.1,28.8h6l2.2-10.4h6.1c3.2,0,5.8-.7,7.8-2.1,2-1.4,3.4-3.8,4.1-7.2.7-3.1.3-5.4-1.1-6.9-1.4-1.5-3.6-2.2-6.5-2.2h-12.5Z"/>
    <path class="st8" d="M-3700.9,318.9c-.4,1.6-1.2,2.7-2.5,3.2-.7.3-1.8.5-3.1.5h-6.8l1.6-7.7h7c1.3,0,2.2.2,2.8.5,1,.6,1.4,1.8,1,3.5h0ZM-3696.6,322.1c1-1.3,1.6-2.7,1.9-4,.2-1.1.3-2.1,0-3-.2-.9-.5-1.7-1-2.4-.6-.9-1.4-1.6-2.3-2-1-.5-2.5-.7-4.5-.7h-14.1l-6.1,28.8h5.9l2.4-11.3h6.2c1.8,0,2.9.3,3.4.9.5.6.6,1.8.2,3.7l-.5,2.7c-.2.8-.3,1.7-.3,2.5,0,.4,0,.9,0,1.5h6.6v-.7c-.4-.4-.6-.9-.6-1.6s.1-1.4.4-2.7l.4-1.9c.4-2,.5-3.5.1-4.5-.3-1-1.1-1.7-2.3-2.3,1.7-.5,3-1.5,4-2.8h0Z"/>
    <path class="st8" d="M-3909.1,407.8c-25,21.9-56.9,35.5-89.7,35.5h0c-6.2,0-12.2-.5-17.9-1.4-24.3-3.9-44.6-15.8-59-33.1-14.4-17.3-23.4-40.3-23.4-65.7s2.6-20.5,2.6-20.5l4.2-16.9h.1c7.1-17.1,21.1-34.3,39.5-46.4,15.9-10.5,35.1-17.1,55.7-16.3h.6c11.3.6,25.6,6.1,37,16,11.2,9.8,19.4,24.2,18.7,42.6,0,.1,0,.4,0,.9-.6,10.6-4.3,18.7-9.6,24.4h0c-.5.6-1.1,1.1-1.7,1.7.5-2,.7-4,.7-6.1,0-7.1-2.9-13.5-7.5-18.2-4.7-4.7-11.1-7.5-18.2-7.5s-1.8,0-2.7.1h0c-10,.8-22,5.3-30,14.1-6.6,7.3-11.2,17.3-11.9,30.3,0,.1,0,.5,0,.9-.8,21.7,8.6,38.5,21.6,50.1,12.8,11.5,29.1,17.7,42.1,18.4h.6s0,0,0,0c22.3.9,43-6.3,60.2-17.9,2.7-1.8,5.4-3.8,7.9-5.8-5.9,7.5-12.5,14.5-19.7,20.7h0ZM-4106.8,363.7c3.6,19.5,12,37,23.7,51.1,10.1,12.2,22.9,21.9,37.8,28.5h-81.2l19.7-79.6h0ZM-4066.9,202.2h37l-10,39.4c-6.4,2.7-12.4,6-18.1,9.7-10.4,6.9-19.6,15.3-27.1,24.5l18.2-73.6h0ZM-3988.6,333.9c-2.9-2.9-4.8-7-4.8-11.5s1.8-8.5,4.8-11.5c2.2-2.2,5-3.8,8.2-4.4.9-.1,1.8-.2,2.6-.3.2,0,.5,0,.7,0,4.5,0,8.5,1.8,11.5,4.8,2.9,2.9,4.8,7,4.8,11.5s-1.8,8.5-4.8,11.5c-2.9,2.9-7,4.8-11.5,4.8s-8.5-1.8-11.5-4.8h0ZM-3676.1,180.1c-23.2-23.3-55.3-37.6-90.8-37.6s-38.4,4.4-55.6,12.7c-17.2,8.2-32.5,20.3-44.6,35.5l7.4,5.9c11.3-14.1,25.5-25.2,41.4-32.9,15.8-7.6,33.5-11.7,51.5-11.7,32.9,0,62.6,13.3,84.1,34.8,21.5,21.5,34.9,51.2,34.9,84.1s-13.3,62.6-34.9,84.1c-21.5,21.5-51.2,34.8-84.1,34.8s-35.9-4.2-51.8-11.9c-14.7-7.1-27.8-17.2-38.6-29.8,2.8-7.9,4.9-16.1,6.3-24.5,1.2-7.3,1.7-14.4,1.7-21.3,0-27.7-9-52.5-24.7-71.5-15.7-19-38.1-32.1-64.8-36.4-6.3-1-12.8-1.5-19.4-1.5s-1.1,0-2.5,0c-.9,0-1.8,0-2.6,0l.4,9.4c.9,0,1.7,0,2.4,0h2.3c6.2,0,12.2.5,17.9,1.4,24.3,3.9,44.7,15.9,59,33.1,14.4,17.3,22.6,40,22.6,65.5s-.5,13.1-1.6,19.8c-.9,5.7-2.2,11.3-3.8,16.8-6.9,17.3-20.6,34.3-38.4,46.2-15.6,10.5-34.4,17-54.6,16.3h-.5c-11.1-.6-25.1-6-36.3-16-11-9.9-19.1-24.2-18.4-42.7,0-.1,0-.4,0-.8.6-10.6,4.3-18.7,9.5-24.4.2-.2.4-.5.7-.7-.4,1.9-.7,3.8-.7,5.8,0,7.1,2.9,13.5,7.5,18.2,4.7,4.7,11.1,7.5,18.2,7.5s1.4,0,2.1,0h0c0,0,.2,0,.2,0,.3,0,.5,0,.8,0,10-1.1,22.6-6.2,30.5-14.7h0c6.7-7.3,11.5-17.3,12.1-30.3,0-.2,0-.5,0-1,.8-21.7-8.8-38.5-22-50-13-11.4-29.6-17.7-42.7-18.4,0,0-.3,0-.7,0-11.3-.4-22.1,1.1-32.3,4.2l21.4-84.7,117.7-.5,2.3-9.5-123.8.6h-3.7l-.9,3.6-11.6,45.6h-46.8l-.9,3.6-61.9,250.6-1.5,5.9h143.8c33.6-1.2,66.1-15.4,91.8-37.9,17.8-15.6,32.3-35.1,41.8-57,11,11.9,24,21.5,38.3,28.5,17.2,8.4,36.3,12.8,55.9,12.8,35.4,0,67.5-14.4,90.8-37.6,23.2-23.3,37.6-55.3,37.6-90.8s-14.4-67.5-37.6-90.7h0Z"/>
    <path class="st8" d="M-3784.7,218.1c-.7,3.1-1.7,5.8-3,8.1-2.5,4.1-5.9,6.2-10.1,6.2h-8.2l5.9-27.7h8.2c4,0,6.5,1.2,7.3,3.5.9,2.3.8,5.6,0,9.9h0ZM-3782.5,198.2c-1.6-.6-3.7-.9-6.4-.9h-18.3l-9,42.4h18.3c6.4,0,11.7-2.6,15.9-7.9,3.1-3.9,5.2-8.7,6.4-14.3.5-2.2.7-4.6.7-7,0-2.5-.5-4.7-1.6-6.8-1.3-2.6-3.3-4.4-6.1-5.4h0Z"/>
    <polygon class="st8" points="-3773.4 239.7 -3741.2 239.7 -3739.6 232.1 -3763.1 232.1 -3760.8 221.2 -3740.2 221.2 -3738.6 213.8 -3759.2 213.8 -3757.3 204.8 -3734.9 204.8 -3733.3 197.3 -3764.4 197.3 -3773.4 239.7 -3773.4 239.7"/>
    <path class="st8" d="M-3825.6,281.2c-.9,4.4,0,7.9,2.5,10.4,2.6,2.5,6.7,3.8,12.2,3.8s9.9-1.3,13.4-3.8c3.5-2.6,5.7-5.8,6.5-9.6.8-3.8.2-6.7-2-8.7-1.4-1.3-3.6-2.3-6.6-3.1l-6.9-1.8c-2.7-.7-4.4-1.3-5.1-1.8-1.2-.7-1.6-1.9-1.3-3.4.3-1.6,1.3-2.9,2.9-3.9,1.6-.9,3.5-1.4,5.8-1.4s3.7.4,4.9,1.1c1.8,1.1,2.6,2.9,2.2,5.4h8.5c.8-4.5-.1-7.9-2.8-10.3-2.6-2.4-6.2-3.6-10.7-3.6s-9.7,1.3-13,3.8c-3.3,2.5-5.3,5.7-6.2,9.5-.9,4.2-.1,7.2,2.3,9.2,1.4,1.2,4.3,2.3,8.5,3.2l4.3,1c2.5.6,4.3,1.2,5.3,2,1.1.8,1.5,1.8,1.2,3.2-.5,2.4-2.1,4-4.7,4.9-1.4.5-3.1.7-5.2.7-3.5,0-5.8-.9-6.8-2.6-.6-1-.8-2.4-.7-4.3h-8.5Z"/>
    <polygon class="st8" points="-3787.8 294.3 -3779 294.3 -3770 251.9 -3778.8 251.9 -3787.8 294.3 -3787.8 294.3"/>
    <path class="st8" d="M-3742.9,250.8c-6.2,0-11.6,2.1-16.3,6.2-4.7,4.1-7.7,9.6-9.2,16.5-1.4,6.8-.7,12.1,2.2,16,2.8,3.9,6.9,5.8,12.6,5.8s6.4-.7,9.1-2.2c1.5-.8,3.4-2.2,5.5-4.3l-.2,5.3h5.9l4.8-22.7h-17.7l-1.5,7.1h9.8c-1,2.8-2.7,5-4.9,6.7-2.3,1.7-4.9,2.6-7.9,2.6s-5.5-1.1-7.4-3.2c-1.9-2.2-2.3-5.9-1.2-11.1,1.1-5.2,3-9.1,5.8-11.6,2.7-2.6,5.8-3.9,9.2-3.9s3.3.3,4.7.9c2.4,1.2,3.6,3.2,3.6,6.1h8.7c.4-4.1-.8-7.5-3.5-10.2-2.7-2.7-6.7-4.1-12.1-4.1h0Z"/>
    <polygon class="st8" points="-3681.6 251.9 -3689.9 251.9 -3696.2 281.5 -3706.8 251.9 -3716.1 251.9 -3725.1 294.3 -3716.8 294.3 -3710.4 264.2 -3699.5 294.3 -3690.6 294.3 -3681.6 251.9 -3681.6 251.9"/>
    <polygon class="st25" points="-4024 202.2 -4066.9 202.2 -4126.4 443.3 -3994.7 443.3 -3994.7 452.8 -4132.5 452.8 -4138.5 452.8 -4137.1 446.9 -4075.2 196.3 -4074.3 192.7 -4070.6 192.7 -4024 192.7 -4024 202.2 -4024 202.2"/>
    <g class="st14">
      <g class="st19">
        <image width="120" height="80" transform="translate(-4043.5 250.7) scale(1.4 -1.4)" xlink:href="Manual-id-50-anos-DESIGN-PUCPR-VETORES-6.png"/>
      </g>
    </g>
    <path class="st25" d="M-3977.2,296.7c7.1,0,13.5,2.9,18.2,7.5,4.7,4.7,7.5,11.1,7.5,18.2s-2.9,13.5-7.5,18.2c-4.7,4.7-11.1,7.5-18.2,7.5s-13.5-2.9-18.2-7.5c-4.7-4.7-7.5-11.1-7.5-18.2s2.9-13.5,7.5-18.2c4.7-4.7,11.1-7.5,18.2-7.5h0ZM-3965.7,311c-2.9-2.9-7-4.8-11.5-4.8s-8.5,1.8-11.5,4.8c-2.9,2.9-4.8,7-4.8,11.5s1.8,8.5,4.8,11.5c2.9,2.9,7,4.8,11.5,4.8s8.5-1.8,11.5-4.8c2.9-2.9,4.8-7,4.8-11.5s-1.8-8.5-4.8-11.5h0Z"/>
    <path class="st25" d="M-4101,302.1c7.8-18.8,23.1-37.6,43.1-50.8,17.5-11.5,38.5-18.7,61.2-17.8.4,0,.6,0,.7,0,13.2.7,29.7,6.9,42.7,18.4,13.1,11.5,22.8,28.3,22,50,0,.5,0,.8,0,1-.7,13-5.4,23.1-12.1,30.3h0c-8.1,8.8-21.4,14-31.5,14.8l1.5-9.8c8-.7,16.7-4.5,23.1-11.4h0c5.3-5.7,9.1-13.8,9.6-24.4,0-.5,0-.7,0-.9.7-18.4-7.5-32.7-18.7-42.6-11.4-10-25.7-15.4-37-16h-.6c-20.6-.8-39.8,5.8-55.7,16.2-18.4,12.1-32.4,29.3-39.5,46.5l-8.7-3.6h0Z"/>
    <path class="st25" d="M-3977.8,306.2c-7.8.7-18.8,4.2-25.1,11.1-5.2,5.8-8.9,13.8-9.5,24.4,0,.4,0,.7,0,.8-.7,18.5,7.4,32.9,18.4,42.7,11.2,10,25.2,15.4,36.3,16h.5c20.2.8,39-5.8,54.6-16.2,18-12.1,31.8-29.3,38.6-46.8l8.7,3.6c-7.5,19.1-22.5,37.9-42.1,51.1-17.2,11.5-37.8,18.7-60.2,17.9h-.6c-13-.7-29.3-6.9-42.1-18.4-12.9-11.6-22.4-28.4-21.6-50.1,0-.5,0-.8,0-.9.7-13,5.3-23.1,11.9-30.3,8-8.8,20-13.3,30-14.1l2,9.4h0Z"/>
    <path class="st7" d="M-3829.4,444.6h-12.8l-4,7.2h0c0,0,0,0,0,0h-8v-.2c.1,0,20.2-35.2,20.2-35.2h0c0,0,0,0,0,0h8.6c0,.1,4.9,35.4,4.9,35.4v.2s-.2,0-.2,0h-8.2c0-.1-.7-7.3-.7-7.3h0ZM-3830.2,438.2l-1.4-13.4-7.2,13.4h8.6ZM-3800.8,416.4l8.7,24.2,5.1-24.2h0c0-.1.1-.1.1-.1h7.1v.2s-7.5,35.2-7.5,35.2h0c0,.1-.1.1-.1.1h-7.5c0-.1-8.9-24.9-8.9-24.9l-5.3,24.8h0c0,.1-.1.1-.1.1h-7.1v-.2s7.5-35.2,7.5-35.2h0c0-.1.1-.1.1-.1h7.9ZM-3779,439.7c0-1.7.2-3.5.6-5.6,1.4-6.5,4.1-10.7,7.3-13.5,5-4.4,10.9-5.2,13.7-5.2s2.3,0,3.8.4c2.2.5,4.7,1.5,6.7,3.4,1.9,2,3.3,4.9,3.3,9.3s-.2,3.5-.6,5.6c-1.4,6.5-4.1,10.7-7.3,13.5-5,4.4-10.9,5.2-13.7,5.2s-2.3,0-3.8-.4c-2.2-.5-4.7-1.5-6.7-3.4-1.9-2-3.3-4.9-3.3-9.3h0ZM-3766.4,425.2c-1.9,1.9-3.5,4.7-4.4,8.9-.3,1.6-.5,3-.5,4.2,0,2.6.7,4.4,1.7,5.6,1,1.2,2.4,1.9,3.8,2.2.6.1,1.3.2,1.9.2,2.2,0,5.2-.8,7.7-3.3,1.9-1.9,3.5-4.7,4.3-8.9.3-1.6.5-3,.5-4.2h0c0-2.6-.7-4.4-1.7-5.6-1-1.2-2.4-1.9-3.7-2.2-.6-.1-1.3-.2-1.9-.2-2.2,0-5.2.8-7.7,3.3h0ZM-3742.2,443.5c0-.9.1-1.9.3-2.7h0c0-.1.1-.1.1-.1h7.2v.2c0,.3-.1.7-.1,1.1,0,.8.2,1.7.8,2.5.6.8,1.6,1.4,3.2,1.7.6.1,1.4.2,2.3.2,1.7,0,3.6-.2,5.1-.9,1.5-.7,2.7-1.8,3.1-3.6.3-1.3-.2-2.1-1.1-2.7-1-.6-2.5-1-4.2-1.5l-3.6-.9h0c-5.5-1.3-10.8-2.6-9.1-10.5.5-2.3,2-5.7,5.5-8.1,2.4-1.7,5.8-2.8,10.5-2.8s2.7.1,3.8.4c3.1.6,5,2,6.2,3.6,1.2,1.7,1.6,3.6,1.6,5.4s0,1.5-.2,2.2h0c0,.1-.1.1-.1.1h-7.2v-.2c0-.8.2-2.1-.5-3.1-.7-1.1-2.2-2-5.4-2s-3.3.3-4.7,1.1c-1.1.6-1.9,1.6-2.2,3-.3,1.3,0,2.1.7,2.6h0c.6.5,1.5.7,2.2.9h0s8.1,2.1,8.1,2.1c2.3.6,4.5,1.4,5.9,2.8,1.4,1.5,2.1,3.6,1.4,6.8-.9,4-3,6.7-5.4,8.4-4.1,2.9-9.1,3.2-11.1,3.2s-3.6-.2-5-.5c-3.2-.7-5.2-2-6.4-3.6-1.2-1.6-1.6-3.5-1.6-5.2h0Z"/>
    <path class="st25" d="M-3817.3,314.9h-5.6l-1.8,8.5h5.6c1.4,0,2.6-.3,3.5-1,.9-.7,1.6-1.8,1.9-3.3.3-1.5.2-2.6-.5-3.2-.7-.6-1.7-1-3.1-1h0ZM-3808.8,312.1c1.4,1.5,1.8,3.8,1.1,6.9-.7,3.4-2.1,5.8-4.1,7.2-2,1.4-4.6,2.1-7.8,2.1h-6.1l-2.2,10.4h-6l6.1-28.8h12.5c2.9,0,5,.7,6.5,2.2h0Z"/>
    <path class="st25" d="M-3778.1,309.9l-3.8,17.7c-.7,3.1-1.6,5.4-3,7.2-2.4,3.1-6.2,4.7-11.1,4.7s-8-1.6-9.2-4.7c-.6-1.7-.6-4.1,0-7.2l3.8-17.7h6.1l-3.8,17.7c-.4,2-.5,3.4-.2,4.3.4,1.6,1.8,2.4,4.3,2.4s4.2-.8,5.3-2.4c.7-.9,1.2-2.4,1.6-4.3l3.8-17.7h6.1Z"/>
    <path class="st25" d="M-3750.8,314.1c.9,1.8,1.1,3.6.8,5.4h-6c0-1.4-.4-2.4-.8-3.1-.8-1.3-2.3-1.9-4.5-1.9s-4.1.9-5.7,2.7c-1.6,1.8-2.8,4.3-3.5,7.5-.7,3.2-.5,5.7.4,7.3,1,1.6,2.5,2.4,4.6,2.4s3.9-.7,5.3-2.1c.8-.7,1.5-1.9,2.2-3.3h6c-1.2,3.1-3.1,5.7-5.6,7.7-2.6,2-5.5,3-8.9,3s-7.1-1.3-8.9-4c-1.8-2.7-2.2-6.3-1.2-11,1.1-5,3.2-8.9,6.5-11.6,2.9-2.4,6.1-3.6,9.7-3.6s8.1,1.6,9.6,4.8h0Z"/>
    <path class="st25" d="M-3732.7,314.9h-5.6l-1.8,8.5h5.6c1.4,0,2.6-.3,3.5-1,.9-.7,1.6-1.8,1.9-3.3.3-1.5.2-2.6-.5-3.2-.7-.6-1.7-1-3.1-1h0ZM-3724.3,312.1c1.4,1.5,1.8,3.8,1.1,6.9-.7,3.4-2.1,5.8-4.1,7.2-2,1.4-4.6,2.1-7.8,2.1h-6.1l-2.2,10.4h-6l6.1-28.8h12.5c2.9,0,5,.7,6.5,2.2h0Z"/>
    <path class="st25" d="M-3704.7,314.9h-7l-1.6,7.7h6.8c1.4,0,2.4-.2,3.1-.5,1.3-.5,2.1-1.6,2.5-3.2.4-1.7,0-2.9-1-3.5-.6-.3-1.5-.5-2.8-.5h0ZM-3705.3,337.1c0-.8.1-1.6.3-2.5l.5-2.7c.4-1.8.3-3.1-.2-3.7-.5-.6-1.7-.9-3.4-.9h-6.2l-2.4,11.3h-5.9l6.1-28.8h14.1c2,0,3.5.3,4.5.7,1,.5,1.8,1.1,2.3,2,.5.7.8,1.5,1,2.4.2.9.1,1.9,0,3-.3,1.4-.9,2.7-1.9,4-1,1.3-2.3,2.3-4,2.8,1.2.5,2,1.3,2.3,2.3.3,1,.3,2.5-.1,4.5l-.4,1.9c-.3,1.3-.4,2.2-.4,2.7,0,.7.2,1.3.7,1.6v.7h-6.8c0-.6,0-1.2,0-1.5h0Z"/>
    <g class="st28">
      <g class="st36">
        <image width="172" height="191" transform="translate(-3870.9 402.3) scale(1.4 -1.4)" xlink:href="Manual-id-50-anos-DESIGN-PUCPR-VETORES-7.png"/>
      </g>
    </g>
    <g class="st30">
      <g class="st5">
        <image width="196" height="194" transform="translate(-4111.5 456.7) scale(1.4 -1.4)" xlink:href="Manual-id-50-anos-DESIGN-PUCPR-VETORES-8.png"/>
      </g>
    </g>
    <path class="st10" d="M-3784.7,218.1c.9-4.3.9-7.6,0-9.9-.9-2.3-3.3-3.5-7.3-3.5h-8.2l-5.9,27.7h8.2c4.2,0,7.5-2.1,10.1-6.2,1.4-2.3,2.4-5,3-8.1h0ZM-3776.5,203.6c1,2.1,1.6,4.4,1.6,6.8,0,2.5-.2,4.8-.7,7-1.2,5.6-3.4,10.4-6.4,14.3-4.2,5.3-9.5,7.9-15.9,7.9h-18.3l9-42.4h18.3c2.6,0,4.7.3,6.4.9,2.8,1,4.8,2.8,6.1,5.4h0Z"/>
    <polygon class="st10" points="-3739.6 232.1 -3741.2 239.7 -3773.4 239.7 -3764.4 197.3 -3733.3 197.3 -3734.9 204.8 -3757.3 204.8 -3759.2 213.8 -3738.6 213.8 -3740.2 221.2 -3760.8 221.2 -3763.1 232.1 -3739.6 232.1 -3739.6 232.1"/>
    <path class="st10" d="M-3806.5,268.4l6.9,1.8c3,.8,5.2,1.8,6.6,3.1,2.1,2,2.8,4.9,2,8.7-.8,3.9-3,7.1-6.5,9.6-3.5,2.6-8,3.8-13.4,3.8s-9.6-1.3-12.2-3.8c-2.6-2.5-3.5-6-2.5-10.4h8.5c-.1,1.9,0,3.4.7,4.3,1.1,1.7,3.4,2.6,6.8,2.6s3.8-.2,5.2-.7c2.7-.9,4.2-2.5,4.7-4.9.3-1.4,0-2.5-1.2-3.2-1.1-.7-2.8-1.4-5.3-2l-4.3-1c-4.2-1-7-2.1-8.5-3.2-2.4-2-3.2-5-2.3-9.2.8-3.8,2.9-6.9,6.2-9.5,3.3-2.5,7.6-3.8,13-3.8s8,1.2,10.7,3.5c2.6,2.4,3.6,5.8,2.8,10.3h-8.5c.4-2.5-.3-4.4-2.2-5.4-1.2-.7-2.9-1.1-4.9-1.1s-4.2.5-5.8,1.4c-1.6.9-2.5,2.2-2.9,3.9-.3,1.5.1,2.6,1.3,3.4.7.5,2.5,1.1,5.1,1.8h0Z"/>
    <polygon class="st10" points="-3787.8 294.3 -3778.8 251.9 -3770 251.9 -3779 294.3 -3787.8 294.3 -3787.8 294.3"/>
    <path class="st10" d="M-3747.7,278.6l1.5-7.1h17.7l-4.8,22.7h-5.9l.2-5.3c-2.1,2-4,3.4-5.5,4.3-2.6,1.4-5.7,2.2-9.1,2.2-5.6,0-9.8-1.9-12.6-5.8-2.9-3.9-3.6-9.3-2.2-16,1.5-6.9,4.5-12.4,9.2-16.5,4.7-4.1,10.1-6.2,16.3-6.2s9.4,1.4,12.1,4.1c2.7,2.7,3.8,6.1,3.4,10.2h-8.7c0-2.9-1.3-4.9-3.6-6.1-1.3-.6-2.9-.9-4.7-.9-3.4,0-6.5,1.3-9.2,3.9-2.7,2.6-4.7,6.5-5.8,11.6-1.1,5.2-.7,8.9,1.2,11.1,1.9,2.2,4.4,3.2,7.4,3.2s5.6-.9,7.9-2.6c2.3-1.7,3.9-4,4.9-6.7h-9.8Z"/>
    <polygon class="st10" points="-3699.5 294.3 -3710.4 264.2 -3716.8 294.3 -3725.1 294.3 -3716.1 251.9 -3706.8 251.9 -3696.2 281.5 -3689.9 251.9 -3681.6 251.9 -3690.6 294.3 -3699.5 294.3 -3699.5 294.3"/>
  </g>
  <g>
    <path class="st3" d="M-2850.3,419.3c-.2-.2-.3-.4-.5-.6-.9-1-2.1-1.8-3.6-2.4-.6-.2-1.3-.4-2.1-.6-.8-.2-1.8-.3-2.8-.3-.3,0-.7,0-1,0h0c-4.7,0-8.1,1.2-10.5,2.8-1.2.8-2.1,1.7-2.9,2.7-1.5,1.9-2.2,3.9-2.6,5.4-1.2,5.4,1,7.7,4.2,9.1,1.5.6,3.2,1,4.9,1.4h0s3.6.9,3.6.9c.9.2,1.7.4,2.4.7.2,0,.4.1.5.2.5.2.9.4,1.3.6.6.4,1,.8,1.1,1.5,0,.1,0,.3,0,.4,0,.3,0,.6,0,.9,0,.2-.1.4-.2.6-.5,1.4-1.6,2.4-2.9,2.9-.4.2-.8.3-1.2.4-.4.1-.8.2-1.3.3-.9.1-1.8.2-2.6.2s-.4,0-.6,0c-.6,0-1.2,0-1.6-.2-1.2-.2-2.1-.7-2.7-1.2,0,0-.2-.2-.3-.3,0,0-.2-.2-.2-.3,0,0,0-.1-.1-.2-.4-.7-.6-1.5-.6-2.2h0c0-.4,0-.8.1-1.2v-.2s-.2,0-.2,0h-7.2c-.2.9-.3,1.8-.3,2.8s.2,2.7.8,4c.1.2.2.4.3.6.1.2.3.4.4.6.4.6,1,1.2,1.7,1.7.2.2.5.3.7.5,1,.6,2.3,1.1,3.9,1.5,1.4.3,3.1.5,5,.5s.9,0,1.4,0c2.2-.2,5.7-.8,8.9-2.7.3-.2.5-.3.8-.5.3-.2.6-.4.9-.7.9-.7,1.7-1.6,2.4-2.7.2-.3.5-.7.7-1.1.4-.8.8-1.6,1.1-2.5.1-.5.3-.9.4-1.4,0-.4.1-.8.2-1.2.3-2.6-.4-4.4-1.6-5.6,0,0-.2-.2-.3-.2-1.2-1.1-2.9-1.8-4.8-2.4-.3,0-.6-.2-.9-.2l-8.1-2.1h0c-.3,0-.7-.2-1.1-.3-.4-.1-.7-.3-1.1-.6h0c-.5-.4-.9-1.1-.8-2.1,0-.1,0-.3,0-.5,0-.2,0-.3.1-.5.2-.5.4-.9.7-1.3.4-.5.9-.9,1.4-1.2.4-.2.8-.4,1.3-.6.3,0,.6-.2.8-.2,0,0,.2,0,.3,0,.3,0,.7-.1,1-.2.2,0,.5,0,.7,0,.2,0,.4,0,.6,0,.4,0,.8,0,1.1,0,1.9.1,3.1.7,3.8,1.4.2.2.3.3.4.5,0,0,0,0,0,0,.7,1.1.6,2.4.6,3.1v.2h0,7.4c.1-.8.2-1.5.2-2.3,0-1.6-.3-3.3-1.2-4.8-.1-.2-.3-.4-.4-.6h0Z"/>
    <polygon class="st3" points="-2902.5 197.3 -2911.5 239.7 -2879.4 239.7 -2877.7 232.1 -2877.7 232.1 -2901.2 232.1 -2898.9 221.2 -2878.3 221.2 -2878.3 221.2 -2876.7 213.8 -2876.7 213.8 -2897.3 213.8 -2895.4 204.8 -2873 204.8 -2871.4 197.3 -2902.5 197.3 -2902.5 197.3"/>
    <path class="st3" d="M-2976.9,438.2l7.2-13.4v1.2c.1,0,1.4,12.2,1.4,12.2h-8.6ZM-2963.4,416.4h0c0-.1-.1-.1-.1-.1h-8.6c0,0-12.3,21.6-12.3,21.6l-7.8,13.7v.2h-.1,8.1s0,0,0,0l4-7.2h12.8l.7,7.1h0c0,.1.1.1.1.1h8.2v-.2s-5-35.2-5-35.2h0Z"/>
    <polygon class="st3" points="-2918.1 416.3 -2924.9 416.3 -2925.1 416.3 -2925.1 416.4 -2930.2 440.6 -2934.6 428.5 -2938.9 416.4 -2938.9 416.3 -2939 416.3 -2946.8 416.3 -2946.8 416.3 -2946.9 416.3 -2946.9 416.4 -2946.9 416.4 -2954.4 451.7 -2954.5 451.8 -2954.3 451.8 -2947.4 451.8 -2947.4 451.8 -2947.3 451.8 -2947.3 451.7 -2942 426.9 -2933.1 451.7 -2933 451.8 -2932.9 451.8 -2925.6 451.8 -2925.4 451.8 -2925.4 451.8 -2925.4 451.7 -2917.9 416.5 -2917.9 416.3 -2918.1 416.3 -2918.1 416.3"/>
    <path class="st3" d="M-2902,446.2c-.6,0-1.2,0-1.9-.2-1.4-.3-2.7-1-3.8-2.2-.1-.2-.2-.3-.4-.5-.2-.3-.4-.7-.6-1.1-.4-1-.7-2.4-.7-4s.1-2.6.5-4.2c.2-1,.5-2,.8-2.9.2-.4.3-.9.5-1.3.3-.8.7-1.5,1.1-2.2.6-1,1.3-1.8,2-2.5.3-.3.6-.5.9-.8.5-.4,1-.8,1.5-1,.9-.5,1.7-.9,2.6-1.1,1-.3,1.9-.4,2.8-.4s1.2,0,1.9.2c1,.2,2.1.6,2.9,1.4.3.2.6.5.8.8,1,1.2,1.7,3,1.7,5.6h0c0,1.2-.2,2.6-.5,4.2-.6,2.6-1.4,4.7-2.4,6.3-.2.3-.4.6-.6.9-.4.6-.9,1.1-1.3,1.6-.3.3-.6.6-1,.9-.3.3-.7.5-1,.7-.5.3-1,.6-1.4.8-.4.2-.8.3-1.2.5-.4.1-.9.3-1.3.3-.6.1-1.2.2-1.8.2h0ZM-2884.3,420c-.2-.3-.5-.5-.7-.8-.5-.5-1-.9-1.5-1.3-.3-.2-.5-.4-.8-.5-.6-.3-1.1-.6-1.7-.8-.9-.3-1.7-.6-2.6-.8-.7-.2-1.4-.3-2-.3-.6,0-1.2,0-1.7,0-.7,0-1.6,0-2.7.2-2.3.3-5.3,1.1-8.2,2.9-1,.6-1.9,1.3-2.9,2.1-.6.5-1.2,1.1-1.7,1.7-.4.4-.7.9-1.1,1.3-.2.2-.3.5-.5.7-.3.5-.7,1-1,1.6-.3.6-.6,1.1-.9,1.8-.3.6-.6,1.3-.8,1.9-.4,1-.7,2.1-1,3.3,0,.4-.2.8-.3,1.2-.1.5-.2,1-.3,1.5,0,.5-.1,1-.2,1.4-.1.9-.2,1.8-.2,2.6,0,4.4,1.4,7.3,3.3,9.3,1.9,2,4.4,3,6.7,3.4,1.1.2,2.1.3,3,.4.3,0,.6,0,.8,0,1.5,0,3.8-.2,6.4-1,.7-.2,1.4-.5,2.1-.8,1.3-.6,2.6-1.3,3.9-2.3.2-.1.4-.3.5-.4.3-.2.5-.4.8-.6.8-.7,1.5-1.5,2.3-2.4.7-.9,1.4-1.9,2-3,.6-1.1,1.2-2.3,1.7-3.7.1-.3.2-.7.4-1,.3-1.1.7-2.2.9-3.4.4-2.1.6-4,.6-5.6s-.3-4-.9-5.5c-.4-1.1-1-2.1-1.7-3h0Z"/>
    <path class="st3" d="M-2955.4,314.9c1.4,0,2.5.3,3.1,1,.2.2.3.3.4.6,0,.1,0,.2.1.3,0,.2.1.5.1.8,0,.4,0,.9-.2,1.5-.3,1.5-.9,2.6-1.9,3.3-.9.7-2.1,1-3.5,1h-5.6l1.8-8.5h5.6ZM-2972,338.7h6l2.2-10.4h6.1c1.2,0,2.3,0,3.3-.3,1.7-.3,3.2-.9,4.5-1.8,2-1.4,3.4-3.8,4.1-7.2.2-.8.3-1.5.3-2.2,0-.3,0-.7,0-1,0-.6-.1-1.2-.3-1.7-.2-.8-.6-1.5-1.1-2-.4-.4-.8-.7-1.2-1-.4-.3-.9-.5-1.5-.7-1.1-.4-2.3-.6-3.8-.6h-12.5l-6.1,28.8h0Z"/>
    <path class="st3" d="M-2937,327.6l3.8-17.7h-6.1l-3.8,17.7c-.7,3.1-.7,5.4,0,7.2,1.1,3.1,4.2,4.7,9.2,4.7h0c2.5,0,4.7-.4,6.5-1.2.5-.2.9-.4,1.3-.7.8-.5,1.6-1.1,2.3-1.8.3-.3.7-.7,1-1.1.7-.9,1.2-1.9,1.7-3.1.5-1.2.9-2.6,1.2-4.1l3.8-17.7h-6.1l-3.8,17.7c-.2.7-.3,1.4-.5,2,0,.2-.1.4-.2.6-.3.7-.6,1.3-.9,1.8-.5.8-1.2,1.4-2.1,1.8-.4.2-.9.4-1.4.5-.5.1-1.1.1-1.7.1-2.4,0-3.9-.8-4.3-2.4,0-.2-.1-.5-.1-.8,0-.9,0-2.1.4-3.6h0Z"/>
    <path class="st3" d="M-2906.3,318.6c.2-.3.4-.5.5-.8.2-.2.4-.5.6-.7,1.6-1.8,3.6-2.6,5.7-2.6s3.6.6,4.5,1.9c.5.7.7,1.7.8,3.1h6c0-.5.1-.9.1-1.4,0-.7,0-1.3-.2-2-.2-.7-.4-1.3-.7-2-.6-1.2-1.4-2.2-2.5-2.9-1.7-1.2-4.1-1.9-7.2-1.9s-.9,0-1.3,0c-.9,0-1.7.2-2.6.4-.8.2-1.6.5-2.4.9-.8.4-1.5.8-2.3,1.3-.4.3-.7.5-1.1.8-.4.3-.8.7-1.2,1.1-2.6,2.6-4.4,6.2-5.3,10.6-.4,1.7-.5,3.4-.5,4.8,0,2.4.6,4.5,1.7,6.2.2.3.5.6.7.9,1.8,2,4.6,3.1,8.2,3.1s6.3-1,8.9-3c2.6-2,4.4-4.5,5.6-7.7h-6c-.7,1.5-1.5,2.6-2.2,3.3-1.4,1.4-3.2,2.1-5.3,2.1s-3.6-.8-4.6-2.4c-.1-.2-.2-.4-.3-.6,0-.2-.2-.5-.3-.7-.4-1.5-.4-3.5.1-5.9.5-2.4,1.3-4.4,2.3-6h0Z"/>
    <path class="st3" d="M-2871.6,323.3c-.3,0-.7,0-1,0h-5.6l1.8-8.5h5.6c.4,0,.7,0,1,0,.9.1,1.6.4,2.1.9.7.6.8,1.7.5,3.2-.3,1.5-.9,2.6-1.9,3.3-.2.2-.5.3-.7.5-.5.3-1.1.4-1.8.5h0ZM-2868.8,309.9h-12.6l-6.1,28.8h6l2.2-10.4h6.1c.8,0,1.6,0,2.3-.1,1.1-.1,2.1-.4,3-.7.9-.3,1.8-.8,2.5-1.3.8-.5,1.4-1.2,2-2,1-1.3,1.7-3.1,2.1-5.2.2-.8.3-1.5.3-2.2,0-.3,0-.7,0-1,0-1.6-.5-2.8-1.4-3.7-1.4-1.5-3.6-2.2-6.5-2.2h0Z"/>
    <path class="st3" d="M-2839,318.9c-.3,1.2-.8,2.1-1.6,2.7-.3.2-.6.4-.9.5-.7.3-1.8.5-3.1.5h-6.8l1.6-7.7h7c1.3,0,2.2.2,2.8.5.6.4,1,1,1.1,1.8,0,.2,0,.3,0,.5,0,.4,0,.8-.1,1.2h0ZM-2834.7,322.1c.2-.3.5-.7.7-1,.6-1,1-2,1.2-3,0-.3.1-.6.1-.8,0-.8,0-1.5,0-2.2-.2-.9-.5-1.7-1-2.4-.3-.4-.6-.8-1-1.2-.4-.3-.8-.6-1.3-.8-.1,0-.3-.1-.4-.2-.3-.1-.6-.2-.9-.3-.3,0-.7-.1-1.1-.2-.6,0-1.3-.1-2-.1h-14.1l-6.1,28.8h5.9l2.4-11.3h6.2c1.8,0,2.9.3,3.4.9.5.6.6,1.8.2,3.7l-.5,2.7c-.2.8-.3,1.7-.3,2.5,0,0,0,.2,0,.3,0,.3,0,.8,0,1.2h6.6v-.7c-.2-.3-.5-.6-.6-1.1,0-.2,0-.3,0-.5s0-.6.1-1c0-.4.2-1,.3-1.7l.4-1.9c.2-1,.3-1.9.4-2.6,0-.8,0-1.4-.2-1.9-.2-.5-.5-.9-.8-1.3-.4-.4-.9-.7-1.5-1,.4-.1.8-.3,1.2-.5,1.1-.6,2.1-1.3,2.8-2.3h0Z"/>
    <path class="st3" d="M-3249.5,382.5l4.6-18.8c.2,1.2.4,2.3.7,3.5,0,0,0,.2,0,.2.5,2.3,1.1,4.6,1.7,6.8,0,0,0,.2,0,.3.6,2.2,1.3,4.4,2.1,6.6,0,.1,0,.2.1.4.8,2.1,1.6,4.2,2.5,6.3,0,.1.1.3.2.4.9,2,1.8,4,2.8,6,0,.2.2.3.3.5.5,1,1,1.9,1.5,2.9,0,0,0,0,0,0,.5.9,1,1.8,1.5,2.7.1.2.2.4.3.6.5.9,1.1,1.8,1.7,2.7,0,0,0,0,0,0,.5.9,1.1,1.7,1.7,2.5.1.2.3.4.4.6.6.9,1.2,1.7,1.8,2.5,0,0,0,0,0,0,.6.8,1.2,1.6,1.8,2.4.2.2.3.4.5.6.6.8,1.3,1.6,1.9,2.4,0,0,0,0,0,0,0,0,0,0,0,0,.6.7,1.2,1.4,1.7,2,.2.2.4.4.5.6.4.5.9,1,1.3,1.4.2.2.4.4.6.6.5.5,1,1,1.5,1.5.1.1.3.3.4.4.6.7,1.3,1.3,2,1.9,0,0,.2.2.3.2.6.5,1.2,1.1,1.8,1.6.2.1.3.3.5.4.6.5,1.1,1,1.7,1.5.1.1.3.2.4.3,1.4,1.2,2.9,2.4,4.4,3.6,0,0,.1,0,.2.1.7.5,1.4,1,2.1,1.6,0,0,.2.1.3.2,2.4,1.7,4.8,3.3,7.4,4.8,0,0,0,0,0,0,3.4,2,7,3.9,10.7,5.5h-81.2l15-60.8h0ZM-3222.5,272.9l17.5-70.7h37l-10,39.4h0c-2.4,1-4.7,2.1-6.9,3.2,0,0-.1,0-.2.1-.7.4-1.4.7-2.1,1.1,0,0,0,0-.1,0-.7.4-1.5.8-2.2,1.2,0,0,0,0,0,0-.7.4-1.3.8-2,1.2-.2.1-.4.2-.5.3-.5.3-1,.6-1.5.9-.2.1-.4.2-.5.3-.7.4-1.3.8-2,1.3-1.3.8-2.5,1.7-3.8,2.6-.4.3-.8.6-1.1.8-.8.6-1.7,1.2-2.5,1.9-.4.3-.8.7-1.3,1-.8.6-1.5,1.2-2.3,1.8-.4.4-.8.7-1.3,1.1-.7.6-1.5,1.2-2.2,1.9-.4.4-.8.8-1.2,1.1-.7.6-1.4,1.3-2.1,2-.4.4-.8.8-1.2,1.1-.7.7-1.3,1.3-2,2-.4.4-.7.8-1.1,1.2-.6.7-1.3,1.4-1.9,2.1-.4.4-.7.8-1,1.2-.6.7-1.2,1.4-1.8,2.1-.1.2-.3.3-.4.4l.7-2.8h0ZM-3116.2,247.5c4.8,2,9.6,4.7,14.1,8,1.5,1.1,3,2.3,4.4,3.5.4.3.7.6,1,.9,1.4,1.3,2.7,2.6,4,4,.6.7,1.3,1.4,1.9,2.2.6.7,1.2,1.5,1.8,2.3.3.4.6.8.8,1.2.8,1.2,1.6,2.4,2.3,3.7.2.4.5.8.7,1.3.5.9.9,1.7,1.3,2.6,1.1,2.2,2,4.6,2.7,7,.3,1,.6,2,.8,3,.4,1.5.7,3.1.9,4.6.4,2.6.6,5.4.5,8.2,0,.6,0,1.1,0,1.7,0,0,0,.2,0,.3,0,.1,0,.3,0,.6-.1,1.9-.3,3.7-.6,5.4-.1.7-.2,1.4-.4,2.1-.4,1.6-.8,3.1-1.3,4.6,0,.3-.2.6-.3.8-1.5,4-3.6,7.5-6.1,10.4-.3.4-.6.7-1,1.1h0c-.3.3-.6.7-.9,1-.2.2-.5.5-.7.7.1-.5.2-.9.3-1.4,0,0,0-.1,0-.2,0-.4.1-.8.2-1.2,0-.1,0-.2,0-.3,0-.4,0-.8.1-1.1,0-.1,0-.2,0-.4,0-.5,0-1,0-1.5h0c0-5.3-1.6-10.3-4.4-14.4-.9-1.4-2-2.6-3.1-3.8-.3-.3-.6-.6-.9-.9-.6-.6-1.2-1.1-1.9-1.6-.7-.5-1.3-1-2.1-1.4-1.8-1.1-3.7-1.9-5.7-2.6-.4-.1-.8-.2-1.2-.3-2.1-.5-4.2-.8-6.4-.8s-.9,0-1.4,0c0,0,0,0,0,0-.4,0-.9,0-1.3.1h0c0,0-.1,0-.2,0-4.9.4-10.4,1.8-15.6,4.1-5.3,2.3-10.3,5.6-14.3,10-1.2,1.4-2.4,2.8-3.5,4.4-.7,1-1.4,2.1-2.1,3.2-1.6,2.8-3,5.9-4,9.3-.4,1.4-.8,2.7-1.1,4.2-.6,2.9-1.1,6-1.2,9.2,0,.1,0,.3,0,.6,0,0,0,.2,0,.3,0,.7,0,1.4,0,2,0,6.2.7,11.9,2.2,17.3.8,2.8,1.7,5.4,2.8,8,.7,1.6,1.4,3.2,2.2,4.7,3.8,7,8.8,13.1,14.4,18.2,4.4,4,9.3,7.3,14.3,10,.9.5,1.7.9,2.6,1.4.9.4,1.7.8,2.6,1.2,1.1.5,2.1.9,3.2,1.3,6.8,2.7,13.5,4.2,19.5,4.5h.6s0,0,0,0c1.4,0,2.8,0,4.2,0,10.4,0,20.4-1.8,29.8-5,.6-.2,1.3-.4,1.9-.6,1.2-.4,2.5-.9,3.7-1.4,3.7-1.5,7.2-3.1,10.7-4.9,1.2-.6,2.3-1.2,3.4-1.9.6-.3,1.1-.7,1.7-1,1.7-1,3.3-2,4.9-3.1,1.3-.9,2.6-1.8,3.9-2.7.3-.2.5-.4.8-.6,1-.7,2-1.5,3-2.3,0,0,.2-.1.2-.2-1.5,1.9-3,3.7-4.5,5.5,0,0-.1.2-.2.2-.7.8-1.4,1.5-2,2.3-.2.2-.4.4-.6.6-.6.6-1.1,1.3-1.7,1.9-.2.3-.5.5-.7.8-.5.6-1.1,1.1-1.6,1.7-.3.3-.5.6-.8.8-.5.5-1.1,1.1-1.6,1.6-.3.3-.6.6-.8.8-.6.5-1.1,1.1-1.7,1.6-.3.2-.5.5-.8.7-.8.8-1.6,1.5-2.5,2.2,0,0,0,0,0,0-2.3,2.1-4.8,4-7.2,5.9,0,0-.2.1-.3.2-.7.6-1.5,1.1-2.2,1.7-.2.2-.5.3-.7.5-.6.4-1.2.9-1.8,1.3-.5.4-1,.7-1.5,1.1-.3.2-.7.5-1,.7-.5.3-1,.7-1.5,1-.4.2-.7.5-1.1.7-.7.5-1.4.9-2.1,1.3-.2.1-.3.2-.5.3-.7.4-1.4.9-2.1,1.3-.2.1-.4.2-.5.3-.8.5-1.7,1-2.5,1.4,0,0-.1,0-.2.1-4.5,2.5-9.1,4.8-13.8,6.8,0,0,0,0,0,0-16,6.9-33.2,10.7-50.6,10.7h0c-4.7,0-9.2-.3-13.5-.8-.4,0-.7,0-1.1-.1-.4,0-.7,0-1.1-.1-.7-.1-1.4-.2-2.1-.3-3-.5-6-1.1-8.9-1.8-1.5-.4-2.9-.8-4.3-1.2-2.1-.6-4.2-1.3-6.3-2.1-.9-.3-1.8-.7-2.6-1-4.5-1.8-8.8-4-12.9-6.4-1.2-.7-2.4-1.5-3.6-2.3-2.9-2-5.8-4.1-8.5-6.3-1.1-.9-2.1-1.8-3.2-2.8-1-.9-2-1.9-3-2.9-2-2-3.9-4.1-5.6-6.2-4.9-5.9-9.2-12.6-12.8-19.7-.3-.7-.6-1.3-.9-2-.6-1.3-1.2-2.7-1.8-4-.3-.7-.6-1.4-.8-2-.5-1.4-1-2.8-1.5-4.2-1.2-3.5-2.2-7.1-3.1-10.8-.3-1.5-.6-3-.9-4.5-1.1-6-1.6-12.2-1.6-18.6s0-2.7.2-4.3c.1-1.6.4-3.3.6-5,0-.6.2-1.1.2-1.7,0-.6.2-1.1.2-1.7.2-1.4.4-2.6.6-3.7.4-2.4.7-4.1.7-4.1l4.2-16.9h.1c1.3-3.2,2.9-6.4,4.7-9.6,1.2-2.1,2.5-4.2,3.9-6.3.7-1,1.4-2.1,2.2-3.1,3.7-5.2,8-10.1,12.9-14.7,1.9-1.9,3.9-3.6,6-5.4,3.1-2.6,6.4-5,9.9-7.3,8-5.2,16.7-9.5,26.1-12.4,1.2-.4,2.3-.7,3.5-1,1.4-.4,2.8-.7,4.2-1,7-1.5,14.4-2.2,21.9-1.9h.6c5.7.3,12.1,1.8,18.5,4.5h0ZM-3120.1,338c-1.9-.6-3.7-1.5-5.2-2.7-.5-.4-1-.8-1.5-1.3-.9-.9-1.6-1.9-2.3-2.9-1.5-2.5-2.5-5.4-2.5-8.6s.3-3.3.7-4.8c.3-1,.7-2,1.2-2.9.8-1.4,1.7-2.6,2.8-3.7.3-.3.7-.6,1-.9.1,0,.2-.2.3-.3.3-.2.5-.4.8-.6.1,0,.2-.2.3-.2.4-.3.8-.5,1.2-.7,0,0,0,0,0,0,.4-.2.8-.4,1.2-.6.1,0,.3-.1.4-.2.3-.1.6-.2,1-.4.1,0,.3,0,.4-.1.5-.1.9-.3,1.4-.4.8-.1,1.5-.2,2.2-.3,0,0,0,0,0,0,.3,0,.7,0,1,0,2.8,0,5.4.7,7.7,2,1.4.8,2.6,1.7,3.7,2.8.4.4.7.8,1,1.2,1,1.2,1.8,2.6,2.4,4,.4,1,.7,2,.9,3.1.2,1.1.3,2.2.3,3.3s-.1,2.2-.3,3.3c-.2.9-.4,1.7-.7,2.5-.8,2.2-2.1,4.1-3.7,5.7-1.1,1.1-2.4,2-3.7,2.8-2.3,1.3-4.9,2-7.7,2s-3.3-.3-4.8-.7h0ZM-2790.7,212.4c-.5-.9-1-1.8-1.5-2.7-3.5-6.4-7.4-12.4-11.9-18.1-.6-.8-1.3-1.6-1.9-2.4-2.6-3.2-5.4-6.2-8.3-9.1-8.7-8.7-18.7-16.2-29.6-22.1-1.8-1-3.7-1.9-5.5-2.8-2.8-1.4-5.7-2.6-8.6-3.8-4.9-1.9-9.9-3.5-15-4.9-1-.3-2.1-.5-3.1-.8-5.2-1.2-10.5-2.1-15.9-2.6-2.2-.2-4.3-.4-6.5-.5-2.2-.1-4.4-.2-6.6-.2s-4.9,0-7.3.2c-4.8.3-9.6.8-14.3,1.6-1.2.2-2.4.4-3.5.7-10.6,2.1-20.8,5.5-30.4,10.2-5.4,2.6-10.5,5.5-15.5,8.8-3,2-5.9,4.1-8.7,6.3-1.9,1.5-3.7,3-5.5,4.6-.9.8-1.8,1.6-2.7,2.4-3.5,3.3-6.8,6.8-10,10.5-.8.9-1.6,1.9-2.3,2.8l7.4,5.9c3.5-4.4,7.3-8.5,11.4-12.3.8-.8,1.6-1.5,2.5-2.2,1.7-1.5,3.4-2.9,5.1-4.3,2.6-2.1,5.3-4,8-5.8,4.6-3.1,9.4-5.8,14.4-8.2,4-1.9,8-3.6,12.2-5.1,3.1-1.1,6.3-2.1,9.5-2.9,2.1-.6,4.3-1.1,6.5-1.5,3.3-.7,6.6-1.2,9.9-1.5,2.2-.3,4.4-.4,6.7-.6,2.2-.1,4.5-.2,6.7-.2s6.1.1,9.2.3c29.2,2.2,55.4,14.9,74.9,34.5,8.1,8.1,15,17.3,20.5,27.4,2.7,5.1,5.1,10.3,7.1,15.8,3.3,9.1,5.6,18.7,6.6,28.7.1,1,.2,2,.3,3,.2,2,.3,4,.3,6.1,0,1,0,2,0,3.1,0,20.5-5.2,39.8-14.4,56.7-1.4,2.5-2.8,5-4.4,7.4-.5.8-1,1.6-1.6,2.4-4.3,6.3-9.1,12.2-14.5,17.6-19.5,19.5-45.7,32.2-74.9,34.5-3,.2-6.1.3-9.2.3s-4.5,0-6.8-.2c-2.3-.1-4.5-.3-6.7-.6-4.5-.5-8.9-1.3-13.2-2.3-3.3-.8-6.5-1.6-9.7-2.7-5.3-1.7-10.4-3.8-15.4-6.2-1-.5-1.9-.9-2.9-1.4-.3-.2-.7-.4-1-.5-.6-.3-1.2-.6-1.8-1-.4-.2-.8-.5-1.2-.7-.5-.3-1-.6-1.5-.9-.5-.3-.9-.5-1.3-.8-.5-.3-.9-.5-1.4-.8-.5-.3-1-.6-1.4-.9-.4-.3-.8-.5-1.2-.8-.5-.3-1-.7-1.5-1-.4-.2-.7-.5-1.1-.7-.5-.4-1.1-.7-1.6-1.1-.3-.2-.6-.4-.9-.7-.6-.4-1.1-.8-1.7-1.3-.2-.2-.5-.4-.7-.6-.6-.5-1.2-1-1.8-1.4-.1-.1-.3-.2-.4-.4-5.4-4.4-10.5-9.4-15.1-14.8,0,0,0,0,0,0,.3-1,.7-2,1-3,0,0,0,0,0,0,.3-1,.6-1.9.9-2.9,0,0,0-.1,0-.2.3-.9.6-1.9.8-2.8,0-.1,0-.3.1-.4.2-.9.5-1.7.7-2.6,0-.2.1-.5.2-.7.2-.8.4-1.6.6-2.4,0-.4.2-.7.2-1.1.2-.7.3-1.3.4-2,.1-.6.2-1.1.3-1.7,0-.5.2-1,.3-1.5.2-1.1.4-2.1.6-3.2,1.2-7.3,1.7-14.4,1.7-21.3,0-27.7-9-52.5-24.7-71.5-2.9-3.6-6.1-6.9-9.5-10-1.1-1-2.3-2.1-3.5-3.1-14.2-11.9-31.8-20.1-51.8-23.4-6.3-1-12.8-1.5-19.4-1.5s-.4,0-.8,0c-.4,0-1,0-1.7,0-.2,0-.5,0-.7,0-.7,0-1.3,0-1.9,0l.4,9.4c.9,0,1.7,0,2.4,0h2.3c6.2,0,12.2.5,17.9,1.4,6.8,1.1,13.4,2.8,19.5,5.2,2.1.8,4.1,1.6,6,2.5,6.6,3,12.7,6.7,18.3,10.9,3.9,3,7.6,6.3,10.9,9.8,1,1,1.9,2,2.8,3.1.5.5.9,1.1,1.4,1.6,1.3,1.6,2.6,3.3,3.9,5,2.1,2.9,4,5.8,5.7,8.9.7,1.2,1.4,2.5,2,3.8.6,1.3,1.3,2.6,1.9,3.9.9,2,1.7,4,2.5,6,1.3,3.4,2.4,6.9,3.3,10.5.9,3.6,1.7,7.3,2.2,11.1.8,5.3,1.2,10.7,1.2,16.3s0,1.6,0,2.4c0,1.6,0,3.3-.2,4.9-.2,4.1-.7,8.3-1.4,12.5h0c-.2,1.3-.4,2.6-.7,3.9,0,.3-.1.6-.2.9-.2,1.1-.5,2.3-.7,3.4,0,.1,0,.3,0,.4-.6,2.7-1.3,5.4-2.1,8.1-.1.3-.3.6-.4.9-.3.7-.6,1.5-.9,2.2-.2.3-.3.7-.5,1-.3.7-.7,1.5-1.1,2.2-.2.3-.3.7-.5,1-.4.7-.8,1.5-1.2,2.2-.2.3-.4.6-.6,1-.4.7-.8,1.5-1.3,2.2-.2.3-.4.7-.6,1-.4.7-.9,1.5-1.4,2.2-.2.3-.4.7-.7,1-.5.7-.9,1.4-1.4,2.1-.2.3-.5.7-.7,1-.5.7-1,1.4-1.5,2-.3.4-.6.7-.8,1.1-.5.7-1,1.3-1.5,1.9-.3.4-.6.7-.9,1.1-.5.6-1,1.2-1.6,1.8-.3.4-.7.8-1,1.1-.5.6-1.1,1.2-1.6,1.7-.4.4-.8.8-1.2,1.2-.5.5-1,1.1-1.6,1.6-.4.4-.9.8-1.3,1.2-.5.5-1,1-1.6,1.5-.5.4-1,.9-1.5,1.3-.5.4-1,.9-1.5,1.3-.5.5-1.1.9-1.7,1.4-.5.4-.9.8-1.4,1.2-.7.5-1.3,1-2,1.5-.4.3-.8.6-1.2.9-1,.8-2.1,1.5-3.2,2.2,0,0,0,0-.1,0-4.9,3.3-10.1,6.2-15.5,8.6-3.3,1.4-6.6,2.7-10.1,3.8-4.6,1.4-9.3,2.5-14.2,3.2-2.4.3-4.9.6-7.3.7-1.2,0-2.5,0-3.7.1-1.3,0-2.5,0-3.8,0h-.2s-.3,0-.3,0c-3.5-.2-7.2-.8-11.1-2-1.5-.4-3.1-1-4.7-1.6-2.4-.9-4.7-2-7.1-3.2-1.6-.8-3.1-1.7-4.6-2.7-3.1-1.9-6-4.1-8.8-6.6-1-.9-2-1.9-3-2.9-.7-.7-1.3-1.4-1.9-2.1-.6-.7-1.2-1.4-1.8-2.2-2.4-3-4.5-6.2-6.2-9.7-.4-.7-.7-1.5-1.1-2.3-.7-1.5-1.3-3-1.8-4.6-.3-1-.6-1.9-.9-2.9-.3-1-.5-2-.7-3-.1-.5-.2-1-.3-1.5-.5-3.1-.8-6.4-.8-9.8,0,0,0,0,0,0,0-.6,0-1.1,0-1.7,0-.1,0-.4,0-.8.1-2.6.5-5.1,1-7.5.1-.6.3-1.2.4-1.7.4-1.7,1-3.3,1.6-4.8.2-.5.4-1,.6-1.5,1.6-3.4,3.6-6.4,5.8-8.9.2-.2.4-.5.7-.7h0c-.1.5-.2.9-.3,1.4,0,0,0,0,0,0,0,.4-.1.9-.2,1.3,0,0,0,.1,0,.2,0,.4,0,.8-.1,1.2,0,0,0,.2,0,.3,0,.5,0,1,0,1.4,0,7.1,2.9,13.5,7.5,18.2,1.2,1.2,2.4,2.2,3.8,3.1.7.5,1.4.9,2.1,1.3,1.1.6,2.2,1.1,3.4,1.5.4.1.8.3,1.2.4,2.4.8,5,1.2,7.6,1.2s.7,0,1.1,0c.3,0,.7,0,1,0h0,0c0,0,.2,0,.2,0h0c.3,0,.5,0,.8,0,.6,0,1.3-.2,1.9-.3,0,0,0,0,0,0,.6,0,1.3-.2,1.9-.3,0,0,0,0,0,0,.6-.1,1.2-.3,1.9-.4,0,0,.1,0,.2,0,.6-.1,1.2-.3,1.8-.5,0,0,.2,0,.2,0,.6-.2,1.2-.3,1.8-.5.1,0,.2,0,.3-.1.6-.2,1.1-.4,1.7-.6.2,0,.3-.1.5-.2.5-.2,1.1-.4,1.6-.6.2,0,.4-.2.6-.2.5-.2,1-.4,1.5-.6.2-.1.4-.2.7-.3.5-.2.9-.4,1.4-.7.3-.1.5-.3.7-.4.4-.2.8-.4,1.2-.7.3-.2.6-.3.8-.5.4-.2.7-.4,1.1-.7.3-.2.6-.4.9-.6.3-.2.7-.4,1-.7.3-.2.6-.5.9-.7.3-.2.6-.4.9-.6.3-.3.7-.5,1-.8.3-.2.5-.4.8-.6.4-.3.7-.6,1.1-1,.2-.2.4-.4.6-.5.5-.5,1-1,1.5-1.6,0,0,0,0,0,0h0s0,0,0,0c2.1-2.3,4-4.8,5.7-7.6.3-.6.6-1.1,1-1.7,3.1-5.9,5.1-12.8,5.5-21,0-.2,0-.5,0-1,.6-16.9-5.1-30.9-13.9-41.7-1.1-1.3-2.2-2.5-3.3-3.8-1.5-1.6-3.1-3.1-4.8-4.6-.8-.7-1.6-1.4-2.5-2.1-4.2-3.4-8.7-6.2-13.3-8.6-9.2-4.7-18.7-7.3-27-7.7,0,0-.2,0-.5,0,0,0-.2,0-.3,0-.2,0-.5,0-.7,0-.5,0-1,0-1.4,0-.4,0-.7,0-1.1,0-.3,0-.7,0-1,0-.4,0-.9,0-1.3,0-.3,0-.5,0-.8,0-.5,0-1,0-1.5,0-.2,0-.4,0-.6,0-.5,0-1,0-1.6,0-.2,0-.3,0-.5,0-.6,0-1.1,0-1.7.1-.1,0-.3,0-.4,0-.6,0-1.2.1-1.8.2,0,0-.2,0-.3,0-.6,0-1.2.1-1.8.2,0,0-.1,0-.2,0-.6,0-1.3.2-1.9.3,0,0,0,0-.1,0-.7.1-1.3.2-2,.3,0,0,0,0,0,0-4,.7-7.9,1.6-11.7,2.8l21.4-84.7,117.7-.5,2.3-9.5h0l-123.8.6h-3.7l-.4,1.8-.4,1.8-11.6,45.6h-46.8l-.5,2-.4,1.6-61.9,250.6-1.4,5.9h143.8c11.6-.4,23-2.4,34-5.6h0c.9-.3,1.8-.6,2.8-.9.1,0,.2,0,.3,0,.8-.3,1.7-.6,2.5-.8.2,0,.3-.1.5-.2.8-.3,1.6-.6,2.4-.8.2,0,.4-.2.7-.2.7-.3,1.5-.6,2.2-.8.3-.1.5-.2.8-.3.7-.3,1.4-.6,2.1-.9.3-.1.6-.2.9-.4.7-.3,1.3-.6,2-.9.3-.1.6-.3,1-.4.6-.3,1.3-.6,1.9-.9.3-.2.7-.3,1-.5.6-.3,1.2-.6,1.8-.9.4-.2.7-.4,1.1-.5.6-.3,1.2-.6,1.8-.9.4-.2.8-.4,1.1-.6.6-.3,1.1-.6,1.7-.9.4-.2.8-.4,1.2-.6.5-.3,1.1-.6,1.6-.9.4-.2.8-.5,1.2-.7.5-.3,1.1-.6,1.6-.9.4-.2.8-.5,1.2-.8.5-.3,1-.6,1.5-.9.4-.3.8-.5,1.3-.8.5-.3,1-.6,1.5-.9.4-.3.9-.6,1.3-.9.5-.3.9-.6,1.4-.9.4-.3.9-.6,1.3-.9.4-.3.9-.6,1.3-.9.5-.3.9-.7,1.4-1,.4-.3.8-.6,1.3-.9.5-.3.9-.7,1.4-1.1.4-.3.8-.6,1.2-.9.5-.4,1-.8,1.5-1.2.4-.3.7-.6,1.1-.9.5-.4,1.1-.9,1.6-1.3.3-.2.6-.5.9-.7.8-.7,1.6-1.3,2.4-2,0,0,0,0,.1-.1,1-.9,2-1.8,3-2.7.3-.3.6-.5.8-.8.7-.7,1.5-1.4,2.2-2.1.3-.3.5-.5.8-.8,1.9-1.9,3.8-3.8,5.6-5.8.2-.2.4-.5.7-.7.7-.8,1.5-1.6,2.2-2.4.2-.2.4-.5.6-.7,1.8-2.1,3.6-4.2,5.3-6.4.1-.2.3-.4.4-.5.7-1,1.5-1.9,2.2-2.9.1-.2.2-.3.3-.5,1.7-2.3,3.3-4.6,4.9-7,0,0,.1-.2.2-.3.7-1.1,1.5-2.3,2.2-3.5,0,0,0-.1.1-.2,1.5-2.5,3-5,4.4-7.6,0,0,0,0,0,0,.7-1.3,1.4-2.6,2-3.9,0,0,0,0,0,0,1.3-2.7,2.6-5.4,3.8-8.1h0c.6.7,1.3,1.4,1.9,2.1,0,0,.2.2.3.3.6.7,1.3,1.3,1.9,2,0,0,.1.1.2.2,2.7,2.7,5.5,5.2,8.4,7.6.2.2.4.3.6.5.6.5,1.2.9,1.8,1.4.3.2.6.4.8.6.6.4,1.1.9,1.7,1.3.3.2.7.5,1,.7.5.4,1.1.8,1.6,1.2.4.3.8.5,1.2.8.8.6,1.6,1.1,2.4,1.6.5.4,1.1.7,1.6,1.1.4.3.8.5,1.2.8.5.3,1.1.7,1.6,1,.4.2.8.5,1.2.7.6.3,1.1.7,1.7,1,.4.2.8.4,1.2.7.6.4,1.3.7,1.9,1,.3.2.7.4,1,.5,1,.5,2,1,2.9,1.5,0,0,0,0,0,0,4.3,2.1,8.7,3.9,13.3,5.5,13.6,4.8,28,7.3,42.7,7.3s4.4,0,6.6-.2c2.2-.1,4.4-.3,6.5-.5,5.4-.5,10.7-1.4,15.9-2.6,1-.2,2.1-.5,3.1-.8,5.1-1.3,10.1-2.9,15-4.9,2.9-1.1,5.8-2.4,8.6-3.7,1.9-.9,3.7-1.8,5.5-2.8,10.9-5.9,20.9-13.4,29.6-22.1,8.7-8.7,16.2-18.7,22.1-29.6.5-.9,1-1.8,1.5-2.7,9-17.5,14.1-37.4,14.1-58.4s-5.1-40.9-14.1-58.4h0Z"/>
    <path class="st3" d="M-2922.5,216.5c0,.5-.2,1-.3,1.6-.7,3.1-1.7,5.8-3,8.1-1.7,2.8-3.9,4.7-6.4,5.6-.2,0-.5.2-.7.2-.9.3-1.9.4-3,.4h-8.2l5.9-27.7h8.2c3,0,5.1.7,6.4,1.9.4.4.7.9.9,1.5.8,2,.8,4.8.2,8.4h0ZM-2920.6,198.2c-.2,0-.4-.1-.6-.2-.7-.2-1.4-.3-2.2-.5-1.1-.2-2.2-.2-3.5-.3h-18.3l-9,42.4h18.3c.8,0,1.6,0,2.3-.1,2.3-.2,4.4-.9,6.4-1.9,2.6-1.3,5-3.3,7.1-5.9.4-.5.8-1,1.1-1.5,1.8-2.6,3.2-5.5,4.2-8.7.4-1.3.8-2.7,1.1-4.1.2-1.1.4-2.3.5-3.4.1-1.2.2-2.4.2-3.6,0-2.5-.5-4.7-1.6-6.8-1.3-2.6-3.3-4.4-6.1-5.4h0Z"/>
    <path class="st3" d="M-2955.3,281.2h-8.5c-.8,3.9-.3,7,1.6,9.4.3.3.6.7.9,1,.7.6,1.4,1.2,2.2,1.7,2.5,1.4,5.8,2.1,10,2.1h0c3.4,0,6.4-.5,9-1.5.5-.2,1-.4,1.5-.7,1-.5,1.9-1,2.8-1.7.4-.3.9-.7,1.3-1,2.8-2.4,4.5-5.3,5.2-8.7.8-3.8.2-6.7-2-8.7-1.4-1.3-3.6-2.3-6.6-3.1l-6.9-1.8c-1-.3-1.9-.5-2.6-.7-1-.3-1.7-.6-2.2-.8-.1,0-.2-.1-.3-.2-.2,0-.3-.2-.4-.3-.9-.7-1.2-1.8-.9-3.1.3-1.6,1.3-2.9,2.9-3.9,1.6-.9,3.5-1.4,5.8-1.4s1,0,1.5,0c.5,0,.9.1,1.3.2.8.2,1.5.4,2.2.8,1.8,1.1,2.6,2.9,2.2,5.4h8.5c.8-4.5-.1-7.9-2.8-10.3-.3-.3-.7-.6-1-.8-.4-.3-.7-.5-1.1-.7-.8-.4-1.6-.8-2.5-1.1-1.8-.6-3.8-.9-6-.9s-2.6,0-3.8.2c-1.2.2-2.4.4-3.4.7-.5.2-1.1.3-1.6.5-1.5.6-2.9,1.4-4.1,2.3-3.3,2.5-5.3,5.7-6.2,9.5-.8,3.6-.3,6.4,1.5,8.4.3.3.5.5.8.8.7.6,1.8,1.1,3.2,1.7.7.3,1.5.5,2.4.8.9.3,1.8.5,2.9.8l4.3,1c1.6.4,2.9.8,3.9,1.2.6.3,1.1.5,1.5.8,1.1.8,1.5,1.8,1.2,3.2-.2.9-.5,1.7-1,2.4-.3.5-.7.9-1.2,1.2-.7.5-1.5,1-2.5,1.3-1.4.5-3.1.7-5.2.7s-.9,0-1.3,0c-2.8-.2-4.7-1.1-5.6-2.6-.2-.4-.4-.8-.5-1.3-.2-.8-.2-1.8-.2-3.1h0Z"/>
    <polygon class="st3" points="-2925.9 294.3 -2917.1 294.3 -2908.1 251.9 -2908.1 251.9 -2916.9 251.9 -2925.9 294.3 -2925.9 294.3"/>
    <path class="st3" d="M-2866,259.5c-.6-1.7-1.5-3.2-2.9-4.6-1.3-1.4-3-2.4-5-3.1-.5-.2-1-.3-1.6-.4-1.6-.4-3.5-.6-5.5-.6s-.8,0-1.2,0c-.8,0-1.5,0-2.3.2-.4,0-.7.1-1.1.2-4.4.8-8.3,2.7-11.8,5.8-4.7,4.1-7.7,9.6-9.2,16.5-1.1,5.1-.9,9.4.4,12.8.5,1.2,1,2.2,1.8,3.2.5.7,1.1,1.4,1.7,2,2.7,2.6,6.3,3.9,10.9,3.9h0c3.4,0,6.4-.7,9.1-2.2,1.5-.8,3.4-2.2,5.5-4.3l-.2,5.3h5.9l4.8-22.7h-17.6l-1.5,7.1h9.8c-.3.7-.5,1.4-.9,2-.7,1.3-1.5,2.4-2.5,3.4-.5.5-1,1-1.6,1.4-.6.4-1.2.8-1.8,1.1-1.8,1-3.9,1.4-6.1,1.4s-5.5-1.1-7.4-3.2c-1.9-2.2-2.3-5.9-1.2-11.1.1-.6.3-1.3.5-1.9.7-2.4,1.5-4.5,2.6-6.3.3-.4.5-.9.8-1.3.6-.8,1.2-1.5,1.9-2.2.7-.6,1.4-1.2,2.1-1.7.7-.5,1.5-.9,2.2-1.2.8-.3,1.6-.6,2.4-.7.8-.2,1.6-.2,2.5-.2s.9,0,1.3,0c1.3.1,2.4.4,3.4.9.9.4,1.6,1,2.2,1.7.2.2.4.5.5.7.6,1,.9,2.2.9,3.7h8.7c.1-1.5,0-3-.2-4.3,0-.4-.2-.9-.4-1.3h0Z"/>
    <polygon class="st3" points="-2819.8 251.9 -2819.8 251.9 -2828 251.9 -2828 251.9 -2834.3 281.5 -2844.9 251.9 -2854.2 251.9 -2863.2 294.3 -2863.2 294.3 -2854.9 294.3 -2848.5 264.2 -2837.6 294.3 -2837.6 294.3 -2828.8 294.3 -2819.8 251.9 -2819.8 251.9"/>
  </g>
  <g>
    <path class="st4" d="M-2251.5,388.1v-57.5h17.5c10.2,0,18.2,3.3,18.2,14.9s-1.8,9.6-6.5,12.1v.2c6.1,3.5,7.4,6.6,7.4,13.7,0,11.7-6.6,16.6-17.6,16.6h-19ZM-2238,353.2c5.9-.4,8.7,0,8.7-6.8s-3.9-5.4-8.7-5.4v12.3h0ZM-2238,377.8c6.7-.2,9.6.3,9.6-7.4s-3.8-6.5-9.6-6.8v14.2h0Z"/>
    <polygon class="st4" points="-2210.2 388.1 -2210.2 330.6 -2179.3 330.6 -2179.3 342.1 -2196.7 342.1 -2196.7 352.7 -2179.9 352.7 -2179.9 364.2 -2196.7 364.2 -2196.7 376.6 -2178.4 376.6 -2178.4 388.1 -2210.2 388.1 -2210.2 388.1"/>
    <polygon class="st4" points="-2174.1 388.1 -2174.1 330.6 -2160.6 330.6 -2160.6 376.6 -2144.1 376.6 -2144.1 388.1 -2174.1 388.1 -2174.1 388.1"/>
    <path class="st4" d="M-2143.8,388.1l12.6-57.5h16.3l12.5,57.5h-13.6l-1.9-11.2h-10.6l-1.6,11.2h-13.6ZM-2123.1,341h-.2l-3.9,25.8h7.8l-3.8-25.8h0Z"/>
    <path class="st4" d="M-2089.6,368.9v4.1c0,3.3,1.1,6.2,5.4,6.2s4.5-2.8,4.5-5.8c0-4.8-4-6.7-7.5-8.8-4.1-2.4-7.7-4.6-10.2-7.5-2.5-2.9-3.9-6.4-3.9-11.5,0-10.8,6.5-16.3,17-16.3s17.7,7.8,17.1,18.6h-12.4c-.2-3.4,0-8-4.4-8.3-2.8-.2-4.4,1.3-4.7,3.8-.4,3.5,1.4,5.2,4.1,7.1,5.1,3.2,9.4,5.2,12.6,8.1,3.1,2.9,5,6.7,5,13.7,0,11-6.1,17.2-17.3,17.2s-17.6-6.9-17.6-14.5v-6.1h12.5Z"/>
    <path class="st4" d="M-2054.6,389.5l12.6-57.5h16.3l12.5,57.5h-13.7l-1.9-11.2h-10.6l-1.6,11.2h-13.6ZM-2033.9,342.4h-.2l-3.9,25.8h7.8l-3.8-25.8h0Z"/>
    <path class="st4" d="M-1997.5,389.5h-13.5v-57.5h19.7c11,0,16.6,4.4,16.6,15.9s-1.5,10.5-7.1,13.1v.2c3.8.8,6.4,3.5,6.7,7.4.4,4.6.5,14.5,1.2,18.2.3.8.7,1.5,1.3,2v.8h-14.7c-.4-1.1-.7-2.1-.8-3.3-.2-5.1,0-9.8-.3-13.3-.4-3.5-1.5-5.8-4.6-6.1h-4.4v22.7h0ZM-1997.5,356.4h4.6c3.9,0,4.8-3.6,4.8-7.1,0-6.8-2.8-7.1-9.4-7v14.1h0Z"/>
    <polygon class="st4" points="-1972.8 332 -1937.8 332 -1937.8 343.5 -1948.7 343.5 -1948.7 389.5 -1962.2 389.5 -1962.2 343.5 -1972.8 343.5 -1972.8 332 -1972.8 332"/>
    <polygon class="st4" points="-1934.1 389.5 -1934.1 332 -1903.2 332 -1903.2 343.5 -1920.6 343.5 -1920.6 354.1 -1903.8 354.1 -1903.8 365.6 -1920.6 365.6 -1920.6 378 -1902.3 378 -1902.3 389.5 -1934.1 389.5 -1934.1 389.5"/>
    <path class="st4" d="M-1887.1,370.2v4.1c0,3.3,1.1,6.2,5.4,6.2s4.5-2.8,4.5-5.8c0-4.8-4-6.7-7.5-8.8-4.1-2.4-7.7-4.6-10.2-7.5-2.5-2.9-3.9-6.4-3.9-11.5,0-10.8,6.5-16.3,17-16.3s17.7,7.8,17.1,18.6h-12.4c-.2-3.4,0-8-4.4-8.3-2.8-.2-4.4,1.3-4.7,3.8-.4,3.5,1.4,5.2,4.1,7.1,5.1,3.2,9.4,5.2,12.6,8.1,3.1,2.9,5,6.7,5,13.7,0,11-6.1,17.2-17.3,17.2s-17.6-6.9-17.6-14.5v-6.1h12.5Z"/>
    <path class="st4" d="M-1999.9,304.9v-43.2h25.6v5.1h-20.9v13.3h19.6v5.1h-19.6v14.7h21.7v5.1h-26.4ZM-2031.1,299.8h7.5c3,0,5.3-.5,6.9-1.5,1.6-1,2.8-2.6,3.6-4.8,1.1-2.9,1.7-6.5,1.7-10.5s-.6-7.9-1.8-10.4c-1.2-2.5-2.7-4.2-4.6-5-1.2-.6-3.2-.9-6-.9h-7.4v33.1h0ZM-2035.8,304.9v-43.2h12.2c3,0,5.3.3,6.9.8,2.1.7,3.8,2,5.4,3.8,1.5,1.8,2.7,4.1,3.5,6.9.8,2.8,1.3,6.1,1.3,9.9s-.7,9-2.2,12.5c-1.4,3.4-3.3,5.8-5.5,7.3-2.2,1.4-5.2,2.1-8.8,2.1h-12.8ZM-2073.6,287.2h12.1l-3.7-12c-1.1-3.7-2-6.7-2.5-9-.5,2.8-1.1,5.5-1.9,8.3l-4,12.7h0ZM-2083.7,304.9l13.7-43.2h5l14.5,43.2h-5.4l-4.1-13.1h-14.9l-3.8,13.1h-4.9ZM-2107.6,304.9v-43.2h4.7v38.2h17.5v5.1h-22.2ZM-2142.4,283.9c0,5.3,1.2,9.5,3.5,12.4,2.3,2.9,5.2,4.4,8.6,4.4s6.3-1.5,8.7-4.4c2.3-3,3.5-7.3,3.5-13.1s-.6-7-1.8-10c-.9-2.2-2.3-4-4.2-5.4-1.9-1.3-3.9-2-6.1-2-3.5,0-6.5,1.5-8.8,4.4-2.3,2.9-3.4,7.5-3.4,13.7h0ZM-2147.2,283.9c0-7.4,1.6-13,4.9-17,3.2-4,7.3-5.9,12.1-5.9s6,.9,8.6,2.6c2.6,1.8,4.6,4.3,6.1,7.7,1.5,3.4,2.3,7.4,2.3,12s-1.5,11.6-4.4,15.6c-3.2,4.4-7.4,6.7-12.6,6.7s-9.4-2.3-12.6-6.8c-2.9-4.1-4.3-9.1-4.3-14.9h0ZM-2156.5,289.8l4.7,1.4c-1,4.9-2.9,8.5-5.5,10.8-2.6,2.4-5.8,3.6-9.5,3.6s-6.1-.8-8.4-2.4c-2.3-1.6-4.2-4.2-5.7-7.7-1.5-3.5-2.2-7.7-2.2-12.5s.7-8.8,2.2-12.1c1.5-3.3,3.5-5.8,6-7.5,2.5-1.7,5.4-2.5,8.5-2.5s6.4,1.1,8.8,3.2c2.5,2.1,4.2,5.3,5.2,9.4l-4.6,1.3c-1.6-6-4.7-9-9.5-9s-4.4.6-6.1,1.8c-1.7,1.2-3.1,3.1-4.1,5.6-1,2.6-1.5,5.8-1.5,9.7,0,5.9,1,10.3,3.1,13.3,2.1,3,4.9,4.4,8.3,4.4s4.8-.9,6.6-2.7c1.9-1.8,3.1-4.6,3.7-8.3h0ZM-2216.2,291l4.5-.4c.2,2.4.8,4.2,1.6,5.6.8,1.3,2,2.4,3.6,3.2,1.5.8,3.3,1.2,5.2,1.2,2.8,0,5-.7,6.5-2,1.5-1.4,2.3-3.1,2.3-5.3s-.3-2.4-.8-3.3c-.6-.9-1.4-1.7-2.5-2.3-1.1-.6-3.6-1.5-7.3-2.6-3.3-1-5.7-2-7.1-3-1.4-1-2.5-2.3-3.3-3.8-.8-1.5-1.2-3.3-1.2-5.2,0-3.5,1.1-6.4,3.4-8.6,2.3-2.2,5.3-3.3,9.1-3.3s4.9.5,6.9,1.6c2,1,3.5,2.5,4.6,4.5,1.1,1.9,1.7,4.2,1.8,6.9l-4.5.4c-.2-2.8-1.1-4.9-2.5-6.2-1.4-1.4-3.5-2-6.1-2s-4.7.6-6.1,1.8c-1.4,1.2-2.1,2.7-2.1,4.6s.5,3.1,1.5,4.1c1,1,3.3,1.9,6.9,2.9,3.5.9,6,1.8,7.4,2.5,2.2,1.1,3.8,2.5,4.9,4.3,1.1,1.8,1.6,3.9,1.6,6.4s-.6,4.7-1.7,6.8c-1.2,2-2.7,3.6-4.7,4.6-2,1.1-4.4,1.6-7.2,1.6-4.4,0-7.9-1.3-10.5-4-2.6-2.6-4-6.2-4.1-10.7h0ZM-2247.6,304.9v-43.2h25.6v5.1h-20.9v13.3h19.6v5.1h-19.6v14.7h21.7v5.1h-26.4Z"/>
    <path class="st4" d="M-2439,272.7c0-5.5,0-7.2-2.8-10.2-7.2-7.6-19,.2-17.6,8.2.4,2.1,1.3,3.5,1.7,5.2-9.1,2.1-10.5,18.4,2.4,19.9,1.5.2,3.7-.2,4.9-.8,1.6-.7,2.6-1.9,3.8-2.3.7,3,4.3,5,8,5.1,12.2.5,15.6-17.1,2.4-20.2,1.1-1.6,8.6-5.7,10.8-7.2,0,15.1-.3,22.3,6.3,31.4,12.5,17.3,37.9,16.9,50.4,0,2.8-3.8,4.7-7.8,5.6-13.5.6-3.9.8-9.3.7-13.4,0-1.9-.4-2.4-.4-4.7,1.2.3,10.3,6,11.1,7.2-3.6.8-6.2,2.6-7.5,5.7-2.3,5.1-.3,10.6,4.3,13.3,2.7,1.6,8,1.7,10.7-.5,1.1-.9,2.6-2.4,3.3-3.5,2.2,1.5,4.6,3.6,8.4,3.1,10.6-1.4,11.5-12.8,6.2-17.7-.7-.7-2.9-2-3.9-2.2.6-2.4,3.1-5.3.7-10.1-5.3-10.6-17.1-5.9-19.1.3-.5,1.4-.3,4.5-.3,6.5-1.6-.4-5.5-3.1-7-4.1-2.4-1.6-4.7-3-7-4.5v-19.7h-20.8c.6-.8,3.5-2.5,4.9-3.4,1.7-1.2,3.3-2.1,5.1-3.2,1.9-1.1,3.3-2.1,5.1-3.2,1.7-1.1,3.7-2,4.7-3.5-1.1-2.2-1.8-2.3-2.2-3.6-1.6,0-3.8,1.8-6.5,3.2,0-7,4.7-7.1,7-5.9,2,1.1,12.1,16.8,14.6,20.3,1,1.5,2,2.6,2.9,4.3,2.5-1.3,5.2-3.4,7.5-5,1.8-1.3,6-4.6,7.9-5-1-4.1-12.3-16.5-12.6-19.7,2-1,3.6-2,5.4-3.2-.3-1.3-1.8-3-2.5-4.3-2.4.6-4.1,3-6.5,3.6-.3-1.2-3.1-5.3-7-4.1-1.6.5-11.8,7.7-13.9,9.1-3.1,2.2-3.9,2.2-5.7,5.7h-37c-1.8-3.4-2.1-3.3-5.7-5.7-2.4-1.6-4.5-3.2-7-4.9-3.9-2.6-7.8-6.4-11.6-3.3-1.3,1-1.6,2.2-3,3.1-1.4-1-4.2-3.4-6.1-3.6-.5,1.7-1.7,2.3-2.2,4.3,1,.7,4.3,2.9,5.4,3.2-.7,2.9-11.8,16.6-12.6,19.7,1.3.3,2.8,1.5,3.9,2.2,2,1.4,9.6,7,11.2,7.5,1.5-1,12.5-17.6,14.4-20.4,2.1-3.2,4.8-6.3,8.5-3.2,1.6,1.4,1.9,2.4,1.9,5.3l-6.5-3.6c-.3,1.5-1.4,2.6-2.2,3.9,1.1,1.7,7.5,5.3,9.8,6.8,3,1.9,7.4,4.3,10,6.5h-21.2v20.1l-10,6.2c-1,.7-2.5,1.8-3.7,2.1h0ZM-2355.3,225.3c1.3-.9,1-1.4,2.9-1.8.6.9,1.7,2.6,2.5,3.2,1.9-.4,4-3.1,5,1.4-1.1.7-1.8,1.1-2.5,2.2.4,1.5,2,3,3.2,5.4-.8.6-1.4,1.1-2.5,1.4-1.1-.7-3.2-3.8-3.9-5-1.1.7-2,1.7-3.6,1.8-.3-1.1-.9-1.7-1.4-2.5.8-.6,1.9-1.5,2.9-1.8-.5-2-1.6-2.9-2.5-4.3h0ZM-2435,229.6c1,.5,1.9.9,2.5,1.8-.3,1.5-.7,1.8-1.8,2.5-1-.5-1.6-1.1-2.9-1.4l-4,5c-.8-.6-1.6-1.2-2.5-1.8,1.3-2.4,2.9-4.3,3.2-5.4-.7-1.1-1.4-1.4-2.5-2.2.3-1.3.8-2,1.4-2.9,1.5.4,2.1,1.4,3.6,1.8.8-1.2,1.7-2.3,2.5-3.6.9.2,2,1.1,2.5,1.8-.5,1.7-1.7,2.3-2.2,4.3h0ZM-2407.7,235.3c3.3,0,5.2,1.2,9.8-.7,5.8-2.4,3.3-1.6,7.8,0,5.2,1.9,6.7.7,10.5.7l-1.7,1.2c-4.1,2.6-8.4,5.6-12.6,7.8-1.6-1.1-12.8-7.7-13.6-9h0ZM-2454.8,270.9c0,6.3,11.8,6.9,11.8-1.1s-11.8-7.3-11.8-1.1v2.2h0ZM-2333,269.5c0,2,0,3.4-1.9,4.9-5.8,4.8-13.2-3.3-8.3-8.6,3.3-3.6,10.2-1.7,10.2,3.7h0ZM-2392.3,310.8c-9.1,0-15.6-2-21.8-8.7-4.8-5.2-7.3-12.8-7.3-20.4v-33.4h53.9c.8,0,1.1.3,1.1,1.1v31.6c0,4.1-.6,8.9-1.8,11.9-3.8,9.6-12,17.9-24.1,17.9h0ZM-2339.2,286.7c0-4.5.9-6.8,6.8-6.8s2.1.6,2.8,1.2c2.9,2.4,2.6,6.6.4,8.8-3.9,3.9-10,.4-10-3.2h0ZM-2460.5,285.6c0-7,11.9-9.4,11.9,1.1s-11.9,6.8-11.9-1.1h0ZM-2444,287.8c0-2.6,2.4-5.7,5-5.7,5.3,0,6.8,1.5,6.8,6.8s-11.8,6.2-11.8-1.1h0ZM-2356,287.8c0-7.3,11.8-8.2,11.8-.4s-2.7,6.1-6.8,6.1-5-3-5-5.7h0Z"/>
    <path class="st4" d="M-2347,375h7.9v-9.7c2.7,0,1.8.6,3.8,4.8,2.7,5.6,1.1,5.3,6.6,5.3s2.1-.4,3.9-.4l-5-11.1c.7-1,.8-.8,1.7-1.5,6.7-5.6,2.2-16.8-7.1-16.8h-11.8v29.4h0ZM-2337,358.9h-2.2v-6.5c2,0,6.5-.4,6.5,3.2s-2,3.2-4.3,3.2h0Z"/>
    <path class="st4" d="M-2406.3,360.3c0,16.8,24.4,21.2,29.6,5.9.4-1.1.5-2.2.9-3h-8.3c-.1,1.4-1,2.7-1.9,3.5-4.3,3.4-12.1,1.1-12.1-6.3s6.8-9.8,11.7-6.6c1.1.7,2.2,2.2,2.3,3.8h7.9c0-7-7.4-13.2-16.2-12.2-8.3.9-14,7.2-14,15.1h0Z"/>
    <path class="st4" d="M-2437.2,360c0,4.9.9,7.6,3.1,10.6,6.2,8.2,24.9,7,24.9-9.5v-15.4h-7.9v17.2c0,6.6-12.2,7.8-12.2-1.1v-16.2h-7.9v14.4h0Z"/>
    <path class="st4" d="M-2393,277v23c2-.5,20.5-10.7,20.5-12.6v-21.5c-3.1,0-17.4,9.5-20.5,11.1h0Z"/>
    <path class="st4" d="M-2395.2,299.6v-23c-1.8-.5-16.9-10.5-20.1-10.8v20.1c0,2.9.7,3.1,2.6,4.2,3.7,2,14.8,9.2,17.5,9.5h0Z"/>
    <path class="st4" d="M-2462,345.6v29.4h8.3c0-8.8-1.9-9.4,2.1-9.4,1.5,0,2.8.2,4.1-.2,3.6-.9,7.8-4.5,7.8-8.8,0-10.3-7.1-11.5-16.2-11.5l-6.1.4h0ZM-2454.1,352.8c2.9,0,6.5-.5,6.5,2.9s-3.7,2.9-6.1,2.9l-.4-5.7h0Z"/>
    <path class="st4" d="M-2372.5,345.6v29.4h7.9c0-12-.9-8.9,5-9.3,5-.4,9.3-4.8,9.3-9,0-11.9-9.5-11.5-19-11.5s-1.6.3-3.2.4h0ZM-2361.1,358.5h-3.6v-5.7h2.9c2.1,0,3.6.7,3.6,2.9s-1.1,2.9-2.9,2.9h0Z"/>
    <path class="st4" d="M-2410.6,220.3c1.8,1.2,2.9,2.9,7.2,2.9s8.6-2.2,9.7-2.2,6.5,3.7,12.9,1.4c1.7-.6,2.3-1.3,3.6-2.1-4.3-8.2-1.7-5-8.9-5.8-6.4-.7-10.9,0-17.3,0-5.4,0-3.9-.5-7.2,5.7h0Z"/>
    <path class="st4" d="M-2396.6,188.7v4c-5.2,0-4.3-.9-4.3,5h4.3v5.7c-1.8.5-6,4.1-7.2,5.4,1.8,2.7,4.2,2.8,7.2,1.8.9-.3,1.7-.9,2.5-.9,3.4-.2,3.3,3.9,10-.6-.8-1.3-2.1-2.5-3.4-3.4-1.5-1-2.6-1.9-4.1-2.7v-5c1.7-.4,2.2-.4,4.3-.4,1.4-6-.7-5-4.3-5,0-6.1.6-5.4-2.9-5.4s-2.2.3-2.2,1.4h0Z"/>
    <path class="st4" d="M-2461.6,386.2h129.3c1.4,0,2.9,0,4.3,0,1.9,0,2.8.4,3.6-.7-1.5,0-1.7-.3-3.6-.4-20.9-.3-43.6,0-64.6,0h-68.9v1.1h0Z"/>
    <path class="st4" d="M-2393,261.9v12.6c2.7-.6,6.9-3.8,9.6-5.1,1.3-.6,2.3-.9,2.3-2.8v-10.8c-1.6,0-1.1,0-3.1,1.2-2,1.1-7.6,4.6-8.7,4.9h0Z"/>
    <path class="st4" d="M-2406.7,268c2.3,1.2,9.2,5.9,11.5,6.1,0-2.4,0-4.8,0-7.2,0-4.7,1.4-4.6-6.3-8.7-1.5-.8-3.2-2.2-5.1-2.4v12.2h0Z"/>
    <path class="st4" d="M-2373.3,407.4c-1.6-2.1-.5,1.8-3.2-5.1-.6-1.6-1.6-4.8-2.9-5.7-1.3.9-1.7,3.1-2.4,4.8-.7,1.9-1.1,3.6-1.9,5.2h-2.9c0-1.8-.7-6.8-.3-8.2.5-1.5.3-.1,1.3-1.5-5.2-.4-3.3-.6-6.8,6.8-1.5-1.1-1.7-4.1-3.6-6.8h-4c.6.9.2.7,1.4,1.1,0,13.2-.5,6.2-1.4,9.7h4c-.9-3.5-1.4,3.2-1.4-7.5.9.7,3.4,6.8,3.6,7.5h1.1c.1-1.4,1.5-4.3,2.2-6.1.2-.4.1-.5.4-1,.4-.7.3-.4.6-.8,0,2.8.4,4.4.4,6.8-1.4.1-1.1-.2-1.4,1.1,2.6,0,7.8.5,9.7-.4-.8-1.1.2-.6-1.4-.7.3-3.9,4.3-3.9,4.7,0-1.1.3-.8,0-1.1,1.1,1.8,0,4.2.2,5.4-.4h0ZM-2380,400.2l1,2.5h-1.8l.8-2.5h0Z"/>
    <path class="st4" d="M-2373.3,407.4c0,0,.2,0,.3.1,0,.1.2,0,.3.1h.6c.4.2,1.4.2,1.8.2,1.5,0,1.8.1,2.9-.4-.9-1.2-.4-.4-1.8-1.1v-3.6c2.3,0,1.8,1,3.9,5h3.6c-.3-1.2-2.8-2.5-3.6-5.7,1.9-.5,1.8-1.3,1.8-3.6-4-2.7-5.1-1.5-9.3-1.4.3.8.6.4,1,1.5v8.2c-1,.3-.5.1-1.3.7h0ZM-2367.9,401.6h-1.4c0-2.8-.4-3.9,1.1-3.9s1.7,1.3,2.2,2.2c-.4.8-.6,1.8-1.8,1.8h0Z"/>
    <path class="st4" d="M-2336.3,407.7h4c-.6-2.4-1.7.4-.7-3.6h3.2c.4.9.6,1.6,1.1,2.5-1.4.1-1.1-.2-1.4,1.1,8.4,0,4.7.4,3-3.7l-2.4-6.2c-.5-1.1-.3-1.1-1.7-1.2l-3.2,8.6c-1,2.1-1.3.8-1.8,2.5h0ZM-2330.5,402.7h-1.8c.3-.7.5-1.3.7-2.2h.7l.4,2.2h0Z"/>
    <path class="st4" d="M-2346.7,399.5c.6-.1,4.7-3.1,4.7-.4,0,13.3-.7,4.5-1.8,8.6h6.1c-.3-1.3,0-1-1.4-1.1l-.4-8.6c4.4,0,1.4,1.1,3.9,1.8.1-1.4.4-.9.4-1.8s-.2-.4-.4-1.8c-1.9,1.3-4.2.7-8.6.7s-1.3-2.8-2.5,2.5h0Z"/>
    <path class="st4" d="M-2447.6,407c-1,.2-.8.2-1.4.7h4.3c-1.3-1.7-.8.3-1.1-1.8,0-.7,0-2.5,0-3.2h1.4l2.5,5h2.9c-.5-.7-3.1-2.2-4-5.7,2-.5,1.8-1.4,1.8-2.9,0-2.7-5-2.2-7.9-2.2.7,1.7-.2-.2.7.7,1,1,.8,1.1.7,3.6,0,1.9,0,3.8,0,5.8h0ZM-2445.8,402v-4.3c1.4,0,2.9.4,2.9,1.8v.7c0,1.4-1.6,1.7-2.9,1.8h0Z"/>
    <path class="st4" d="M-2354.6,399.8c0,3.9,5.7,2.6,5.7,5.7s-2,1.5-2.9,1.1c-2.2-1-.4-1.7-2.5-2.2v2.9c2,.2,7.2,1.8,7.2-3.6s-.5-1.3-.9-1.7c-1.6-1.8-4.7-.9-4.9-3.7,2.6-1.8,3-.2,3.4.2,1,1.2-.5.2,1.3,1.2,2.3-4.1-6.5-4.7-6.5,0h0Z"/>
    <path class="st4" d="M-2462,402.3c0,7.4,10.8,6.5,10.8,3.6v-2.5c2.4,0,1.7-.5,0-.7-.9-.1-2.6,0-3.7,0,.8,1.9,1.8-.6,1.8,2.5s-.2,1-.4,1.8c-8.4,2-8.9-9.7-1.8-9.7s2.1.9,3,1.8c.9.9.7,2.4.6-1.8-3-.3-3.8-1.3-6.8,0-1.7.7-3.6,2.7-3.6,5h0Z"/>
    <path class="st4" d="M-2411.3,408.1c1.4,0,3.2-.6,4.1-1.3,3.6-3,2.9-9.8-4.1-9.8s-6.9,11.1,0,11.1h0ZM-2410.6,407.4c-1.6,0-2.6-.3-3.6-1.8-4.6-7.3,6.9-12.3,7.4-3.5.1,2.5-1.1,5.3-3.8,5.3h0Z"/>
    <path class="st4" d="M-2361.4,396.9c1.4,2,1.5-.3,1.4,3.9,0,1.9,0,3.8,0,5.8-1.7.1-.6-.4-1.4.7,1.2.6,3.6.4,5.4.4-.3-1.3,0-1-1.4-1.1v-8.6c1.5-.3,1.1,0,1.4-1.1-3-.7-2.6-.3-5.4,0h0Z"/>
    <path class="st4" d="M-2425,399.1v7.2c0,1.4.3,0-.7,1.1l3.6.3c-2.2-1.9-1.4-.7-1.4-10.1,5.1,0,4.6,3.6,2.7,4.5-.8.4-1.1.1-2,.9,5,1.2,5.4-3.2,4.4-4.7-1.3-2-5.1-1.4-8.3-1.4.8,1,1.8.9,1.8,2.2h0Z"/>
    <path class="st4" d="M-2437.2,397.7c0,7.3-1.1,10.4,4.7,10.4s3.6-5.8,3.6-10.4c1.9-.2.6.3,1.1-.7h-3.2c2,1.7,1.4.3,1.4,7.9s-6.1,4.2-6.1-1.1c0-8.3-.1-4.7,1.4-6.8h-4.3c.4.9-.7.7,1.4.7h0Z"/>
    <path class="st4" d="M-2421,319.7c0,1.6-.6,2.6-.4,4,.6,3.3,4.9-4.4,5-5.8-2.1.2-1.4,1.6-3.2,2.9,0-2.1.4-3,.4-5.4-1.2.8-2,2-2.9,3.2-.4.6-.7,1-1.2,1.7-.7.9-.8.9-1,2.3,2.3-.2,1.6-1.7,3.2-2.9h0Z"/>
    <path class="st4" d="M-2365,313.6c.8,1.2,4.4,4.1,5.7,5,2.8-1.9,2.8-3.5.3-5.6-2.6-2.2-3.6-3-6,.6h0ZM-2363.2,313.6c.7-1,1.3-1.3,2.6-.4,2.9,1.9,2.8,5.1,0,2.7-.9-.7-1.9-1.4-2.5-2.2h0Z"/>
    <path class="st4" d="M-2408.8,328.4c2.3,0-.3,1.5,2.2,2.2.1-1.5.4-2,.4-3.9,0-1.4,0-2.9,0-4.3-2.8.2-5,6.3-4.8,6.7.8,1.8,1-.6,2.3-.6h0ZM-2407.7,325.1v2.2c-1.4-.8-1.2-.7,0-2.2h0Z"/>
    <path class="st4" d="M-2435.4,307.2c0-1.5.6-1.7,0-2.9-2.6.7-1.5,4.3.7,4.3s2.3-2.3,2.9-4.7h1.4c0,1.6-.5,1.4,0,2.5,3.6-2.4-.5-5.3-2.2-3.7-2.1,1.9.7,4.3-2.8,4.4h0Z"/>
    <path class="st4" d="M-2387.6,331.6c1.3-.1,1.3-.1,1.4-1.4,1.4,0,.8,0,1.8-.4l.4,1.4h1c0-2-.6-3-1.2-4.6-.7-1.9-.5-2.9-2.8-3,0,2.6-.7,4.8-.7,7.9h0ZM-2385.5,326.6c.2.9.4,1.4.7,2.2h-1.4l.7-2.2h0Z"/>
    <path class="st4" d="M-2358.9,304.3l.4,2.2c4,1,3.3-1.1,5-1.1s.1-.1,1.1.4c-.3,3.1-1.1,0-1.8,2.5,1.1.9,3.2,0,3.2-1.8,0-4.9-4.9-1.1-6.5-1.1,0-3.1,1.1-.3,1.8-2.9h-2.2c-.5.7-1.1.9-1.1,1.8h0Z"/>
    <path class="st4" d="M-2361.8,309.7c1.5,1,5,3.5,6.8,4,1.1-2.1,1.6-1.6,1.8-3.6-2.2.2-1.1.8-2.5,1.8l-1.4-.7c.3-1.4.9-1.7.3-2.9-1.3.9-.7,1-1.8,1.8l-1.4-.7c.4-1.5.9-.9,1.1-2.9-1.4.1-1.2.2-1.8,1-.5.6-.8,1.2-1,2.2h0Z"/>
    <path class="st4" d="M-2376.9,321.9c-1.4-.7-2.2.3-4,.7.6,2.6,1.6,5,2.2,7.5.7,0,1.7-.3,2.4-.5,1.3-.4,1.2,0,1.5-1.3-1.1-.5-1.8-.1-2.9.4-.2-.9-.4-1.4-.7-2.2,2-.2,2.1,0,2.2-1.8-.9.2-1.8.4-2.5.7-.2-.9-.4-1.4-.7-2.2,1.7,0,2.2-.1,2.5-1.4h0Z"/>
    <path class="st4" d="M-2433.9,311.1c0,1.7,1.1,2.5,2.9,2.5s.1.1,1.1-.4c-.2-.5.6-1.1-2.5-1.1.1-1.6.7-2.2,1.8-2.9,1.3-.8,1.9-1,3.2-.7-.1,1.4-.3.9-.4,2.5,3.2-.9,1.3-4.3-.4-4.3s-5.7,2.6-5.7,4.3h0Z"/>
    <path class="st4" d="M-2428.6,318.3c.4.6,1.7,2.3,2.6,2.3,2.1,0-.6-.8-.8-3,2.3-1.9,2.1,1.2,3.3,0,.7-.7-.5-1.3-1.1-2.2l1.4-1.1c.8.5,2.3,2.6,2.4.8,0-.9-1.6-2.1-2.3-2.6-2,1.3-4,3.7-5.4,5.7h0Z"/>
    <path class="st4" d="M-2399.1,331.6h1.4c.6-2.4,1.9-5,2.2-7.5-1.7.1-1.3.3-1.8,1.8-.4,1.5-.3,1.9-1.1,2.9-.3-1.3-.2-2.3-.4-3.5,0-.5-.2-1.1-.8-1.3-1.2-.5-.6.4-.7.7-.2,2.1.8,5.4,1.2,7.1h0Z"/>
    <path class="st4" d="M-2370.4,317.9c.8,1.4,1.3,2.1,2.3,3.4,1.4,1.9,1.4,2.7,2.7,3,.7-1.5-.4-2.2-1.1-3.2,1.1-1.5,1.3,0,1.4-2.2-2.3,0-.7.2-2.5.7l-1-1.2c.7-1.1,1.3-1,1.7-2.4-1.9,0-.8-.1-1.9.6-.6.4-1.1.8-1.7,1.2h0Z"/>
    <path class="st4" d="M-2414.9,320.8c-.4.7-2.5,4.6-2.5,5,0,1.4-.1.1.4,1.1,1.4-.4.8-.2,1.5-1.4,3.7-7.4.5-2.7,3.9-4.3-1.5-2.2-4.1-3.1-4.2-1.8,0,.6.5.8.9,1.5h0Z"/>
    <path class="st4" d="M-2392.7,324v1.1h1.4c0,3.5-.6,6.3,1.4,6.8.8-.9,0-4.4,0-6.8h1.4v-1.1c-.9,0-1.5,0-2.4-.1-1.3-.1-.5,0-2,.1h0Z"/>
    <path class="st4" d="M-2376.9,321.9c1.1.5,1,.5,2.2,0,.2.9.8,2.2,1.2,3.1.3.6.4.9.7,1.5.8,1.7-.5.9,1.4,1.2.5-1.1-.2-2.1-.7-3.2-.5-1.2-.9-2.1-1.4-3.2,1,0,1.3.3,1.3-.7,0-.9-.7-.7-1.3-.6-1.2.3-2.5,1-3.2,1.9h0Z"/>
    <path class="st4" d="M-2413.5,328.4h1.1c.8-3.4,2.9-6,2.2-7.5-1.3.3-1.2.7-2.2,3.2-.6,1.5-1,2.1-1,4.4h0Z"/>
    <path class="st4" d="M-2366.8,315.1c.3,1,4.5,5.7,5,5.7,2.6,0-1.2-3-2-4.1-.9-1.1-1.2-2.3-3-1.7h0Z"/>
    <path class="st4" d="M-2430.7,316.1c2.3,0,2.6-1.4,5.2-3.4.9-.7.9-.5,1.2-1.7-1.2-1-1.9.3-2.3.6-1.3,1.2-3.7,2.6-4.2,4.4h0Z"/>
    <path class="st4" d="M-2394.8,330.1c0,1.7.5,1.6,1.1,1.8,1-1.7.2-5.9,0-7.9h-1.1v6.1h0Z"/>
    <path class="st4" d="M-2405.9,331.9c1.3-.4,1.4-.8,1.4-2.5-1.3.4-1.4.8-1.4,2.5h0Z"/>
  </g>
  <g>
    <path class="st4" d="M-1060.9,298.5c16.5,0,14.7,1.4,14.5-7.7v-33.3s7.9,10,7.9,10c3.5,4.2,22,30.9,25.4,30.9h10.2v-66.6c-18,0-14.5-3.4-14.5,17.9v21.3c-5.7-3.8-27.9-39.3-32.4-39.3h-11.1v66.6h0Z"/>
    <path class="st4" d="M-1361.4,234.5v61.5c0,4.5,9.7,2.6,22.2,2.6s18.7-2.3,26-7.3c17-11.8,16.9-40.5-.5-52.3-12.8-8.7-27.7-7-45.1-7s-2.6.6-2.6,2.6h0ZM-1335.8,284.8h-10.2v-39.3c18,0,29.9.5,29.9,22.2s-9.3,17.1-19.6,17.1h0Z"/>
    <path class="st4" d="M-1136.9,260.9c0,13.5,0,19.3,10.4,29.7,10.2,10.1,27,10.8,40.7,5.2,14.8-6,11.2-7.7,11.2-35.8h-29v12.8h14.5c0,6.7,2.4,12.8-12.8,12.8-31.5,0-22.7-52.3,8.8-38.7,3.4,1.5,4.2,2.9,7.4,4.6,2.6-3.9,6-7.2,8.5-11.1-2-2.7-7-5.4-10.3-6.7-13.8-5.3-27.4-2.8-38.3,5.8-4.3,3.4-11.1,13.9-11.1,21.4h0Z"/>
    <path class="st4" d="M-1288,298.5h47.8c3.9,0,2.6-4.4,2.6-13.7h-35.9v-12.8h30.7v-13.7h-30.7v-12.8h35v-13.7h-49.5v66.6h0Z"/>
    <path class="st4" d="M-1227.3,249.8c0,17.1,9.7,18.7,26.3,23.2,13,3.5,9.7,12.6.2,12.6-15,0-15.2-6.1-21.3-7.7-.8,3-1.6,2.7-3.5,5-1.3,1.6-3.2,3.8-4.2,5.2,4.9,7.3,30.1,16.8,44.5,6.1,4.3-3.2,7.5-8.7,7.5-15.5,0-25-35-16.8-35-29s11.6-5.9,17.7-3.2c2.8,1.3,5.4,3.3,7.9,4,3.4-5.2,6.5-8,6.8-12-5.3-1.4-13.4-9.6-28.3-7-9.4,1.6-18.6,7.6-18.6,18.1h0Z"/>
    <polygon class="st4" points="-1165 298.5 -1150.5 298.5 -1150.5 231.9 -1165 231.9 -1165 298.5 -1165 298.5"/>
    <path class="st4" d="M-1355.2,328.8c.3,0,.8,0,1.3-.2.6,0,1.2-.1,1.8-.2.6,0,1.3,0,1.9-.1.6,0,1.2,0,1.7,0,1.6,0,3.1.2,4.4.5,1.4.3,2.5.8,3.5,1.5,1,.7,1.7,1.6,2.3,2.7.6,1.1.8,2.5.8,4,0,2.3-.4,4.3-1.2,5.9-.8,1.7-1.8,3-3.1,4.1-1.3,1.1-2.8,1.8-4.5,2.3-1.7.5-3.5.8-5.3.8s-1.4,0-2.1,0c-.7,0-1.3,0-1.9-.1l-2.4,13.9c-.3,0-.5,0-.8,0-.3,0-.6,0-1,0s-.6,0-.9,0c-.3,0-.5,0-.7,0l6.1-35h0ZM-1355,346.8c.6,0,1.2.2,1.7.2.5,0,1,0,1.7,0,3.4,0,6-.8,7.9-2.3,1.9-1.5,2.8-3.9,2.8-7.1s-.6-4-1.9-5c-1.3-.9-3.4-1.4-6.2-1.4s-1.1,0-1.7,0c-.6,0-1.1.1-1.4.2l-2.7,15.4h0Z"/>
    <path class="st4" d="M-1328.6,328.8c.2,0,.5,0,.8,0,.3,0,.7,0,1,0s.6,0,.9,0c.3,0,.5,0,.7,0l-3.7,21.1c-.2,1-.3,1.9-.4,2.8,0,.9-.1,1.7-.1,2.4,0,2.2.5,3.8,1.5,4.7,1,.9,2.7,1.4,5.1,1.4s2.9-.3,4.1-.8c1.1-.5,2.1-1.2,2.8-2.2.8-1,1.4-2.1,1.9-3.5.5-1.4.9-3,1.2-4.8l3.7-21.1c.2,0,.5,0,.8,0,.3,0,.6,0,1,0s.5,0,.8,0c.3,0,.6,0,.8,0l-3.9,22.1c-.4,2.2-.9,4.1-1.6,5.8-.7,1.7-1.6,3.1-2.7,4.2-1.1,1.2-2.4,2-4,2.6-1.6.6-3.4.9-5.5.9-6.3,0-9.5-3.1-9.5-9.3s0-1.5.1-2.2c0-.8.2-1.6.4-2.4l3.8-21.5h0Z"/>
    <path class="st4" d="M-1279.9,362.5c-1.1.5-2.5,1-4.1,1.3-1.6.3-3.2.5-4.9.5-3.9,0-7-1.2-9.2-3.5-2.2-2.3-3.4-5.7-3.4-10.1s.4-5.5,1.1-8.2c.7-2.7,1.9-5.1,3.4-7.2,1.5-2.1,3.5-3.8,5.8-5.2,2.3-1.3,5.1-2,8.4-2s3.4.1,4.6.4c1.2.3,2.1.5,2.7.7-.1.6-.3,1.1-.4,1.5-.1.4-.4.9-.7,1.4-.8-.3-1.7-.5-2.7-.7-1-.2-2.2-.3-3.7-.3-2.6,0-4.8.5-6.7,1.6-1.9,1.1-3.4,2.5-4.6,4.3-1.2,1.8-2.1,3.8-2.7,6.2-.6,2.3-.9,4.7-.9,7.2,0,3.5.8,6.2,2.5,8.1,1.7,1.8,4.1,2.8,7.3,2.8s2.8-.1,4-.4c1.2-.3,2.3-.7,3.3-1.2.5.7.8,1.7.9,2.8h0Z"/>
    <path class="st4" d="M-1267.9,328.8c.3,0,.8,0,1.3-.2.6,0,1.2-.1,1.8-.2.7,0,1.3,0,1.9-.1.6,0,1.2,0,1.7,0,1.6,0,3.1.2,4.4.5,1.4.3,2.5.8,3.5,1.5,1,.7,1.7,1.6,2.3,2.7.6,1.1.8,2.5.8,4,0,2.3-.4,4.3-1.2,5.9-.8,1.7-1.8,3-3.1,4.1-1.3,1.1-2.8,1.8-4.5,2.3-1.7.5-3.5.8-5.3.8s-1.4,0-2.1,0c-.7,0-1.3,0-1.9-.1l-2.4,13.9c-.3,0-.5,0-.8,0-.3,0-.6,0-1,0s-.6,0-.9,0c-.3,0-.5,0-.7,0l6.1-35h0ZM-1267.7,346.8c.6,0,1.2.2,1.7.2.5,0,1,0,1.7,0,3.4,0,6-.8,7.9-2.3,1.9-1.5,2.8-3.9,2.8-7.1s-.6-4-1.9-5c-1.3-.9-3.4-1.4-6.2-1.4s-1.1,0-1.7,0c-.6,0-1.1.1-1.4.2l-2.7,15.4h0Z"/>
    <path class="st4" d="M-1240.9,328.6c2.3-.3,4.5-.4,6.6-.4s2.6.1,3.9.4c1.3.3,2.4.8,3.4,1.4,1,.7,1.7,1.5,2.3,2.6.6,1.1.9,2.4.9,3.9s-.3,3.2-.9,4.5c-.6,1.3-1.3,2.4-2.2,3.4-.9,1-1.9,1.8-3,2.4-1.1.7-2.1,1.2-3.2,1.7l7.2,15.2c-.4,0-.7,0-1,0h-2c-.3,0-.6,0-.9,0l-7.8-16.3,1.9-.8c.7-.3,1.6-.7,2.5-1.2.9-.5,1.8-1.1,2.6-1.8.8-.7,1.5-1.6,2-2.6.5-1,.8-2.3.8-3.7,0-4.1-2.3-6.1-6.9-6.1s-1.2,0-1.7,0c-.5,0-1.1,0-1.9.2l-5.7,32.4c-.3,0-.6,0-.9,0-.3,0-.6,0-.9,0s-.6,0-.9,0c-.3,0-.5,0-.7,0l6.2-35.1h0Z"/>
    <path class="st4" d="M-1486.6,287.3c-3,1.1-4.6,1.9-5.8,5.2-1,2.8-.9,6.6,0,9.1,3.8,9.9,18.8,8.7,21.1,1.5,3.1-10-4.8-19.7-15.4-15.9h0ZM-1591.1,386.8h55.6c-2.7-2.3-10.1-6.1-14.5-9.9-18.1-15.9-20.3-23.7-28.1-44.5l-13,54.4h0ZM-1416.2,347.7c-33.1,23-77.5,24.5-95.9-11.5-19-37.2,14-64.6,36-57.8,9.9,3,12.8,9.1,14.5,20.7,12.4-14.6,4.3-37-5.7-47.1-32.2-32.9-109.2,2.4-103.7,67.6,4.9,57.8,67.6,82.9,118.4,57,11.1-5.7,30.9-18.9,36.3-28.9h0ZM-1559.9,259c9.7-13,31.9-24.3,48.9-27.2,55.8-9.7,81,50,53.5,76.1-15,14.2-43.2,15.3-44.7-11.8-11.2,13.1-6.7,32.2,3.1,44.1,28.1,34,95.3,9.4,105.2-45.2,7-38.5-16.5-67.5-40-79-17.9-8.7-32.1-7.6-53.2-7.6s-55.2-.6-60.6.3l-12.2,50.4h0ZM-1554.8,199.4h74c26.3,0,40.4,1.1,59.6,13.5,28.4,18.4,46.6,56.9,32,103.5-11,35-38.4,62.1-72.6,73.6-22,7.4-43.4,5.8-67.5,5.8s-49,0-73.6,0l48.1-196.3h0Z"/>
  </g>
  <g>
    <polygon class="st18" points="-592.9 321.2 -790.9 321.2 -790.9 123.2 -592.9 123.2 -592.9 321.2 -592.9 321.2"/>
    <polygon class="st31" points="-212.7 321.2 -291.3 321.2 -291.3 123.2 -212.7 123.2 -212.7 321.2 -212.7 321.2"/>
    <polygon class="st32" points="-291.3 321.2 -430.3 321.2 -430.3 123.2 -291.3 123.2 -291.3 321.2 -291.3 321.2"/>
    <polygon class="st35" points="-592.9 123.4 -430.3 123.4 -430.3 321 -592.9 321 -592.9 123.4 -592.9 123.4"/>
    <polygon class="st17" points="-672.7 359.1 -554.5 359.1 -554.5 472.4 -672.7 472.4 -672.7 359.1 -672.7 359.1"/>
    <polygon class="st9" points="-790.9 359.1 -672.7 359.1 -672.7 472.4 -790.9 472.4 -790.9 359.1 -790.9 359.1"/>
    <polygon class="st33" points="-554.5 359.1 -436.3 359.1 -436.3 472.4 -554.5 472.4 -554.5 359.1 -554.5 359.1"/>
    <polygon class="st29" points="-318.1 359.1 -199.9 359.1 -199.9 472.4 -318.1 472.4 -318.1 359.1 -318.1 359.1"/>
    <polygon class="st11" points="-436.3 359.1 -318.1 359.1 -318.1 472.4 -436.3 472.4 -436.3 359.1 -436.3 359.1"/>
    <polygon class="st32" points="-146 122.9 -90.9 122.9 -90.9 239.6 -146 239.6 -146 122.9 -146 122.9"/>
    <polygon class="st15" points="-146 239 -90.9 239 -90.9 355.7 -146 355.7 -146 239 -146 239"/>
    <polygon class="st0" points="-146 355.7 -90.9 355.7 -90.9 472.4 -146 472.4 -146 355.7 -146 355.7"/>
    <polygon class="st13" points="-212.7 123.3 -200.9 123.3 -200.9 321.2 -212.7 321.2 -212.7 123.3 -212.7 123.3"/>
    <path class="st16" d="M-740.5,231.5l1.1-5.2h-2.1v-1.8h2.4l.9-4.4h-3.3v-1.8h3.7l1.1-5.2h1.8l-1.1,5.2h3.8l1.1-5.2h1.8l-1.1,5.2h2.1v1.8h-2.5l-.9,4.4h3.4v1.8h-3.8l-1.1,5.2h-1.8l1.1-5.2h-3.8l-1.1,5.2h-1.8ZM-737.2,224.4h3.8l.9-4.4h-3.8l-.9,4.4h0Z"/>
    <path class="st16" d="M-727.8,231.2l6.9-18h2.6l7.3,18h-2.7l-2.1-5.4h-7.6l-1.9,5.4h-2.5ZM-722.6,223.8h6.1l-1.9-5c-.6-1.5-1-2.8-1.3-3.8-.2,1.2-.6,2.3-1,3.5l-2,5.3h0Z"/>
    <path class="st16" d="M-698.4,229.1v2.1h-11.9c0-.5,0-1,.3-1.5.3-.8.8-1.6,1.5-2.4.7-.8,1.6-1.7,2.9-2.7,1.9-1.6,3.3-2.9,4-3.8.7-.9,1-1.8,1-2.7s-.3-1.6-.9-2.2c-.6-.6-1.4-.9-2.5-.9s-1.9.3-2.6,1c-.6.6-1,1.5-1,2.6l-2.3-.2c.2-1.7.7-3,1.8-3.9,1-.9,2.4-1.3,4.1-1.3s3.1.5,4.1,1.4c1,1,1.5,2.1,1.5,3.6s-.1,1.4-.4,2.1c-.3.7-.8,1.4-1.5,2.2-.7.8-1.8,1.8-3.4,3.2-1.3,1.1-2.2,1.9-2.6,2.3-.4.4-.7.8-.9,1.2h8.8Z"/>
    <path class="st16" d="M-687.7,231.2h-2.2v-14.1c-.5.5-1.2,1-2.1,1.5-.9.5-1.6.9-2.3,1.1v-2.1c1.2-.6,2.3-1.3,3.2-2.1.9-.8,1.6-1.6,2-2.4h1.4v18h0Z"/>
    <path class="st16" d="M-670.6,217.6l-2.2.2c-.2-.9-.5-1.5-.8-1.9-.6-.6-1.3-.9-2.2-.9s-1.3.2-1.9.6c-.7.5-1.2,1.2-1.6,2.2-.4,1-.6,2.4-.6,4.2.5-.8,1.2-1.4,2-1.8.8-.4,1.6-.6,2.4-.6,1.5,0,2.7.5,3.8,1.6,1,1.1,1.6,2.5,1.6,4.2s-.2,2.2-.7,3.1c-.5,1-1.2,1.7-2,2.2-.8.5-1.8.8-2.9.8-1.8,0-3.3-.7-4.5-2-1.2-1.4-1.7-3.6-1.7-6.7s.6-6,1.9-7.6c1.1-1.4,2.6-2.1,4.5-2.1s2.6.4,3.5,1.2c.9.8,1.4,1.9,1.6,3.3h0ZM-679.6,225.4c0,.8.2,1.5.5,2.2.3.7.8,1.2,1.3,1.6.6.4,1.2.5,1.8.5.9,0,1.7-.4,2.4-1.1.7-.8,1-1.8,1-3.1s-.3-2.2-1-2.9c-.7-.7-1.5-1.1-2.5-1.1s-1.8.4-2.5,1.1c-.7.7-1,1.7-1,2.8h0Z"/>
    <path class="st16" d="M-668.1,226.4l2.2-.3c.3,1.3.7,2.2,1.3,2.7.6.6,1.4.8,2.2.8s1.9-.4,2.6-1.1c.7-.7,1.1-1.6,1.1-2.7s-.3-1.8-1-2.5c-.7-.7-1.5-1-2.5-1s-.9,0-1.6.2l.2-1.9c.1,0,.3,0,.4,0,.9,0,1.8-.2,2.5-.7.8-.5,1.1-1.2,1.1-2.3s-.3-1.5-.8-2c-.5-.5-1.3-.8-2.1-.8s-1.6.3-2.1.8c-.6.5-.9,1.4-1.1,2.4l-2.2-.4c.3-1.5.9-2.6,1.8-3.4,1-.8,2.1-1.2,3.6-1.2s1.9.2,2.7.6c.8.4,1.5,1,1.9,1.7.4.7.7,1.5.7,2.3s-.2,1.5-.6,2.1c-.4.6-1,1.1-1.9,1.5,1.1.2,1.9.8,2.5,1.5.6.8.9,1.7.9,2.9s-.6,2.9-1.7,4c-1.1,1.1-2.6,1.6-4.3,1.6s-2.9-.5-3.9-1.4c-1-.9-1.6-2.2-1.8-3.7h0Z"/>
    <path class="st16" d="M-653.8,227l2.1-.2c.2,1,.5,1.7,1,2.2.5.4,1.2.7,1.9.7s1.3-.2,1.8-.5c.5-.3.9-.7,1.3-1.2.3-.5.6-1.2.8-2.1.2-.9.3-1.8.3-2.7s0-.2,0-.4c-.4.7-1,1.3-1.8,1.7-.8.4-1.6.7-2.5.7-1.5,0-2.7-.5-3.8-1.6-1-1.1-1.5-2.5-1.5-4.3s.5-3.3,1.6-4.4c1.1-1.1,2.4-1.7,4-1.7s2.2.3,3.2.9c1,.6,1.7,1.5,2.2,2.7.5,1.2.8,2.8.8,5.1s-.2,4.1-.7,5.5c-.5,1.4-1.2,2.4-2.2,3.1-1,.7-2.1,1.1-3.5,1.1s-2.6-.4-3.4-1.2c-.9-.8-1.4-1.9-1.6-3.3h0ZM-644.8,219.1c0-1.3-.3-2.3-1-3-.7-.7-1.5-1.1-2.4-1.1s-1.8.4-2.6,1.2c-.7.8-1.1,1.8-1.1,3.1s.3,2.1,1,2.8c.7.7,1.5,1.1,2.6,1.1s1.9-.4,2.5-1.1c.7-.7,1-1.7,1-3h0Z"/>
    <path class="st16" d="M-564.4,231.5l1.1-5.2h-2.1v-1.8h2.4l.9-4.4h-3.3v-1.8h3.7l1.1-5.2h1.8l-1.1,5.2h3.8l1.1-5.2h1.8l-1.1,5.2h2.1v1.8h-2.5l-.9,4.4h3.4v1.8h-3.8l-1.1,5.2h-1.8l1.1-5.2h-3.8l-1.1,5.2h-1.8ZM-561.1,224.4h3.8l.9-4.4h-3.8l-.9,4.4h0Z"/>
    <polygon class="st16" points="-549.7 231.2 -549.7 213.2 -536.7 213.2 -536.7 215.3 -547.3 215.3 -547.3 220.8 -537.4 220.8 -537.4 223 -547.3 223 -547.3 229.1 -536.3 229.1 -536.3 231.2 -549.7 231.2 -549.7 231.2"/>
    <path class="st16" d="M-533.1,231.2v-18h6.7c1.4,0,2.5.2,3.3.5.8.4,1.5.9,1.9,1.7.5.8.7,1.5.7,2.4s-.2,1.5-.6,2.2c-.4.7-1,1.2-1.9,1.6,1.1.3,1.9.9,2.5,1.6.6.8.9,1.7.9,2.7s-.2,1.6-.5,2.4c-.4.7-.8,1.3-1.3,1.7-.5.4-1.2.7-2,.9-.8.2-1.8.3-2.9.3h-6.9ZM-530.7,220.8h3.9c1.1,0,1.8,0,2.3-.2.6-.2,1.1-.5,1.4-.9.3-.4.5-.9.5-1.6s-.1-1.1-.4-1.6c-.3-.5-.7-.8-1.2-.9-.5-.2-1.4-.3-2.7-.3h-3.6v5.4h0ZM-530.7,229.1h4.5c.8,0,1.3,0,1.6,0,.5,0,1-.3,1.4-.5.4-.2.7-.6.9-1,.2-.4.4-.9.4-1.5s-.2-1.3-.5-1.8c-.3-.5-.8-.8-1.4-1-.6-.2-1.5-.3-2.6-.3h-4.2v6.2h0Z"/>
    <path class="st16" d="M-517.1,226.5l2.3-.2c.2,1.1.6,2,1.2,2.5.6.6,1.4.8,2.3.8s2-.4,2.7-1.2c.7-.8,1.1-1.9,1.1-3.2s-.3-2.2-1-3c-.7-.7-1.6-1.1-2.8-1.1s-1.4.2-1.9.5c-.6.3-1,.7-1.3,1.3l-2.1-.3,1.7-9.2h8.9v2.1h-7.1l-1,4.8c1.1-.8,2.2-1.1,3.4-1.1s2.9.5,4,1.6,1.6,2.5,1.6,4.2-.5,3-1.4,4.2c-1.2,1.5-2.7,2.2-4.7,2.2s-3-.5-4-1.4c-1-.9-1.6-2.1-1.8-3.6h0Z"/>
    <polygon class="st16" points="-502.2 231.2 -502.2 213.2 -490.1 213.2 -490.1 215.3 -499.8 215.3 -499.8 220.9 -491.4 220.9 -491.4 223 -499.8 223 -499.8 231.2 -502.2 231.2 -502.2 231.2"/>
    <path class="st16" d="M-476.3,229.1v2.1h-11.9c0-.5,0-1,.3-1.5.3-.8.8-1.6,1.5-2.4.7-.8,1.6-1.7,2.9-2.7,1.9-1.6,3.3-2.9,4-3.8.7-.9,1-1.8,1-2.7s-.3-1.6-.9-2.2c-.6-.6-1.4-.9-2.5-.9s-1.9.3-2.6,1c-.6.6-1,1.5-1,2.6l-2.3-.2c.2-1.7.7-3,1.8-3.9,1-.9,2.4-1.3,4.1-1.3s3.1.5,4.1,1.4c1,1,1.5,2.1,1.5,3.6s-.1,1.4-.4,2.1c-.3.7-.8,1.4-1.5,2.2-.7.8-1.8,1.8-3.4,3.2-1.3,1.1-2.2,1.9-2.6,2.3-.4.4-.7.8-.9,1.2h8.8Z"/>
    <path class="st16" d="M-460.2,224.9l2.4.6c-.5,2-1.4,3.4-2.7,4.5-1.3,1-2.9,1.5-4.7,1.5s-3.5-.4-4.7-1.2c-1.2-.8-2.1-1.9-2.8-3.4-.6-1.5-.9-3.1-.9-4.8s.4-3.5,1.1-4.9c.7-1.4,1.7-2.5,3-3.2,1.3-.7,2.8-1.1,4.3-1.1s3.3.5,4.5,1.4c1.2.9,2.1,2.2,2.6,3.9l-2.3.6c-.4-1.3-1-2.3-1.8-2.9-.8-.6-1.8-.9-3-.9s-2.5.3-3.5,1c-.9.7-1.6,1.6-1.9,2.7-.4,1.1-.6,2.3-.6,3.4s.2,2.9.7,4c.4,1.1,1.1,2,2.1,2.6.9.6,1.9.8,3,.8s2.5-.4,3.4-1.1c.9-.8,1.5-1.9,1.9-3.4h0Z"/>
    <path class="st16" d="M-407.6,231.5l1.1-5.2h-2.1v-1.8h2.4l.9-4.4h-3.3v-1.8h3.7l1.1-5.2h1.8l-1.1,5.2h3.8l1.1-5.2h1.8l-1.1,5.2h2.1v1.8h-2.5l-.9,4.4h3.4v1.8h-3.8l-1.1,5.2h-1.8l1.1-5.2h-3.8l-1.1,5.2h-1.8ZM-404.3,224.4h3.8l.9-4.4h-3.8l-.9,4.4h0Z"/>
    <polygon class="st16" points="-392.9 231.2 -392.9 213.2 -379.9 213.2 -379.9 215.3 -390.5 215.3 -390.5 220.8 -380.6 220.8 -380.6 223 -390.5 223 -390.5 229.1 -379.5 229.1 -379.5 231.2 -392.9 231.2 -392.9 231.2"/>
    <path class="st16" d="M-365.6,217.6l-2.2.2c-.2-.9-.5-1.5-.8-1.9-.6-.6-1.3-.9-2.2-.9s-1.3.2-1.9.6c-.7.5-1.2,1.2-1.6,2.2-.4,1-.6,2.4-.6,4.2.5-.8,1.2-1.4,2-1.8.8-.4,1.6-.6,2.4-.6,1.5,0,2.7.5,3.8,1.6,1,1.1,1.6,2.5,1.6,4.2s-.2,2.2-.7,3.1c-.5,1-1.2,1.7-2,2.2-.8.5-1.8.8-2.9.8-1.8,0-3.3-.7-4.5-2-1.2-1.4-1.7-3.6-1.7-6.7s.6-6,1.9-7.6c1.1-1.4,2.6-2.1,4.5-2.1s2.6.4,3.5,1.2c.9.8,1.4,1.9,1.6,3.3h0ZM-374.7,225.4c0,.8.2,1.5.5,2.2.3.7.8,1.2,1.3,1.6.6.4,1.2.5,1.8.5.9,0,1.7-.4,2.4-1.1.7-.8,1-1.8,1-3.1s-.3-2.2-1-2.9c-.7-.7-1.5-1.1-2.5-1.1s-1.8.4-2.5,1.1c-.7.7-1,1.7-1,2.8h0Z"/>
    <path class="st16" d="M-351.6,229.1v2.1h-11.9c0-.5,0-1,.3-1.5.3-.8.8-1.6,1.5-2.4.7-.8,1.6-1.7,2.9-2.7,1.9-1.6,3.3-2.9,4-3.8.7-.9,1-1.8,1-2.7s-.3-1.6-.9-2.2c-.6-.6-1.4-.9-2.5-.9s-1.9.3-2.6,1c-.6.6-1,1.5-1,2.6l-2.3-.2c.2-1.7.7-3,1.8-3.9,1-.9,2.4-1.3,4.1-1.3s3.1.5,4.1,1.4c1,1,1.5,2.1,1.5,3.6s-.1,1.4-.4,2.1c-.3.7-.8,1.4-1.5,2.2-.7.8-1.8,1.8-3.4,3.2-1.3,1.1-2.2,1.9-2.6,2.3-.4.4-.7.8-.9,1.2h8.8Z"/>
    <path class="st16" d="M-337.6,229.1v2.1h-11.9c0-.5,0-1,.3-1.5.3-.8.8-1.6,1.5-2.4.7-.8,1.6-1.7,2.9-2.7,1.9-1.6,3.3-2.9,4-3.8.7-.9,1-1.8,1-2.7s-.3-1.6-.9-2.2c-.6-.6-1.4-.9-2.5-.9s-1.9.3-2.6,1c-.6.6-1,1.5-1,2.6l-2.3-.2c.2-1.7.7-3,1.8-3.9,1-.9,2.4-1.3,4.1-1.3s3.1.5,4.1,1.4c1,1,1.5,2.1,1.5,3.6s-.1,1.4-.4,2.1c-.3.7-.8,1.4-1.5,2.2-.7.8-1.8,1.8-3.4,3.2-1.3,1.1-2.2,1.9-2.6,2.3-.4.4-.7.8-.9,1.2h8.8Z"/>
    <path class="st16" d="M-335.2,226.5l2.3-.2c.2,1.1.6,2,1.2,2.5.6.6,1.4.8,2.3.8s2-.4,2.7-1.2c.7-.8,1.1-1.9,1.1-3.2s-.3-2.2-1-3c-.7-.7-1.6-1.1-2.8-1.1s-1.4.2-1.9.5c-.6.3-1,.7-1.3,1.3l-2.1-.3,1.7-9.2h8.9v2.1h-7.1l-1,4.8c1.1-.8,2.2-1.1,3.4-1.1s2.9.5,4,1.6c1.1,1.1,1.6,2.5,1.6,4.2s-.5,3-1.4,4.2c-1.2,1.5-2.7,2.2-4.7,2.2s-3-.5-4-1.4c-1-.9-1.6-2.1-1.8-3.6h0Z"/>
    <path class="st16" d="M-313,231.2h-2.2v-14.1c-.5.5-1.2,1-2.1,1.5-.9.5-1.6.9-2.3,1.1v-2.1c1.2-.6,2.3-1.3,3.2-2.1.9-.8,1.6-1.6,2-2.4h1.4v18h0Z"/>
    <path class="st16" d="M-278.4,227.1l.6-2.8h-1.1v-1h1.3l.5-2.3h-1.8v-1h2l.6-2.8h1l-.6,2.8h2l.6-2.8h1l-.6,2.8h1.1v1h-1.3l-.5,2.3h1.8v1h-2l-.6,2.8h-1l.6-2.8h-2l-.6,2.8h-1ZM-276.6,223.4h2l.5-2.3h-2l-.5,2.3h0Z"/>
    <path class="st16" d="M-265,219.8h-1.2c-.1-.4-.3-.7-.4-.9-.3-.3-.7-.5-1.2-.5s-.7.1-1,.3c-.4.3-.7.7-.9,1.2-.2.5-.3,1.2-.3,2.2.3-.4.6-.7,1-1,.4-.2.8-.3,1.3-.3.8,0,1.4.3,2,.9.5.6.8,1.3.8,2.2s-.1,1.2-.4,1.7c-.3.5-.6.9-1.1,1.2-.4.3-1,.4-1.5.4-1,0-1.8-.4-2.4-1.1-.6-.7-.9-1.9-.9-3.5s.3-3.2,1-4c.6-.7,1.4-1.1,2.4-1.1s1.4.2,1.8.6c.5.4.8,1,.9,1.7h0ZM-269.8,223.9c0,.4,0,.8.3,1.2.2.4.4.6.7.8.3.2.6.3,1,.3.5,0,.9-.2,1.3-.6.4-.4.5-.9.5-1.6s-.2-1.2-.5-1.6c-.3-.4-.8-.6-1.3-.6s-1,.2-1.3.6c-.4.4-.6.9-.6,1.5h0Z"/>
    <path class="st16" d="M-263.3,227v-9.5h3.6c.7,0,1.3,0,1.7.3.4.2.8.5,1,.9.2.4.4.8.4,1.3s-.1.8-.3,1.1c-.2.4-.6.6-1,.9.6.2,1,.5,1.3.9.3.4.5.9.5,1.4s0,.9-.3,1.2c-.2.4-.4.7-.7.9-.3.2-.6.4-1,.5-.4.1-.9.2-1.5.2h-3.6ZM-262,221.4h2.1c.6,0,1,0,1.2-.1.3,0,.6-.3.7-.5.2-.2.2-.5.2-.8s0-.6-.2-.8c-.2-.2-.4-.4-.6-.5-.3,0-.8-.1-1.4-.1h-1.9v2.9h0ZM-262,225.8h2.4c.4,0,.7,0,.9,0,.3,0,.5-.1.7-.3.2-.1.4-.3.5-.5.1-.2.2-.5.2-.8s0-.7-.3-.9c-.2-.3-.4-.4-.8-.6-.3-.1-.8-.2-1.4-.2h-2.2v3.3h0Z"/>
    <path class="st16" d="M-254.8,224.5h1.2c0,.5.3.9.6,1.3.3.3.7.4,1.2.4s1-.2,1.4-.6c.4-.4.6-1,.6-1.7s-.2-1.2-.6-1.6c-.4-.4-.9-.6-1.5-.6s-.7,0-1,.3c-.3.2-.5.4-.7.7l-1.1-.2.9-4.9h4.7v1.1h-3.8l-.5,2.6c.6-.4,1.2-.6,1.8-.6s1.5.3,2.1.9c.6.6.9,1.3.9,2.2s-.2,1.6-.7,2.2c-.6.8-1.4,1.2-2.5,1.2s-1.6-.2-2.1-.7c-.5-.5-.9-1.1-.9-1.9h0Z"/>
    <path class="st16" d="M-247.3,224.7h1.1c0,.4.3.8.5,1.1.3.2.6.4,1,.4s.7,0,.9-.2c.3-.2.5-.4.7-.7.2-.3.3-.6.4-1.1.1-.5.2-.9.2-1.4s0-.1,0-.2c-.2.4-.6.7-1,.9-.4.2-.8.3-1.3.3-.8,0-1.4-.3-2-.9-.5-.6-.8-1.3-.8-2.3s.3-1.7.9-2.3c.6-.6,1.3-.9,2.1-.9s1.2.2,1.7.5c.5.3.9.8,1.2,1.4.3.6.4,1.5.4,2.7s-.1,2.2-.4,2.9c-.3.7-.7,1.3-1.2,1.6-.5.4-1.1.6-1.8.6s-1.3-.2-1.8-.6c-.5-.4-.8-1-.8-1.7h0ZM-242.5,220.6c0-.7-.2-1.2-.5-1.6-.4-.4-.8-.6-1.3-.6s-1,.2-1.4.6c-.4.4-.6,1-.6,1.6s.2,1.1.5,1.5c.4.4.8.6,1.4.6s1-.2,1.3-.6c.3-.4.5-.9.5-1.6h0Z"/>
    <path class="st16" d="M-240.7,227l3.6-9.5h1.4l3.9,9.5h-1.4l-1.1-2.9h-4l-1,2.9h-1.3ZM-237.9,223h3.2l-1-2.6c-.3-.8-.5-1.5-.7-2-.1.6-.3,1.2-.5,1.8l-1,2.8h0Z"/>
    <path class="st16" d="M-225.1,225.8v1.1h-6.3c0-.3,0-.6.1-.8.2-.4.4-.8.8-1.3.4-.4.9-.9,1.5-1.4,1-.8,1.7-1.5,2.1-2,.4-.5.6-1,.6-1.4s-.2-.9-.5-1.2c-.3-.3-.8-.5-1.3-.5s-1,.2-1.4.5c-.3.3-.5.8-.5,1.4h-1.2c0-1,.4-1.7.9-2.2.5-.5,1.3-.7,2.2-.7s1.6.3,2.2.8c.5.5.8,1.1.8,1.9s0,.8-.2,1.1c-.2.4-.4.8-.8,1.2-.4.4-1,1-1.8,1.7-.7.6-1.2,1-1.4,1.2-.2.2-.4.4-.5.6h4.7Z"/>
    <path class="st16" d="M-203,242.7l-2.1-.4v.8h-.8v-1l-1.8-.4v1.4h-.8v-1.5l-2.1-.4v-.8l2.1.4v-1.6l-2.1-.4v-.8l2.1.4v-.9h.8v1l1.8.4v-1.4h.8v1.5l2.1.4v.8l-2.1-.4v1.6l2.1.4v.8h0ZM-205.9,241.3v-1.6l-1.8-.4v1.6l1.8.4h0Z"/>
    <path class="st16" d="M-203.1,237.5l-7.4-2.8v-1.1l7.4-3v1.1l-2.2.9v3.1l2.2.8v1h0ZM-206.1,235.4v-2.5l-2,.8c-.6.2-1.1.4-1.5.5.5.1,1,.2,1.4.4l2.2.8h0Z"/>
    <path class="st16" d="M-203.1,226.8v.9h-5.8c.2.2.4.5.6.9.2.4.4.7.5,1h-.9c-.2-.5-.5-.9-.9-1.3-.3-.4-.7-.6-1-.8v-.6h7.4Z"/>
    <path class="st16" d="M-207.1,223.1c-.1.4-.3.7-.6.8-.3.2-.6.3-.9.3-.5,0-1-.2-1.4-.6-.4-.4-.5-.9-.5-1.5s.2-1.2.6-1.5c.4-.4.8-.6,1.4-.6s.6,0,.9.3c.3.2.4.4.6.8.1-.5.4-.8.7-1,.3-.2.7-.4,1.2-.4s1.2.2,1.6.7c.4.4.6,1,.6,1.8s-.2,1.3-.6,1.8c-.4.4-1,.7-1.6.7s-.9-.1-1.2-.4c-.3-.2-.5-.6-.7-1h0ZM-208.7,223.3c.3,0,.6-.1.9-.3.2-.2.3-.5.3-.9s-.1-.6-.3-.9c-.2-.2-.5-.3-.8-.3s-.6.1-.8.3c-.2.2-.3.5-.3.9s.1.6.3.9c.2.2.5.3.8.3h0ZM-205.2,223.6c.3,0,.5,0,.7-.2.2-.1.4-.3.6-.5.1-.2.2-.5.2-.8,0-.4-.1-.8-.4-1.1-.3-.3-.6-.4-1.1-.4s-.8.1-1.1.4c-.3.3-.4.7-.4,1.1s.1.8.4,1.1c.3.3.6.4,1.1.4h0Z"/>
    <path class="st16" d="M-203.1,215.9h-1.8v3.2h-.8l-4.8-3.4v-.7h4.8v-1h.8v1h1.8v.9h0ZM-205.7,215.9h-3.3l3.3,2.3v-2.3h0Z"/>
    <path class="st16" d="M-203.1,212.7h-7.4v-2.8c0-.6,0-1,.2-1.4.1-.3.4-.6.7-.8.3-.2.6-.3,1-.3s.6,0,.9.3c.3.2.5.4.7.8.1-.4.4-.8.7-1,.3-.2.7-.4,1.1-.4s.7,0,1,.2c.3.1.5.3.7.5.2.2.3.5.4.8,0,.3.1.7.1,1.2v2.8h0ZM-207.4,211.7v-1.6c0-.4,0-.7,0-.9,0-.2-.2-.4-.4-.6-.2-.1-.4-.2-.6-.2s-.5,0-.6.2c-.2.1-.3.3-.4.5,0,.2-.1.6-.1,1.1v1.5h2.2ZM-204,211.7v-1.8c0-.3,0-.5,0-.7,0-.2-.1-.4-.2-.6,0-.2-.2-.3-.4-.4-.2,0-.4-.1-.6-.1s-.5,0-.7.2c-.2.1-.3.3-.4.6,0,.2-.1.6-.1,1.1v1.7h2.5Z"/>
    <path class="st16" d="M-203.1,205.8h-7.4v-2.8c0-.6,0-1,.2-1.4.1-.3.4-.6.7-.8.3-.2.6-.3,1-.3s.6,0,.9.3c.3.2.5.4.7.8.1-.4.4-.8.7-1,.3-.2.7-.4,1.1-.4s.7,0,1,.2c.3.1.5.3.7.5.2.2.3.5.4.8,0,.3.1.7.1,1.2v2.8h0ZM-207.4,204.9v-1.6c0-.4,0-.7,0-.9,0-.2-.2-.4-.4-.6-.2-.1-.4-.2-.6-.2s-.5,0-.6.2c-.2.1-.3.3-.4.5,0,.2-.1.6-.1,1.1v1.5h2.2ZM-204,204.9v-1.8c0-.3,0-.5,0-.7,0-.2-.1-.4-.2-.6,0-.2-.2-.3-.4-.4-.2,0-.4-.1-.6-.1s-.5,0-.7.2c-.2.1-.3.3-.4.6,0,.2-.1.6-.1,1.1v1.7h2.5Z"/>
    <path class="st16" d="M-773.8,423.4l.9-4.3h-1.7v-1.5h2l.8-3.7h-2.8v-1.5h3.1l.9-4.4h1.5l-.9,4.4h3.2l.9-4.4h1.5l-.9,4.4h1.8v1.5h-2.1l-.8,3.7h2.8v1.5h-3.1l-.9,4.3h-1.5l.9-4.3h-3.2l-.9,4.3h-1.5ZM-771.1,417.6h3.2l.8-3.7h-3.2l-.8,3.7h0Z"/>
    <polygon class="st16" points="-761.6 423.2 -761.6 408.3 -750.8 408.3 -750.8 410 -759.6 410 -759.6 414.6 -751.4 414.6 -751.4 416.3 -759.6 416.3 -759.6 421.4 -750.5 421.4 -750.5 423.2 -761.6 423.2 -761.6 423.2"/>
    <path class="st16" d="M-738.9,421.4v1.8h-9.9c0-.4,0-.9.2-1.3.3-.7.7-1.3,1.2-2,.6-.7,1.4-1.4,2.4-2.3,1.6-1.3,2.7-2.4,3.3-3.2.6-.8.9-1.5.9-2.2s-.3-1.3-.8-1.8c-.5-.5-1.2-.7-2-.7s-1.6.3-2.1.8c-.5.5-.8,1.3-.8,2.2l-1.9-.2c.1-1.4.6-2.5,1.5-3.2.8-.7,2-1.1,3.4-1.1s2.6.4,3.4,1.2c.8.8,1.3,1.8,1.3,3s-.1,1.2-.4,1.8c-.2.6-.7,1.2-1.2,1.8-.6.6-1.5,1.5-2.8,2.6-1.1.9-1.8,1.6-2.1,1.9-.3.3-.6.7-.8,1h7.3Z"/>
    <path class="st16" d="M-736.9,419.2l1.8-.3c.2,1,.6,1.8,1.1,2.3.5.5,1.1.7,1.9.7s1.6-.3,2.2-.9c.6-.6.9-1.3.9-2.2s-.3-1.5-.8-2.1c-.5-.5-1.2-.8-2.1-.8s-.8,0-1.3.2l.2-1.6c.1,0,.2,0,.3,0,.8,0,1.5-.2,2.1-.6.6-.4.9-1,.9-1.9s-.2-1.2-.7-1.7c-.5-.4-1-.7-1.8-.7s-1.3.2-1.8.7c-.5.5-.8,1.1-.9,2l-1.8-.3c.2-1.2.7-2.2,1.5-2.9.8-.7,1.8-1,3-1s1.6.2,2.2.5c.7.3,1.2.8,1.6,1.4.4.6.5,1.2.5,1.9s-.2,1.2-.5,1.8c-.3.5-.9.9-1.5,1.3.9.2,1.6.6,2.1,1.3.5.6.7,1.4.7,2.4s-.5,2.4-1.4,3.3c-1,.9-2.2,1.4-3.6,1.4s-2.4-.4-3.3-1.2c-.9-.8-1.4-1.8-1.5-3h0Z"/>
    <path class="st16" d="M-722.5,415.1c-.8-.3-1.3-.7-1.7-1.2-.4-.5-.5-1.1-.5-1.9,0-1.1.4-2,1.2-2.7.8-.7,1.8-1.1,3.1-1.1s2.4.4,3.1,1.1c.8.8,1.2,1.7,1.2,2.8s-.2,1.3-.5,1.8c-.4.5-.9.9-1.7,1.2.9.3,1.6.8,2.1,1.4.5.7.7,1.5.7,2.4s-.5,2.3-1.4,3.2c-.9.9-2.1,1.3-3.6,1.3s-2.7-.4-3.6-1.3c-.9-.9-1.4-2-1.4-3.3s.2-1.8.7-2.4c.5-.7,1.2-1.1,2.1-1.3h0ZM-722.8,412c0,.7.2,1.3.7,1.7.5.4,1,.7,1.8.7s1.3-.2,1.7-.7c.4-.4.7-1,.7-1.6s-.2-1.2-.7-1.7c-.5-.5-1-.7-1.7-.7s-1.3.2-1.7.7c-.5.4-.7,1-.7,1.6h0ZM-723.4,418.9c0,.5.1,1,.4,1.5.2.5.6.9,1.1,1.1.5.3,1,.4,1.6.4.9,0,1.6-.3,2.2-.8.6-.6.8-1.3.8-2.1s-.3-1.6-.9-2.2c-.6-.6-1.3-.9-2.2-.9s-1.6.3-2.1.9c-.6.6-.8,1.3-.8,2.1h0Z"/>
    <path class="st16" d="M-710.9,415.1c-.8-.3-1.3-.7-1.7-1.2-.4-.5-.5-1.1-.5-1.9,0-1.1.4-2,1.2-2.7.8-.7,1.8-1.1,3.1-1.1s2.4.4,3.1,1.1c.8.8,1.2,1.7,1.2,2.8s-.2,1.3-.5,1.8c-.4.5-.9.9-1.7,1.2.9.3,1.6.8,2.1,1.4.5.7.7,1.5.7,2.4s-.5,2.3-1.4,3.2c-.9.9-2.1,1.3-3.6,1.3s-2.7-.4-3.6-1.3c-.9-.9-1.4-2-1.4-3.3s.2-1.8.7-2.4c.5-.7,1.2-1.1,2.1-1.3h0ZM-711.2,412c0,.7.2,1.3.7,1.7.5.4,1,.7,1.8.7s1.3-.2,1.7-.7c.4-.4.7-1,.7-1.6s-.2-1.2-.7-1.7c-.5-.5-1-.7-1.7-.7s-1.3.2-1.7.7c-.5.4-.7,1-.7,1.6h0ZM-711.8,418.9c0,.5.1,1,.4,1.5.2.5.6.9,1.1,1.1.5.3,1,.4,1.6.4.9,0,1.6-.3,2.2-.8.6-.6.8-1.3.8-2.1s-.3-1.6-.9-2.2c-.6-.6-1.3-.9-2.2-.9s-1.6.3-2.1.9c-.6.6-.8,1.3-.8,2.1h0Z"/>
    <path class="st16" d="M-701.4,423.2v-14.9h5.1c1.2,0,2,0,2.7.2.9.2,1.6.6,2.2,1.1.8.7,1.4,1.5,1.8,2.6.4,1,.6,2.2.6,3.6s-.1,2.1-.4,3c-.3.9-.6,1.6-1,2.2-.4.6-.9,1-1.4,1.4-.5.3-1.1.6-1.8.8-.7.2-1.5.3-2.4.3h-5.4ZM-699.4,421.4h3.2c1,0,1.8,0,2.3-.3.6-.2,1-.4,1.3-.8.5-.5.8-1.1,1.1-1.9.3-.8.4-1.8.4-2.9s-.3-2.8-.8-3.6c-.5-.8-1.1-1.4-1.9-1.7-.5-.2-1.4-.3-2.6-.3h-3.1v11.4h0Z"/>
    <path class="st16" d="M-655.6,423.4l.9-4.3h-1.7v-1.5h2l.8-3.7h-2.8v-1.5h3.1l.9-4.4h1.5l-.9,4.4h3.2l.9-4.4h1.5l-.9,4.4h1.8v1.5h-2.1l-.8,3.7h2.8v1.5h-3.1l-.9,4.3h-1.5l.9-4.3h-3.2l-.9,4.3h-1.5ZM-652.9,417.6h3.2l.8-3.7h-3.2l-.8,3.7h0Z"/>
    <path class="st16" d="M-634.7,411.9h-1.8c-.2-.6-.4-1.1-.7-1.4-.5-.5-1.1-.8-1.8-.8s-1.1.2-1.6.5c-.6.4-1,1-1.4,1.8-.3.8-.5,2-.5,3.5.4-.7,1-1.2,1.6-1.5.6-.3,1.3-.5,2-.5,1.2,0,2.3.5,3.1,1.4.9.9,1.3,2.1,1.3,3.5s-.2,1.8-.6,2.6c-.4.8-1,1.4-1.7,1.8-.7.4-1.5.6-2.4.6-1.5,0-2.8-.6-3.7-1.7-1-1.1-1.4-3-1.4-5.6s.5-5,1.6-6.3c.9-1.1,2.2-1.7,3.8-1.7s2.1.3,2.9,1c.8.7,1.2,1.6,1.4,2.7h0ZM-642.2,418.4c0,.6.1,1.2.4,1.8.3.6.6,1,1.1,1.3.5.3,1,.5,1.5.5.8,0,1.4-.3,2-.9.6-.6.8-1.5.8-2.5s-.3-1.8-.8-2.4c-.5-.6-1.2-.9-2.1-.9s-1.5.3-2.1.9c-.6.6-.9,1.4-.9,2.3h0Z"/>
    <path class="st16" d="M-626.7,423.2v-3.6h-6.5v-1.7l6.8-9.7h1.5v9.7h2v1.7h-2v3.6h-1.8ZM-626.7,417.9v-6.7l-4.7,6.7h4.7Z"/>
    <path class="st16" d="M-618.2,415.1c-.8-.3-1.3-.7-1.7-1.2-.4-.5-.5-1.1-.5-1.9,0-1.1.4-2,1.2-2.7.8-.7,1.8-1.1,3.1-1.1s2.4.4,3.1,1.1,1.2,1.7,1.2,2.8-.2,1.3-.5,1.8c-.4.5-.9.9-1.7,1.2.9.3,1.6.8,2.1,1.4.5.7.7,1.5.7,2.4s-.5,2.3-1.4,3.2c-.9.9-2.1,1.3-3.6,1.3s-2.7-.4-3.6-1.3c-.9-.9-1.4-2-1.4-3.3s.2-1.8.7-2.4c.5-.7,1.2-1.1,2.1-1.3h0ZM-618.5,412c0,.7.2,1.3.7,1.7.5.4,1,.7,1.8.7s1.3-.2,1.7-.7c.4-.4.7-1,.7-1.6s-.2-1.2-.7-1.7c-.5-.5-1-.7-1.7-.7s-1.3.2-1.7.7c-.5.4-.7,1-.7,1.6h0ZM-619.1,418.9c0,.5.1,1,.4,1.5.2.5.6.9,1.1,1.1.5.3,1,.4,1.6.4.9,0,1.6-.3,2.2-.8.6-.6.8-1.3.8-2.1s-.3-1.6-.9-2.2c-.6-.6-1.3-.9-2.2-.9s-1.6.3-2.1.9c-.6.6-.8,1.3-.8,2.1h0Z"/>
    <path class="st16" d="M-603.5,423.2v-3.6h-6.5v-1.7l6.8-9.7h1.5v9.7h2v1.7h-2v3.6h-1.8ZM-603.5,417.9v-6.7l-4.7,6.7h4.7Z"/>
    <path class="st16" d="M-586.4,418l2,.5c-.4,1.6-1.2,2.9-2.2,3.7-1.1.9-2.4,1.3-3.9,1.3s-2.9-.3-3.9-1c-1-.7-1.8-1.6-2.3-2.8-.5-1.2-.8-2.6-.8-4s.3-2.9.9-4.1c.6-1.2,1.4-2,2.5-2.6,1.1-.6,2.3-.9,3.6-.9s2.7.4,3.8,1.1c1,.8,1.7,1.8,2.1,3.2l-1.9.5c-.3-1.1-.8-1.9-1.5-2.4-.7-.5-1.5-.7-2.5-.7s-2.1.3-2.9.8c-.8.5-1.3,1.3-1.6,2.2-.3.9-.5,1.9-.5,2.9s.2,2.4.6,3.3c.4.9.9,1.7,1.7,2.1.8.5,1.6.7,2.5.7s2-.3,2.8-1c.8-.6,1.3-1.6,1.6-2.8h0Z"/>
    <path class="st16" d="M-573.1,421.4v1.8h-9.9c0-.4,0-.9.2-1.3.3-.7.7-1.3,1.2-2,.6-.7,1.4-1.4,2.4-2.3,1.6-1.3,2.7-2.4,3.3-3.2.6-.8.9-1.5.9-2.2s-.3-1.3-.8-1.8c-.5-.5-1.2-.7-2-.7s-1.6.3-2.1.8c-.5.5-.8,1.3-.8,2.2l-1.9-.2c.1-1.4.6-2.5,1.5-3.2.8-.7,2-1.1,3.4-1.1s2.6.4,3.4,1.2c.8.8,1.3,1.8,1.3,3s-.1,1.2-.4,1.8c-.2.6-.7,1.2-1.2,1.8-.6.6-1.5,1.5-2.8,2.6-1.1.9-1.8,1.6-2.1,1.9-.3.3-.6.7-.8,1h7.3Z"/>
    <path class="st20" d="M-541.4,423.4l.9-4.3h-1.7v-1.5h2l.8-3.7h-2.8v-1.5h3.1l.9-4.4h1.5l-.9,4.4h3.2l.9-4.4h1.5l-.9,4.4h1.8v1.5h-2.1l-.8,3.7h2.8v1.5h-3.1l-.9,4.3h-1.5l.9-4.3h-3.2l-.9,4.3h-1.5ZM-538.7,417.6h3.2l.8-3.7h-3.2l-.8,3.7h0Z"/>
    <polygon class="st20" points="-529.2 423.2 -529.2 408.3 -519.1 408.3 -519.1 410 -527.2 410 -527.2 414.7 -520.2 414.7 -520.2 416.4 -527.2 416.4 -527.2 423.2 -529.2 423.2 -529.2 423.2"/>
    <path class="st20" d="M-511.4,423.2v-3.6h-6.5v-1.7l6.8-9.7h1.5v9.7h2v1.7h-2v3.6h-1.8ZM-511.4,417.9v-6.7l-4.7,6.7h4.7Z"/>
    <path class="st20" d="M-506.6,423.2l5.7-14.9h2.2l6.1,14.9h-2.3l-1.7-4.5h-6.3l-1.6,4.5h-2.1ZM-502.3,417.1h5.1l-1.6-4.1c-.5-1.3-.8-2.3-1.1-3.1-.2,1-.5,1.9-.8,2.9l-1.6,4.4h0Z"/>
    <path class="st20" d="M-480.4,418l2,.5c-.4,1.6-1.2,2.9-2.2,3.7-1.1.9-2.4,1.3-3.9,1.3s-2.9-.3-3.9-1c-1-.7-1.8-1.6-2.3-2.8-.5-1.2-.8-2.6-.8-4s.3-2.9.9-4.1c.6-1.2,1.4-2,2.5-2.6,1.1-.6,2.3-.9,3.6-.9s2.7.4,3.8,1.1c1,.8,1.7,1.8,2.1,3.2l-1.9.5c-.3-1.1-.8-1.9-1.5-2.4-.7-.5-1.5-.7-2.5-.7s-2.1.3-2.9.8c-.8.5-1.3,1.3-1.6,2.2-.3.9-.5,1.9-.5,2.9s.2,2.4.6,3.3c.4.9.9,1.7,1.7,2.1.8.5,1.6.7,2.5.7s2-.3,2.8-1c.8-.6,1.3-1.6,1.6-2.8h0Z"/>
    <path class="st20" d="M-465.3,418l2,.5c-.4,1.6-1.2,2.9-2.2,3.7-1.1.9-2.4,1.3-3.9,1.3s-2.9-.3-3.9-1c-1-.7-1.8-1.6-2.3-2.8-.5-1.2-.8-2.6-.8-4s.3-2.9.9-4.1c.6-1.2,1.4-2,2.5-2.6,1.1-.6,2.3-.9,3.6-.9s2.7.4,3.8,1.1c1,.8,1.7,1.8,2.1,3.2l-1.9.5c-.3-1.1-.8-1.9-1.5-2.4-.7-.5-1.5-.7-2.5-.7s-2.1.3-2.9.8c-.8.5-1.3,1.3-1.6,2.2-.3.9-.5,1.9-.5,2.9s.2,2.4.6,3.3c.4.9.9,1.7,1.7,2.1.8.5,1.6.7,2.5.7s2-.3,2.8-1c.8-.6,1.3-1.6,1.6-2.8h0Z"/>
    <path class="st20" d="M-462.5,423.2l5.7-14.9h2.2l6.1,14.9h-2.3l-1.7-4.5h-6.3l-1.6,4.5h-2.1ZM-458.2,417.1h5.1l-1.6-4.1c-.5-1.3-.8-2.3-1.1-3.1-.2,1-.5,1.9-.8,2.9l-1.6,4.4h0Z"/>
    <path class="st16" d="M-415.5,423.4l.9-4.3h-1.7v-1.5h2l.8-3.7h-2.8v-1.5h3.1l.9-4.4h1.5l-.9,4.4h3.2l.9-4.4h1.5l-.9,4.4h1.8v1.5h-2.1l-.8,3.7h2.8v1.5h-3.1l-.9,4.3h-1.5l.9-4.3h-3.2l-.9,4.3h-1.5ZM-412.8,417.6h3.2l.8-3.7h-3.2l-.8,3.7h0Z"/>
    <polygon class="st16" points="-403.2 423.2 -403.2 408.3 -393.2 408.3 -393.2 410 -401.3 410 -401.3 414.7 -394.2 414.7 -394.2 416.4 -401.3 416.4 -401.3 423.2 -403.2 423.2 -403.2 423.2"/>
    <path class="st16" d="M-391.3,419.2l1.8-.3c.2,1,.6,1.8,1.1,2.3.5.5,1.1.7,1.9.7s1.6-.3,2.2-.9c.6-.6.9-1.3.9-2.2s-.3-1.5-.8-2.1c-.5-.5-1.2-.8-2.1-.8s-.8,0-1.3.2l.2-1.6c.1,0,.2,0,.3,0,.8,0,1.5-.2,2.1-.6.6-.4.9-1,.9-1.9s-.2-1.2-.7-1.7c-.5-.4-1-.7-1.8-.7s-1.3.2-1.8.7c-.5.5-.8,1.1-.9,2l-1.8-.3c.2-1.2.7-2.2,1.5-2.9.8-.7,1.8-1,3-1s1.6.2,2.2.5c.7.3,1.2.8,1.6,1.4.4.6.5,1.2.5,1.9s-.2,1.2-.5,1.8c-.3.5-.9.9-1.5,1.3.9.2,1.6.6,2.1,1.3.5.6.7,1.4.7,2.4s-.5,2.4-1.4,3.3c-1,.9-2.2,1.4-3.6,1.4s-2.4-.4-3.3-1.2c-.9-.8-1.4-1.8-1.5-3h0Z"/>
    <path class="st16" d="M-379.5,419.7h1.8c.1.7.4,1.3.9,1.7.4.4,1,.6,1.6.6s1.1-.1,1.5-.4c.4-.3.8-.6,1-1,.3-.4.5-1,.7-1.7.2-.7.3-1.5.3-2.2s0-.2,0-.4c-.4.6-.9,1.1-1.5,1.4-.6.4-1.3.5-2.1.5-1.2,0-2.3-.4-3.1-1.3-.9-.9-1.3-2.1-1.3-3.5s.4-2.7,1.3-3.7c.9-.9,2-1.4,3.4-1.4s1.9.3,2.7.8c.8.5,1.4,1.3,1.8,2.2.4,1,.6,2.4.6,4.2s-.2,3.4-.6,4.6c-.4,1.1-1,2-1.8,2.6-.8.6-1.8.9-2.9.9s-2.1-.3-2.9-1c-.7-.7-1.2-1.6-1.3-2.7h0ZM-372,413.1c0-1-.3-1.9-.8-2.5-.6-.6-1.2-.9-2-.9s-1.5.3-2.1,1c-.6.7-.9,1.5-.9,2.6s.3,1.7.9,2.3c.6.6,1.3.9,2.1.9s1.5-.3,2.1-.9c.5-.6.8-1.4.8-2.5h0Z"/>
    <path class="st16" d="M-368.1,415.8c0-1.8.2-3.2.5-4.3.4-1.1.9-1.9,1.6-2.5.7-.6,1.6-.9,2.7-.9s1.5.2,2.1.5c.6.3,1.1.8,1.5,1.4.4.6.7,1.3.9,2.2.2.9.3,2.1.3,3.5s-.2,3.2-.5,4.2c-.4,1.1-.9,1.9-1.6,2.5-.7.6-1.6.9-2.7.9s-2.6-.5-3.4-1.5c-1-1.3-1.5-3.3-1.5-6.1h0ZM-366.3,415.8c0,2.5.3,4.1.9,4.9.6.8,1.3,1.2,2.1,1.2s1.6-.4,2.1-1.2c.6-.8.9-2.4.9-4.9s-.3-4.1-.9-4.9c-.6-.8-1.3-1.2-2.1-1.2s-1.5.4-2,1.1c-.6.9-.9,2.6-.9,5h0Z"/>
    <path class="st16" d="M-356.5,419.2l1.8-.3c.2,1,.6,1.8,1.1,2.3.5.5,1.1.7,1.9.7s1.6-.3,2.2-.9c.6-.6.9-1.3.9-2.2s-.3-1.5-.8-2.1c-.5-.5-1.2-.8-2.1-.8s-.8,0-1.3.2l.2-1.6c.1,0,.2,0,.3,0,.8,0,1.5-.2,2.1-.6.6-.4.9-1,.9-1.9s-.2-1.2-.7-1.7c-.5-.4-1-.7-1.8-.7s-1.3.2-1.8.7c-.5.5-.8,1.1-.9,2l-1.8-.3c.2-1.2.7-2.2,1.5-2.9.8-.7,1.8-1,3-1s1.6.2,2.2.5c.7.3,1.2.8,1.6,1.4.4.6.5,1.2.5,1.9s-.2,1.2-.5,1.8c-.3.5-.9.9-1.5,1.3.9.2,1.6.6,2.1,1.3.5.6.7,1.4.7,2.4s-.5,2.4-1.4,3.3c-1,.9-2.2,1.4-3.6,1.4s-2.4-.4-3.3-1.2c-.9-.8-1.4-1.8-1.5-3h0Z"/>
    <path class="st16" d="M-338,423.2h-1.8v-11.7c-.4.4-1,.8-1.7,1.3-.7.4-1.4.7-1.9.9v-1.8c1-.5,1.9-1.1,2.7-1.8.8-.7,1.3-1.3,1.6-2h1.2v15h0Z"/>
    <path class="st16" d="M-299.2,423.4l.9-4.3h-1.7v-1.5h2l.8-3.7h-2.8v-1.5h3.1l.9-4.4h1.5l-.9,4.4h3.2l.9-4.4h1.5l-.9,4.4h1.8v1.5h-2.1l-.8,3.7h2.8v1.5h-3.1l-.9,4.3h-1.5l.9-4.3h-3.2l-.9,4.3h-1.5ZM-296.5,417.6h3.2l.8-3.7h-3.2l-.8,3.7h0Z"/>
    <polygon class="st16" points="-287 423.2 -287 408.3 -276.2 408.3 -276.2 410 -285 410 -285 414.6 -276.8 414.6 -276.8 416.3 -285 416.3 -285 421.4 -275.9 421.4 -275.9 423.2 -287 423.2 -287 423.2"/>
    <path class="st16" d="M-271.1,415.1c-.8-.3-1.3-.7-1.7-1.2-.4-.5-.5-1.1-.5-1.9,0-1.1.4-2,1.2-2.7.8-.7,1.8-1.1,3.1-1.1s2.4.4,3.1,1.1c.8.8,1.2,1.7,1.2,2.8s-.2,1.3-.5,1.8c-.4.5-.9.9-1.7,1.2.9.3,1.6.8,2.1,1.4.5.7.7,1.5.7,2.4s-.5,2.3-1.4,3.2c-.9.9-2.1,1.3-3.6,1.3s-2.7-.4-3.6-1.3c-.9-.9-1.4-2-1.4-3.3s.2-1.8.7-2.4c.5-.7,1.2-1.1,2.1-1.3h0ZM-271.4,412c0,.7.2,1.3.7,1.7.5.4,1,.7,1.8.7s1.3-.2,1.7-.7c.4-.4.7-1,.7-1.6s-.2-1.2-.7-1.7c-.5-.5-1-.7-1.7-.7s-1.3.2-1.7.7c-.5.4-.7,1-.7,1.6h0ZM-272,418.9c0,.5.1,1,.4,1.5.2.5.6.9,1.1,1.1.5.3,1,.4,1.6.4.9,0,1.6-.3,2.2-.8.6-.6.8-1.3.8-2.1s-.3-1.6-.9-2.2c-.6-.6-1.3-.9-2.2-.9s-1.6.3-2.1.9c-.6.6-.8,1.3-.8,2.1h0Z"/>
    <path class="st16" d="M-256.4,423.2v-3.6h-6.5v-1.7l6.8-9.7h1.5v9.7h2v1.7h-2v3.6h-1.8ZM-256.4,417.9v-6.7l-4.7,6.7h4.7Z"/>
    <path class="st16" d="M-250.7,419.2l1.8-.3c.2,1,.6,1.8,1.1,2.3.5.5,1.1.7,1.9.7s1.6-.3,2.2-.9c.6-.6.9-1.3.9-2.2s-.3-1.5-.8-2.1c-.5-.5-1.2-.8-2.1-.8s-.8,0-1.3.2l.2-1.6c.1,0,.2,0,.3,0,.8,0,1.5-.2,2.1-.6.6-.4.9-1,.9-1.9s-.2-1.2-.7-1.7c-.5-.4-1-.7-1.8-.7s-1.3.2-1.8.7c-.5.5-.8,1.1-.9,2l-1.8-.3c.2-1.2.7-2.2,1.5-2.9.8-.7,1.8-1,3-1s1.6.2,2.2.5c.7.3,1.2.8,1.6,1.4.4.6.5,1.2.5,1.9s-.2,1.2-.5,1.8c-.3.5-.9.9-1.5,1.3.9.2,1.6.6,2.1,1.3.5.6.7,1.4.7,2.4s-.5,2.4-1.4,3.3c-1,.9-2.2,1.4-3.6,1.4s-2.4-.4-3.3-1.2c-.9-.8-1.4-1.8-1.5-3h0Z"/>
    <path class="st16" d="M-229.5,421.4v1.8h-9.9c0-.4,0-.9.2-1.3.3-.7.7-1.3,1.2-2,.6-.7,1.4-1.4,2.4-2.3,1.6-1.3,2.7-2.4,3.3-3.2.6-.8.9-1.5.9-2.2s-.3-1.3-.8-1.8c-.5-.5-1.2-.7-2-.7s-1.6.3-2.1.8c-.5.5-.8,1.3-.8,2.2l-1.9-.2c.1-1.4.6-2.5,1.5-3.2.8-.7,2-1.1,3.4-1.1s2.6.4,3.4,1.2c.8.8,1.3,1.8,1.3,3s-.1,1.2-.4,1.8c-.2.6-.7,1.2-1.2,1.8-.6.6-1.5,1.5-2.8,2.6-1.1.9-1.8,1.6-2.1,1.9-.3.3-.6.7-.8,1h7.3Z"/>
    <path class="st16" d="M-217.9,421.4v1.8h-9.9c0-.4,0-.9.2-1.3.3-.7.7-1.3,1.2-2,.6-.7,1.4-1.4,2.4-2.3,1.6-1.3,2.7-2.4,3.3-3.2.6-.8.9-1.5.9-2.2s-.3-1.3-.8-1.8c-.5-.5-1.2-.7-2-.7s-1.6.3-2.1.8c-.5.5-.8,1.3-.8,2.2l-1.9-.2c.1-1.4.6-2.5,1.5-3.2.8-.7,2-1.1,3.4-1.1s2.6.4,3.4,1.2c.8.8,1.3,1.8,1.3,3s-.1,1.2-.4,1.8c-.2.6-.7,1.2-1.2,1.8-.6.6-1.5,1.5-2.8,2.6-1.1.9-1.8,1.6-2.1,1.9-.3.3-.6.7-.8,1h7.3Z"/>
    <path class="st16" d="M-114.7,200.4l-2.1-.4v.8h-.8v-1l-1.8-.4v1.4h-.8v-1.5l-2.1-.4v-.8l2.1.4v-1.6l-2.1-.4v-.8l2.1.4v-.9h.8v1l1.8.4v-1.4h.8v1.5l2.1.4v.8l-2.1-.4v1.6l2.1.4v.8h0ZM-117.6,199.1v-1.6l-1.8-.4v1.6l1.8.4h0Z"/>
    <polygon class="st16" points="-114.8 194.4 -122.2 194.4 -122.2 189.1 -121.3 189.1 -121.3 193.4 -119 193.4 -119 189.4 -118.2 189.4 -118.2 193.4 -115.7 193.4 -115.7 188.9 -114.8 188.9 -114.8 194.4 -114.8 194.4"/>
    <path class="st16" d="M-120.4,183.2v.9c-.3,0-.5.2-.7.3-.3.2-.4.5-.4.9s0,.5.2.8c.2.3.5.5.9.7.4.2,1,.3,1.7.3-.3-.2-.6-.5-.7-.8-.2-.3-.2-.6-.2-1,0-.6.2-1.1.7-1.5.4-.4,1-.6,1.7-.6s.9,0,1.3.3c.4.2.7.5.9.8.2.3.3.7.3,1.2,0,.8-.3,1.4-.8,1.8-.6.5-1.5.7-2.7.7s-2.5-.3-3.1-.8c-.6-.5-.8-1.1-.8-1.9s.2-1.1.5-1.4c.3-.4.8-.6,1.3-.7h0ZM-117.2,186.9c.3,0,.6,0,.9-.2.3-.1.5-.3.6-.6.1-.2.2-.5.2-.8,0-.4-.2-.7-.5-1-.3-.3-.7-.4-1.3-.4s-.9.1-1.2.4c-.3.3-.4.6-.4,1s.1.8.4,1c.3.3.7.4,1.2.4h0Z"/>
    <path class="st16" d="M-115.7,177.5h.9v4.9c-.2,0-.4,0-.6-.1-.3-.1-.7-.3-1-.6-.3-.3-.7-.7-1.1-1.2-.7-.8-1.2-1.3-1.6-1.6-.4-.3-.7-.4-1.1-.4s-.7.1-.9.4c-.2.3-.4.6-.4,1s.1.8.4,1c.3.3.6.4,1.1.4v.9c-.8,0-1.3-.3-1.7-.7-.4-.4-.5-1-.5-1.7s.2-1.3.6-1.7c.4-.4.9-.6,1.5-.6s.6,0,.9.2c.3.1.6.3.9.6.3.3.7.7,1.3,1.4.5.5.8.9.9,1,.2.2.3.3.5.4v-3.6h0Z"/>
    <path class="st16" d="M-115.7,171.8h.9v4.9c-.2,0-.4,0-.6-.1-.3-.1-.7-.3-1-.6-.3-.3-.7-.7-1.1-1.2-.7-.8-1.2-1.3-1.6-1.6-.4-.3-.7-.4-1.1-.4s-.7.1-.9.4c-.2.3-.4.6-.4,1s.1.8.4,1c.3.3.6.4,1.1.4v.9c-.8,0-1.3-.3-1.7-.7-.4-.4-.5-1-.5-1.7s.2-1.3.6-1.7c.4-.4.9-.6,1.5-.6s.6,0,.9.2c.3.1.6.3.9.6.3.3.7.7,1.3,1.4.5.5.8.9.9,1,.2.2.3.3.5.4v-3.6h0Z"/>
    <path class="st16" d="M-116.7,170.8v-.9c.4,0,.7-.2,1-.5.2-.3.3-.6.3-.9s-.2-.8-.5-1.1c-.3-.3-.8-.4-1.3-.4s-.9.1-1.2.4c-.3.3-.4.7-.4,1.1s0,.6.2.8c.1.2.3.4.5.5v.9c-.1,0-3.9-.7-3.9-.7v-3.7h.9v2.9l2,.4c-.3-.4-.5-.9-.5-1.4s.2-1.2.7-1.6c.4-.4,1-.7,1.7-.7s1.2.2,1.7.6c.6.5.9,1.1.9,1.9s-.2,1.2-.6,1.6c-.4.4-.9.7-1.5.7h0Z"/>
    <path class="st16" d="M-114.8,161.7v.9h-5.8c.2.2.4.5.6.9.2.4.4.7.5,1h-.9c-.2-.5-.5-.9-.9-1.3-.3-.4-.7-.6-1-.8v-.6h7.4Z"/>
    <path class="st16" d="M-114.7,318.7l-2.1-.4v.8h-.8v-1l-1.8-.4v1.4h-.8v-1.5l-2.1-.4v-.8l2.1.4v-1.6l-2.1-.4v-.8l2.1.4v-.9h.8v1l1.8.4v-1.4h.8v1.5l2.1.4v.8l-2.1-.4v1.6l2.1.4v.8h0ZM-117.6,317.3v-1.6l-1.8-.4v1.6l1.8.4h0Z"/>
    <path class="st16" d="M-120.4,308.3v.9c-.3,0-.5.2-.7.3-.3.2-.4.5-.4.9s0,.5.2.8c.2.3.5.5.9.7.4.2,1,.3,1.7.3-.3-.2-.6-.5-.7-.8-.2-.3-.2-.6-.2-1,0-.6.2-1.1.7-1.5.4-.4,1-.6,1.7-.6s.9,0,1.3.3c.4.2.7.5.9.8.2.3.3.7.3,1.2,0,.8-.3,1.4-.8,1.8-.6.5-1.5.7-2.7.7s-2.5-.3-3.1-.8c-.6-.5-.8-1.1-.8-1.9s.2-1.1.5-1.4c.3-.4.8-.6,1.3-.7h0ZM-117.2,312c.3,0,.6,0,.9-.2.3-.1.5-.3.6-.6.1-.2.2-.5.2-.8,0-.4-.2-.7-.5-1-.3-.3-.7-.4-1.3-.4s-.9.1-1.2.4c-.3.3-.4.6-.4,1s.1.8.4,1c.3.3.7.4,1.2.4h0Z"/>
    <polygon class="st16" points="-114.8 306.9 -122.2 306.9 -122.2 301.6 -121.3 301.6 -121.3 305.9 -119 305.9 -119 301.9 -118.2 301.9 -118.2 305.9 -115.7 305.9 -115.7 301.4 -114.8 301.4 -114.8 306.9 -114.8 306.9"/>
    <path class="st16" d="M-117.4,294.8l.2-1c.8.2,1.4.6,1.8,1.1.4.5.6,1.2.6,1.9s-.2,1.4-.5,1.9c-.3.5-.8.9-1.4,1.1-.6.3-1.3.4-2,.4s-1.4-.1-2-.4c-.6-.3-1-.7-1.3-1.2-.3-.5-.4-1.1-.4-1.8s.2-1.4.6-1.9c.4-.5.9-.9,1.6-1l.2,1c-.5.2-.9.4-1.2.7-.2.3-.4.7-.4,1.2s.1,1,.4,1.4c.3.4.6.6,1.1.8.5.2.9.2,1.4.2s1.2,0,1.6-.3c.5-.2.8-.5,1-.8.2-.4.3-.8.3-1.2s-.2-1-.5-1.4c-.3-.4-.8-.6-1.4-.8h0Z"/>
    <path class="st16" d="M-115.7,288.3h.9v4.9c-.2,0-.4,0-.6-.1-.3-.1-.7-.3-1-.6-.3-.3-.7-.7-1.1-1.2-.7-.8-1.2-1.3-1.6-1.6-.4-.3-.7-.4-1.1-.4s-.7.1-.9.4c-.2.3-.4.6-.4,1s.1.8.4,1c.3.3.6.4,1.1.4v.9c-.8,0-1.3-.3-1.7-.7-.4-.4-.5-1-.5-1.7s.2-1.3.6-1.7c.4-.4.9-.6,1.5-.6s.6,0,.9.2c.3.1.6.3.9.6.3.3.7.7,1.3,1.4.5.5.8.9.9,1,.2.2.3.3.5.4v-3.6h0Z"/>
    <path class="st16" d="M-114.8,287h-7.4v-2.8c0-.6,0-1,.2-1.4.1-.3.4-.6.7-.8.3-.2.6-.3,1-.3s.6,0,.9.3c.3.2.5.4.7.8.1-.4.4-.8.7-1,.3-.2.7-.4,1.1-.4s.7,0,1,.2c.3.1.5.3.7.5.2.2.3.5.4.8,0,.3.1.7.1,1.2v2.8h0ZM-119.1,286v-1.6c0-.4,0-.7,0-.9,0-.2-.2-.4-.4-.6-.2-.1-.4-.2-.6-.2s-.5,0-.6.2c-.2.1-.3.3-.4.5,0,.2-.1.6-.1,1.1v1.5h2.2ZM-115.7,286v-1.8c0-.3,0-.5,0-.7,0-.2-.1-.4-.2-.6,0-.2-.2-.3-.4-.4-.2,0-.4-.1-.6-.1s-.5,0-.7.2c-.2.1-.3.3-.4.6,0,.2-.1.6-.1,1.1v1.7h2.5Z"/>
    <path class="st16" d="M-120.4,275.7v.9c-.3,0-.5.2-.7.3-.3.2-.4.5-.4.9s0,.5.2.8c.2.3.5.5.9.7.4.2,1,.3,1.7.3-.3-.2-.6-.5-.7-.8-.2-.3-.2-.6-.2-1,0-.6.2-1.1.7-1.5.4-.4,1-.6,1.7-.6s.9,0,1.3.3c.4.2.7.5.9.8.2.3.3.7.3,1.2,0,.8-.3,1.4-.8,1.8-.6.5-1.5.7-2.7.7s-2.5-.3-3.1-.8c-.6-.5-.8-1.1-.8-1.9s.2-1.1.5-1.4c.3-.4.8-.6,1.3-.7h0ZM-117.2,279.4c.3,0,.6,0,.9-.2.3-.1.5-.3.6-.6.1-.2.2-.5.2-.8,0-.4-.2-.7-.5-1-.3-.3-.7-.4-1.3-.4s-.9.1-1.2.4c-.3.3-.4.6-.4,1s.1.8.4,1c.3.3.7.4,1.2.4h0Z"/>
    <path class="st16" d="M-114.7,434.5l-2.1-.4v.8h-.8v-1l-1.8-.4v1.4h-.8v-1.5l-2.1-.4v-.8l2.1.4v-1.6l-2.1-.4v-.8l2.1.4v-.9h.8v1l1.8.4v-1.4h.8v1.5l2.1.4v.8l-2.1-.4v1.6l2.1.4v.8h0ZM-117.6,433.1v-1.6l-1.8-.4v1.6l1.8.4h0Z"/>
    <path class="st16" d="M-120.4,424.1v.9c-.3,0-.5.2-.7.3-.3.2-.4.5-.4.9s0,.5.2.8c.2.3.5.5.9.7.4.2,1,.3,1.7.3-.3-.2-.6-.5-.7-.8-.2-.3-.2-.6-.2-1,0-.6.2-1.1.7-1.5.4-.4,1-.6,1.7-.6s.9,0,1.3.3c.4.2.7.5.9.8.2.3.3.7.3,1.2,0,.8-.3,1.4-.8,1.8-.6.5-1.5.7-2.7.7s-2.5-.3-3.1-.8c-.6-.5-.8-1.1-.8-1.9s.2-1.1.5-1.4c.3-.4.8-.6,1.3-.7h0ZM-117.2,427.8c.3,0,.6,0,.9-.2.3-.1.5-.3.6-.6.1-.2.2-.5.2-.8,0-.4-.2-.7-.5-1-.3-.3-.7-.4-1.3-.4s-.9.1-1.2.4c-.3.3-.4.6-.4,1s.1.8.4,1c.3.3.7.4,1.2.4h0Z"/>
    <path class="st16" d="M-120.4,418.4v.9c-.3,0-.5.2-.7.3-.3.2-.4.5-.4.9s0,.5.2.8c.2.3.5.5.9.7.4.2,1,.3,1.7.3-.3-.2-.6-.5-.7-.8-.2-.3-.2-.6-.2-1,0-.6.2-1.1.7-1.5.4-.4,1-.6,1.7-.6s.9,0,1.3.3c.4.2.7.5.9.8.2.3.3.7.3,1.2,0,.8-.3,1.4-.8,1.8-.6.5-1.5.7-2.7.7s-2.5-.3-3.1-.8c-.6-.5-.8-1.1-.8-1.9s.2-1.1.5-1.4c.3-.4.8-.6,1.3-.7h0ZM-117.2,422.1c.3,0,.6,0,.9-.2.3-.1.5-.3.6-.6.1-.2.2-.5.2-.8,0-.4-.2-.7-.5-1-.3-.3-.7-.4-1.3-.4s-.9.1-1.2.4c-.3.3-.4.6-.4,1s.1.8.4,1c.3.3.7.4,1.2.4h0Z"/>
    <path class="st16" d="M-114.8,417.1h-7.4v-2.8c0-.6,0-1,.2-1.4.1-.3.4-.6.7-.8.3-.2.6-.3,1-.3s.6,0,.9.3c.3.2.5.4.7.8.1-.4.4-.8.7-1,.3-.2.7-.4,1.1-.4s.7,0,1,.2c.3.1.5.3.7.5.2.2.3.5.4.8,0,.3.1.7.1,1.2v2.8h0ZM-119.1,416.1v-1.6c0-.4,0-.7,0-.9,0-.2-.2-.4-.4-.6-.2-.1-.4-.2-.6-.2s-.5,0-.6.2c-.2.1-.3.3-.4.5,0,.2-.1.6-.1,1.1v1.5h2.2ZM-115.7,416.1v-1.8c0-.3,0-.5,0-.7,0-.2-.1-.4-.2-.6,0-.2-.2-.3-.4-.4-.2,0-.4-.1-.6-.1s-.5,0-.7.2c-.2.1-.3.3-.4.6,0,.2-.1.6-.1,1.1v1.7h2.5Z"/>
    <path class="st16" d="M-121.2,410.5h-.9v-4.8h.7c.5.5,1.2.9,2,1.4.8.5,1.7.8,2.6,1.1.6.2,1.3.3,2,.3v.9c-.6,0-1.3-.1-2.1-.3-.8-.2-1.6-.5-2.4-.9-.8-.4-1.4-.8-1.9-1.3v3.6h0Z"/>
    <path class="st16" d="M-120.4,400.1v.9c-.3,0-.5.2-.7.3-.3.2-.4.5-.4.9s0,.5.2.8c.2.3.5.5.9.7.4.2,1,.3,1.7.3-.3-.2-.6-.5-.7-.8-.2-.3-.2-.6-.2-1,0-.6.2-1.1.7-1.5.4-.4,1-.6,1.7-.6s.9,0,1.3.3c.4.2.7.5.9.8.2.3.3.7.3,1.2,0,.8-.3,1.4-.8,1.8-.6.5-1.5.7-2.7.7s-2.5-.3-3.1-.8c-.6-.5-.8-1.1-.8-1.9s.2-1.1.5-1.4c.3-.4.8-.6,1.3-.7h0ZM-117.2,403.8c.3,0,.6,0,.9-.2.3-.1.5-.3.6-.6.1-.2.2-.5.2-.8,0-.4-.2-.7-.5-1-.3-.3-.7-.4-1.3-.4s-.9.1-1.2.4c-.3.3-.4.6-.4,1s.1.8.4,1c.3.3.7.4,1.2.4h0Z"/>
    <path class="st16" d="M-114.8,398.8h-7.4v-2.8c0-.6,0-1,.2-1.4.1-.3.4-.6.7-.8.3-.2.6-.3,1-.3s.6,0,.9.3c.3.2.5.4.7.8.1-.4.4-.8.7-1,.3-.2.7-.4,1.1-.4s.7,0,1,.2c.3.1.5.3.7.5.2.2.3.5.4.8,0,.3.1.7.1,1.2v2.8h0ZM-119.1,397.8v-1.6c0-.4,0-.7,0-.9,0-.2-.2-.4-.4-.6-.2-.1-.4-.2-.6-.2s-.5,0-.6.2c-.2.1-.3.3-.4.5,0,.2-.1.6-.1,1.1v1.5h2.2ZM-115.7,397.8v-1.8c0-.3,0-.5,0-.7,0-.2-.1-.4-.2-.6,0-.2-.2-.3-.4-.4-.2,0-.4-.1-.6-.1s-.5,0-.7.2c-.2.1-.3.3-.4.6,0,.2-.1.6-.1,1.1v1.7h2.5Z"/>
  </g>
</svg>